<?xml version="1.0" encoding="utf-8"?>
<!-- Generator: Adobe Illustrator 16.0.4, SVG Export Plug-In . SVG Version: 6.00 Build 0)  -->
<!DOCTYPE svg PUBLIC "-//W3C//DTD SVG 1.1//EN" "http://www.w3.org/Graphics/SVG/1.1/DTD/svg11.dtd">
<svg version="1.1" id="Layer_1" xmlns="http://www.w3.org/2000/svg" xmlns:xlink="http://www.w3.org/1999/xlink" x="0px" y="0px"
	 width="264px" height="263.999px" viewBox="0 0 264 263.999" enable-background="new 0 0 264 263.999" xml:space="preserve">
<g id="New_Symbol_13">
</g>
<g>
	<g>
		<g>
			
				<rect x="163.333" y="159" fill="#FFFFFF" stroke="#1565C0" stroke-width="3" stroke-linecap="round" stroke-linejoin="round" stroke-miterlimit="10" width="38.667" height="44.5"/>
			<g>
				<path fill="#E3F2FD" d="M260,152.334c0,4.399-3.6,8-8,8H113.333c-4.4,0-8-3.601-8-8V44.333c0-4.4,3.6-8,8-8H252c4.4,0,8,3.6,8,8
					V152.334z"/>
				
					<path fill="none" stroke="#1565C0" stroke-width="3" stroke-linecap="round" stroke-linejoin="round" stroke-miterlimit="10" d="
					M260,152.334c0,4.399-3.6,8-8,8H113.333c-4.4,0-8-3.601-8-8V44.333c0-4.4,3.6-8,8-8H252c4.4,0,8,3.6,8,8V152.334z"/>
			</g>
			
				<rect x="105.332" y="143" fill="#FFFFFF" stroke="#1565C0" stroke-width="3" stroke-linecap="round" stroke-linejoin="round" stroke-miterlimit="10" width="154.667" height="17.334"/>
			<g>
				<path fill="#E3F2FD" d="M145.333,187H168c2.2,0,4,1.8,4,4v13.334c0,2.2-1.8,4-4,4h-22.667"/>
				
					<path fill="none" stroke="#1565C0" stroke-width="3" stroke-linecap="round" stroke-linejoin="round" stroke-miterlimit="10" d="
					M145.333,187H168c2.2,0,4,1.8,4,4v13.334c0,2.2-1.8,4-4,4h-22.667"/>
			</g>
			
				<line fill="#E3F2FD" stroke="#1565C0" stroke-width="3" stroke-linecap="round" stroke-linejoin="round" stroke-miterlimit="10" x1="143.999" y1="197.667" x2="221.333" y2="197.667"/>
			
				<line fill="#1565C0" stroke="#1565C0" stroke-width="3" stroke-linecap="round" stroke-linejoin="round" stroke-miterlimit="10" x1="69.9" y1="48.334" x2="28.637" y2="48.334"/>
			<g>
				<g>
					<path fill="#FFFFFF" d="M64.566,109.668c0,4.399-3.6,8-8,8H33.268c-4.4,0-8-3.601-8-8v-47.72c0-4.4,3.6-8,8-8h23.298
						c4.4,0,8,3.6,8,8V109.668z"/>
					
						<path fill="none" stroke="#1565C0" stroke-width="3" stroke-linecap="round" stroke-linejoin="round" stroke-miterlimit="10" d="
						M64.566,109.668c0,4.399-3.6,8-8,8H33.268c-4.4,0-8-3.601-8-8v-47.72c0-4.4,3.6-8,8-8h23.298c4.4,0,8,3.6,8,8V109.668z"/>
				</g>
				
					<rect x="21.9" y="101.668" fill="#FFFFFF" stroke="#1565C0" stroke-width="3" stroke-linecap="round" stroke-linejoin="round" stroke-miterlimit="10" width="26.667" height="26.666"/>
				<g>
					<path fill="#1565C0" d="M53.057,99c0,4.399-3.601,8-8,8H21.759c-4.4,0-8-3.601-8-8V56.334c0-4.399,3.6-8,8-8h23.298
						c4.399,0,8,3.601,8,8V99z"/>
					
						<path fill="none" stroke="#1565C0" stroke-width="3" stroke-linecap="round" stroke-linejoin="round" stroke-miterlimit="10" d="
						M53.057,99c0,4.399-3.601,8-8,8H21.759c-4.4,0-8-3.601-8-8V56.334c0-4.399,3.6-8,8-8h23.298c4.399,0,8,3.601,8,8V99z"/>
				</g>
				<g>
					<path fill="#1565C0" d="M69.9,48.334v8.843c0,4.4-3.6,8-8,8H49.829c-4.4,0-8-3.6-8-8v-8.843"/>
					
						<path fill="none" stroke="#1565C0" stroke-width="3" stroke-linecap="round" stroke-linejoin="round" stroke-miterlimit="10" d="
						M69.9,48.334v8.843c0,4.4-3.6,8-8,8H49.829c-4.4,0-8-3.6-8-8v-8.843"/>
				</g>
			</g>
			<g>
				<g>
					<g>
						<path fill="#FFFFFF" d="M3.999,227.666v-87.332c0-6.601,5.4-12,12-12H48.91"/>
						
							<path fill="none" stroke="#1565C0" stroke-width="3" stroke-linecap="round" stroke-linejoin="round" stroke-miterlimit="10" d="
							M3.999,227.666v-87.332c0-6.601,5.4-12,12-12H48.91"/>
					</g>
					
						<path fill="#FFFFFF" stroke="#1565C0" stroke-width="3" stroke-linecap="round" stroke-linejoin="round" stroke-miterlimit="10" d="
						M48.911,128.334c11.534,0,18.183,11.582,18.183,11.582l26.935,38.344h37.065c13.663,0,24.74,11.076,24.74,24.74l-82.501,3.26
						v21.406H4v-77.838v-9.494c0-6.6,5.4-12,12-12H48.911"/>
					
						<polyline fill="#FFFFFF" stroke="#1565C0" stroke-width="3" stroke-linecap="round" stroke-linejoin="round" stroke-miterlimit="10" points="
						73.332,198.111 73.332,227.593 3.999,227.593 3.999,149.828 					"/>
					
						<path fill="#FFFFFF" stroke="#1565C0" stroke-width="3" stroke-linecap="round" stroke-linejoin="round" stroke-miterlimit="10" d="
						M48.91,128.334c11.534,0,18.183,11.582,18.183,11.582l26.935,38.344h37.065v27.169h-48.07c-2.381-2.342-4.24-5.019-4.814-5.891
						c-0.127-0.184-0.192-0.288-0.192-0.288"/>
				</g>
			</g>
			
				<path fill="#FFFFFF" stroke="#1565C0" stroke-width="3" stroke-linecap="round" stroke-linejoin="round" stroke-miterlimit="10" d="
				M131.093,178.26c13.663,0,24.74,11.076,24.74,24.74"/>
			<g>
				<path fill="#FFFFFF" d="M73.332,197.667h178.667c4.4,0,8,3.6,8,8v13.999c0,4.399-3.6,8-8,8H73.332"/>
				
					<path fill="none" stroke="#1565C0" stroke-width="3" stroke-linecap="round" stroke-linejoin="round" stroke-miterlimit="10" d="
					M73.332,197.667h178.667c4.4,0,8,3.6,8,8v13.999c0,4.399-3.6,8-8,8H73.332"/>
			</g>
			
				<line fill="none" stroke="#1565C0" stroke-width="3" stroke-linecap="round" stroke-linejoin="round" stroke-miterlimit="10" x1="73.332" y1="197.667" x2="51.999" y2="165.668"/>
			
				<line fill="none" stroke="#1565C0" stroke-width="3" stroke-linecap="round" stroke-linejoin="round" stroke-miterlimit="10" x1="73.332" y1="198.111" x2="73.332" y2="227.666"/>
			
				<polyline fill="#FFFFFF" stroke="#1565C0" stroke-width="3" stroke-linecap="round" stroke-linejoin="round" stroke-miterlimit="10" points="
				243.999,227.666 259.999,227.666 259.999,211.666 			"/>
			<g>
				<g>
					<g>
						<path fill="#1565C0" d="M243.999,126.945v-11.51c0-1.101-0.835-2.334-1.857-2.743l-15.08-6.029
							c-1.021-0.409-2.756-0.755-3.856-0.77l-11.036-0.143c-1.1-0.015-2.833,0.315-3.85,0.732l-15.092,6.193
							c-1.018,0.417-1.85,1.658-1.85,2.759v11.51"/>
						
							<path fill="none" stroke="#1565C0" stroke-width="3" stroke-linecap="round" stroke-linejoin="round" stroke-miterlimit="10" d="
							M243.999,126.945v-11.51c0-1.101-0.835-2.334-1.857-2.743l-15.08-6.029c-1.021-0.409-2.756-0.755-3.856-0.77l-11.036-0.143
							c-1.1-0.015-2.833,0.315-3.85,0.732l-15.092,6.193c-1.018,0.417-1.85,1.658-1.85,2.759v11.51"/>
					</g>
					
						<rect x="210.17" y="105.92" fill="#E3F2FD" stroke="#1565C0" stroke-width="3" stroke-linecap="round" stroke-linejoin="round" stroke-miterlimit="10" width="15.036" height="21.08"/>
					<g>
						<path fill="#FFFFFF" d="M225.205,105.92c0,0,0,2.537,0,5.638s-3.383,5.638-7.518,5.638s-7.518-2.537-7.518-5.638
							s0-5.638,0-5.638"/>
						
							<path fill="none" stroke="#1565C0" stroke-width="3" stroke-linecap="round" stroke-linejoin="round" stroke-miterlimit="10" d="
							M225.205,105.92c0,0,0,2.537,0,5.638s-3.383,5.638-7.518,5.638s-7.518-2.537-7.518-5.638s0-5.638,0-5.638"/>
					</g>
					<g>
						<path fill="#FFFFFF" d="M232.724,97.92c0,4.399-3.6,8-8,8h-14.071c-4.4,0-8-3.601-8-8V76.333c0-4.4,3.6-8,8-8h14.071
							c4.4,0,8,3.6,8,8V97.92z"/>
						
							<path fill="none" stroke="#1565C0" stroke-width="3" stroke-linecap="round" stroke-linejoin="round" stroke-miterlimit="10" d="
							M232.724,97.92c0,4.399-3.6,8-8,8h-14.071c-4.4,0-8-3.601-8-8V76.333c0-4.4,3.6-8,8-8h14.071c4.4,0,8,3.6,8,8V97.92z"/>
					</g>
					<g>
						
							<path fill="none" stroke="#1565C0" stroke-width="3" stroke-linecap="round" stroke-linejoin="round" stroke-miterlimit="10" d="
							M221.447,68.333c0,0,0,2.537,0,5.639s-3.6,5.639-8,5.639h-10.795"/>
					</g>
					<g>
						
							<path fill="none" stroke="#1565C0" stroke-width="3" stroke-linecap="round" stroke-linejoin="round" stroke-miterlimit="10" d="
							M232.724,79.61c0,0-2.537,0-5.638,0s-5.638-2.537-5.638-5.639s0-5.639,0-5.639"/>
					</g>
					<g>
						<path fill="#1565C0" d="M221.447,73.972c0-3.101,0-5.639,0-5.639h-10.025c-4.823,0-8.77,3.947-8.77,8.771v2.507h10.024
							C217.5,79.61,221.447,77.073,221.447,73.972z"/>
						<path fill="#1565C0" d="M223.952,68.333h-2.505c0,0,0,2.538,0,5.639c0,3.102,2.536,5.639,5.638,5.639c3.101,0,5.638,0,5.638,0
							v-2.507C232.724,72.28,228.775,68.333,223.952,68.333z"/>
					</g>
					
						<line fill="none" stroke="#1565C0" stroke-width="3" stroke-linecap="round" stroke-linejoin="round" stroke-miterlimit="10" x1="221.447" y1="98.207" x2="213.929" y2="98.207"/>
				</g>
			</g>
			<g>
				<path fill="#FFFFFF" d="M121.333,60.999c0,1.1,0.9,2,2,2h6.666c1.1,0,2-0.9,2-2v-6.667c0-1.101-0.9-2-2-2h-6.666
					c-1.1,0-2,0.899-2,2V60.999z"/>
				
					<path fill="none" stroke="#1565C0" stroke-width="3" stroke-linecap="round" stroke-linejoin="round" stroke-miterlimit="10" d="
					M121.333,60.999c0,1.1,0.9,2,2,2h6.666c1.1,0,2-0.9,2-2v-6.667c0-1.101-0.9-2-2-2h-6.666c-1.1,0-2,0.899-2,2V60.999z"/>
			</g>
			<g>
				<path fill="#FFFFFF" d="M121.333,82.333c0,1.1,0.9,2,2,2h6.666c1.1,0,2-0.9,2-2v-6.667c0-1.101-0.9-2-2-2h-6.666
					c-1.1,0-2,0.899-2,2V82.333z"/>
				
					<path fill="none" stroke="#1565C0" stroke-width="3" stroke-linecap="round" stroke-linejoin="round" stroke-miterlimit="10" d="
					M121.333,82.333c0,1.1,0.9,2,2,2h6.666c1.1,0,2-0.9,2-2v-6.667c0-1.101-0.9-2-2-2h-6.666c-1.1,0-2,0.899-2,2V82.333z"/>
			</g>
			<g>
				<path fill="#FFFFFF" d="M121.333,103.666c0,1.101,0.9,2,2,2h6.666c1.1,0,2-0.899,2-2V97c0-1.101-0.9-2-2-2h-6.666
					c-1.1,0-2,0.899-2,2V103.666z"/>
				
					<path fill="none" stroke="#1565C0" stroke-width="3" stroke-linecap="round" stroke-linejoin="round" stroke-miterlimit="10" d="
					M121.333,103.666c0,1.101,0.9,2,2,2h6.666c1.1,0,2-0.899,2-2V97c0-1.101-0.9-2-2-2h-6.666c-1.1,0-2,0.899-2,2V103.666z"/>
			</g>
			<g>
				<path fill="#FFFFFF" d="M121.333,125c0,1.101,0.9,2,2,2h6.666c1.1,0,2-0.899,2-2v-6.666c0-1.101-0.9-2-2-2h-6.666
					c-1.1,0-2,0.899-2,2V125z"/>
				
					<path fill="none" stroke="#1565C0" stroke-width="3" stroke-linecap="round" stroke-linejoin="round" stroke-miterlimit="10" d="
					M121.333,125c0,1.101,0.9,2,2,2h6.666c1.1,0,2-0.899,2-2v-6.666c0-1.101-0.9-2-2-2h-6.666c-1.1,0-2,0.899-2,2V125z"/>
			</g>
			
				<line fill="none" stroke="#1565C0" stroke-width="3" stroke-linecap="round" stroke-linejoin="round" stroke-miterlimit="10" x1="142.665" y1="57.665" x2="174.665" y2="57.665"/>
			
				<line fill="none" stroke="#1565C0" stroke-width="3" stroke-linecap="round" stroke-linejoin="round" stroke-miterlimit="10" x1="142.665" y1="79" x2="174.665" y2="79"/>
			
				<line fill="none" stroke="#1565C0" stroke-width="3" stroke-linecap="round" stroke-linejoin="round" stroke-miterlimit="10" x1="142.665" y1="100.334" x2="174.665" y2="100.334"/>
			
				<line fill="none" stroke="#1565C0" stroke-width="3" stroke-linecap="round" stroke-linejoin="round" stroke-miterlimit="10" x1="142.665" y1="121.668" x2="174.665" y2="121.668"/>
		</g>
	</g>
	
		<polyline fill="#FFFFFF" stroke="#1565C0" stroke-width="3" stroke-linecap="round" stroke-linejoin="round" stroke-miterlimit="10" points="
		57.332,203.999 57.332,212.229 35.999,212.229 35.999,203.999 	"/>
</g>
</svg>
