<?xml version="1.0" encoding="utf-8"?>
<!-- Generator: Adobe Illustrator 16.0.4, SVG Export Plug-In . SVG Version: 6.00 Build 0)  -->
<!DOCTYPE svg PUBLIC "-//W3C//DTD SVG 1.1//EN" "http://www.w3.org/Graphics/SVG/1.1/DTD/svg11.dtd">
<svg version="1.1" id="Layer_1" xmlns="http://www.w3.org/2000/svg" xmlns:xlink="http://www.w3.org/1999/xlink" x="0px" y="0px"
	 width="264px" height="264px" viewBox="0 0 264 264" enable-background="new 0 0 264 264" xml:space="preserve">
<g id="New_Symbol_13">
	<g>
		<path fill="#E3F2FD" d="M259.559,244c0,8.8-7.2,16-16,16H132.602c-8.8,0-16-7.2-16-16V20.687c0-8.8,7.2-16,16-16h110.957
			c8.8,0,16,7.2,16,16V244z"/>
		<path fill="none" stroke="#1565C0" stroke-width="3" stroke-linecap="round" stroke-linejoin="round" stroke-miterlimit="10" d="
			M259.559,244c0,8.8-7.2,16-16,16H132.602c-8.8,0-16-7.2-16-16V20.687c0-8.8,7.2-16,16-16h110.957c8.8,0,16,7.2,16,16V244z"/>
	</g>
	
		<line fill="#FFFFFF" stroke="#1565C0" stroke-width="3" stroke-linecap="round" stroke-linejoin="round" stroke-miterlimit="10" x1="231.559" y1="164" x2="144.602" y2="164"/>
	
		<line fill="#FFFFFF" stroke="#1565C0" stroke-width="3" stroke-linecap="round" stroke-linejoin="round" stroke-miterlimit="10" x1="231.559" y1="196" x2="144.602" y2="196"/>
	
		<line fill="#FFFFFF" stroke="#1565C0" stroke-width="3" stroke-linecap="round" stroke-linejoin="round" stroke-miterlimit="10" x1="224.869" y1="180" x2="151.291" y2="180"/>
	
		<line fill="#FFFFFF" stroke="#1565C0" stroke-width="3" stroke-linecap="round" stroke-linejoin="round" stroke-miterlimit="10" x1="224.869" y1="212" x2="151.291" y2="212"/>
	
		<line fill="#FFFFFF" stroke="#1565C0" stroke-width="3" stroke-linecap="round" stroke-linejoin="round" stroke-miterlimit="10" x1="231.559" y1="228" x2="144.602" y2="228"/>
	<g>
		
			<rect x="16.035" y="28" fill="#FFFFFF" stroke="#1565C0" stroke-width="3" stroke-linecap="round" stroke-linejoin="round" stroke-miterlimit="10" width="39.965" height="128"/>
		
			<polyline fill="#1565C0" stroke="#1565C0" stroke-width="3" stroke-linecap="round" stroke-linejoin="round" stroke-miterlimit="10" points="
			56,124 56,176 16.035,176 16.035,124 		"/>
		
			<path fill="#1565C0" stroke="#1565C0" stroke-width="3" stroke-linecap="round" stroke-linejoin="round" stroke-miterlimit="10" d="
			M56.035,176c0,11.046-8.955,20-20,20c-11.046,0-20-8.954-20-20"/>
		
			<line fill="none" stroke="#FFFFFF" stroke-width="3" stroke-linecap="round" stroke-linejoin="round" stroke-miterlimit="10" x1="36" y1="124" x2="36" y2="136"/>
		
			<line fill="none" stroke="#1565C0" stroke-width="3" stroke-linecap="round" stroke-linejoin="round" stroke-miterlimit="10" x1="36" y1="108" x2="16" y2="112"/>
		
			<line fill="#FFFFFF" stroke="#1565C0" stroke-width="3" stroke-linecap="round" stroke-linejoin="round" stroke-miterlimit="10" x1="56" y1="108" x2="32" y2="84"/>
		
			<path fill="#1565C0" stroke="#1565C0" stroke-width="3" stroke-linecap="round" stroke-linejoin="round" stroke-miterlimit="10" d="
			M94.053,133.77c4.496,4.496,4.496,11.786,0,16.283c-4.496,4.496-11.787,4.496-16.283,0C73.273,145.556,68,124,68,124
			S89.557,129.273,94.053,133.77z"/>
		
			<path fill="#1565C0" stroke="#1565C0" stroke-width="3" stroke-linecap="round" stroke-linejoin="round" stroke-miterlimit="10" d="
			M75.393,98.552c3.402-3.402,8.919-3.402,12.321,0c3.402,3.401,3.402,8.918,0,12.321C84.312,114.275,68,118.267,68,118.267
			S71.99,101.953,75.393,98.552z"/>
		<polyline fill="none" stroke="#1565C0" stroke-width="3" stroke-linejoin="round" stroke-miterlimit="10" points="36,124 36,108 
			56,88 		"/>
	</g>
	<g>
		<g>
			<g>
				<path fill="#1565C0" d="M188.077,72.766l29.722,51.342h-59.436L188.077,72.766 M151.535,120.161
					c-3.038,5.253,0.753,11.839,6.828,11.839h59.436c6.073,0,9.865-6.586,6.824-11.839l-29.716-51.342
					c-3.037-5.248-10.613-5.248-13.659,0L151.535,120.161z"/>
				<path fill="#1565C0" d="M184.131,92.536v11.801c0,2.173,1.78,3.946,3.946,3.946l0,0c2.173,0,3.946-1.773,3.946-3.946V92.536
					c0-2.17-1.773-3.946-3.946-3.946l0,0C185.911,88.59,184.131,90.366,184.131,92.536z"/>
				<circle fill="#1565C0" cx="188.077" cy="116.215" r="3.946"/>
			</g>
		</g>
	</g>
	
		<circle fill="#FFFFFF" stroke="#1565C0" stroke-width="3" stroke-linecap="round" stroke-linejoin="round" stroke-miterlimit="10" cx="188.602" cy="20.687" r="7.313"/>
	<path fill="none" stroke="#1565C0" stroke-width="3" stroke-linecap="round" stroke-linejoin="round" stroke-miterlimit="10" d="
		M36,208c0,11.046,8.954,20,20,20h44"/>
	
		<rect x="12" y="4" fill="#E3F2FD" stroke="#1565C0" stroke-width="3" stroke-linecap="round" stroke-linejoin="round" stroke-miterlimit="10" width="48" height="40"/>
</g>
</svg>
