<?xml version="1.0" encoding="utf-8"?>
<!-- Generator: Adobe Illustrator 16.0.4, SVG Export Plug-In . SVG Version: 6.00 Build 0)  -->
<!DOCTYPE svg PUBLIC "-//W3C//DTD SVG 1.1//EN" "http://www.w3.org/Graphics/SVG/1.1/DTD/svg11.dtd">
<svg version="1.1" id="Layer_1" xmlns="http://www.w3.org/2000/svg" xmlns:xlink="http://www.w3.org/1999/xlink" x="0px" y="0px"
	 width="264px" height="264px" viewBox="0 0 264 264" enable-background="new 0 0 264 264" xml:space="preserve">
<g id="New_Symbol_13">
</g>
<g>
	
		<path fill="#E3F2FD" stroke="#1565C0" stroke-width="3" stroke-linecap="round" stroke-linejoin="round" stroke-miterlimit="10" d="
		M260,248.377"/>
	<g>
		
			<path fill="#1565C0" stroke="#1565C0" stroke-width="3" stroke-linecap="round" stroke-linejoin="round" stroke-miterlimit="10" d="
			M94,230.668l-19.333-25.77V191l4.499-5.633c0.866-1.1,0.101-2.701-1.3-2.701H58.134c-1.4,0-2.165,1.602-1.3,2.701l4.5,5.633
			v13.898l-19.333,25.77c-1.635,2.201-0.068,5.332,2.666,5.332h46.667C94.068,236,95.634,232.869,94,230.668z"/>
	</g>
	
		<rect x="124" y="4" fill="#E3F2FD" stroke="#1565C0" stroke-width="3" stroke-linecap="round" stroke-linejoin="round" stroke-miterlimit="10" width="136" height="8"/>
	
		<rect x="124" y="252" fill="#1565C0" stroke="#1565C0" stroke-width="3" stroke-linecap="round" stroke-linejoin="round" stroke-miterlimit="10" width="136" height="8"/>
	
		<rect x="124" y="96" fill="#E3F2FD" stroke="#1565C0" stroke-width="3" stroke-linecap="round" stroke-linejoin="round" stroke-miterlimit="10" width="8" height="164"/>
	
		<rect x="252" y="84" fill="#E3F2FD" stroke="#1565C0" stroke-width="3" stroke-linecap="round" stroke-linejoin="round" stroke-miterlimit="10" width="8" height="164"/>
	
		<rect x="4" y="44" fill="#E3F2FD" stroke="#1565C0" stroke-width="3" stroke-linecap="round" stroke-linejoin="round" stroke-miterlimit="10" width="8" height="164"/>
	
		<path fill="#1565C0" stroke="#1565C0" stroke-width="3" stroke-linecap="round" stroke-linejoin="round" stroke-miterlimit="10" d="
		M212.398,67.75c0,8.972-8.148,16.25-18.199,16.25C184.147,84,176,76.722,176,67.75C176,58.775,194.199,32,194.199,32
		S212.398,58.775,212.398,67.75z"/>
	<g>
		
			<path fill="#E3F2FD" stroke="#1565C0" stroke-width="3" stroke-linecap="round" stroke-linejoin="round" stroke-miterlimit="10" d="
			M206.289,163.665H194.93l-7.904,7.904h17.288c5.434,0,9.881,4.444,9.881,9.88v35.637H168v7.741h54.098v-4.13v-3.611v-37.613
			C222.098,170.778,214.983,163.665,206.289,163.665z"/>
		
			<rect x="179.121" y="136" fill="#E3F2FD" stroke="#1565C0" stroke-width="3" stroke-linecap="round" stroke-linejoin="round" stroke-miterlimit="10" width="11.856" height="63.232"/>
		
			<rect x="179.121" y="136" fill="#E3F2FD" stroke="#1565C0" stroke-width="3" stroke-linecap="round" stroke-linejoin="round" stroke-miterlimit="10" width="11.856" height="17.646"/>
		
			<rect x="168" y="209.182" fill="#E3F2FD" stroke="#1565C0" stroke-width="3" stroke-linecap="round" stroke-linejoin="round" stroke-miterlimit="10" width="34.151" height="7.904"/>
		
			<rect x="175.17" y="143.904" fill="#E3F2FD" stroke="#1565C0" stroke-width="3" stroke-linecap="round" stroke-linejoin="round" stroke-miterlimit="10" width="19.76" height="47.425"/>
		
			<circle fill="#1565C0" stroke="#1565C0" stroke-width="3" stroke-linecap="round" stroke-linejoin="round" stroke-miterlimit="10" cx="194.929" cy="167.617" r="7.904"/>
		
			<circle fill="#FFFFFF" stroke="#1565C0" stroke-width="3" stroke-linecap="round" stroke-linejoin="round" stroke-miterlimit="10" cx="194.93" cy="167.617" r="3.952"/>
	</g>
	<g>
		<g>
			<path fill="none" stroke="#1565C0" stroke-width="6" stroke-linecap="round" stroke-linejoin="round" stroke-miterlimit="10" d="
				M45.96,40.818c0,13.693,6.602,20.028,19.281,24.795C78.526,69.472,90.04,76.714,90.04,90.409
				c0,13.694-11.759,21.094-24.796,24.796C53.227,119.349,45.96,126.307,45.96,140"/>
			<path fill="none" stroke="#1565C0" stroke-width="6" stroke-linecap="round" stroke-linejoin="round" stroke-miterlimit="10" d="
				M90.04,140c0-13.693-6.604-20.03-19.281-24.795c-13.286-3.859-24.798-11.102-24.798-24.796c0-13.695,11.759-21.094,24.795-24.796
				C82.772,61.47,90.04,54.512,90.04,40.818"/>
		</g>
		
			<line fill="none" stroke="#1565C0" stroke-width="3" stroke-linecap="round" stroke-linejoin="round" stroke-miterlimit="10" x1="53.822" y1="41.076" x2="82.109" y2="41.076"/>
		
			<line fill="none" stroke="#1565C0" stroke-width="3" stroke-linecap="round" stroke-linejoin="round" stroke-miterlimit="10" x1="58.899" y1="50.838" x2="77.029" y2="50.838"/>
		
			<line fill="none" stroke="#1565C0" stroke-width="3" stroke-linecap="round" stroke-linejoin="round" stroke-miterlimit="10" x1="82.109" y1="139.848" x2="53.822" y2="139.848"/>
		
			<line fill="none" stroke="#1565C0" stroke-width="3" stroke-linecap="round" stroke-linejoin="round" stroke-miterlimit="10" x1="77.029" y1="130.089" x2="58.899" y2="130.089"/>
		<g>
			
				<line fill="none" stroke="#1565C0" stroke-width="3" stroke-linecap="round" stroke-linejoin="round" stroke-miterlimit="10" x1="53.855" y1="89.99" x2="82.143" y2="89.99"/>
			
				<line fill="none" stroke="#1565C0" stroke-width="3" stroke-linecap="round" stroke-linejoin="round" stroke-miterlimit="10" x1="58.936" y1="99.752" x2="77.064" y2="99.752"/>
			
				<line fill="none" stroke="#1565C0" stroke-width="3" stroke-linecap="round" stroke-linejoin="round" stroke-miterlimit="10" x1="58.936" y1="81.068" x2="77.064" y2="81.068"/>
		</g>
	</g>
	
		<rect x="4" y="20" fill="#1565C0" stroke="#1565C0" stroke-width="3" stroke-linecap="round" stroke-linejoin="round" stroke-miterlimit="10" width="128" height="8"/>
	
		<rect x="4" y="156" fill="#1565C0" stroke="#1565C0" stroke-width="3" stroke-linecap="round" stroke-linejoin="round" stroke-miterlimit="10" width="128" height="8"/>
	
		<rect x="228" y="4" fill="#1565C0" stroke="#1565C0" stroke-width="3" stroke-linecap="round" stroke-linejoin="round" stroke-miterlimit="10" width="32" height="8"/>
	
		<rect x="124" y="4" fill="#1565C0" stroke="#1565C0" stroke-width="3" stroke-linecap="round" stroke-linejoin="round" stroke-miterlimit="10" width="32" height="8"/>
	<g>
		
			<rect x="124" y="108" fill="#FFFFFF" stroke="#1565C0" stroke-width="3" stroke-linecap="round" stroke-linejoin="round" stroke-miterlimit="10" width="136" height="8"/>
		
			<rect x="132" y="108" fill="#1565C0" stroke="#1565C0" stroke-width="3" stroke-linecap="round" stroke-linejoin="round" stroke-miterlimit="10" width="128" height="8"/>
	</g>
	
		<rect x="4" y="252" fill="#1565C0" stroke="#1565C0" stroke-width="3" stroke-linecap="round" stroke-linejoin="round" stroke-miterlimit="10" width="128" height="8"/>
	
		<rect x="196" y="252" fill="#1565C0" stroke="#1565C0" stroke-width="3" stroke-linecap="round" stroke-linejoin="round" stroke-miterlimit="10" width="64" height="8"/>
	
		<rect x="252" y="4.001" fill="#1565C0" stroke="#1565C0" stroke-width="3" stroke-linecap="round" stroke-linejoin="round" stroke-miterlimit="10" width="8" height="172"/>
	
		<rect x="252" y="232" fill="#1565C0" stroke="#1565C0" stroke-width="3" stroke-linecap="round" stroke-linejoin="round" stroke-miterlimit="10" width="8" height="28"/>
	
		<rect x="4" y="112" fill="#1565C0" stroke="#1565C0" stroke-width="3" stroke-linecap="round" stroke-linejoin="round" stroke-miterlimit="10" width="8" height="148"/>
	
		<rect x="4" y="24" fill="#1565C0" stroke="#1565C0" stroke-width="3" stroke-linecap="round" stroke-linejoin="round" stroke-miterlimit="10" width="8" height="32"/>
	
		<rect x="124" y="4.002" fill="#1565C0" stroke="#1565C0" stroke-width="3" stroke-linecap="round" stroke-linejoin="round" stroke-miterlimit="10" width="8" height="172"/>
	
		<rect x="124" y="231.999" fill="#1565C0" stroke="#1565C0" stroke-width="3" stroke-linecap="round" stroke-linejoin="round" stroke-miterlimit="10" width="8" height="28"/>
</g>
</svg>
