<?xml version="1.0" encoding="utf-8"?>
<!-- Generator: Adobe Illustrator 16.0.4, SVG Export Plug-In . SVG Version: 6.00 Build 0)  -->
<!DOCTYPE svg PUBLIC "-//W3C//DTD SVG 1.1//EN" "http://www.w3.org/Graphics/SVG/1.1/DTD/svg11.dtd">
<svg version="1.1" id="Layer_1" xmlns="http://www.w3.org/2000/svg" xmlns:xlink="http://www.w3.org/1999/xlink" x="0px" y="0px"
	 width="264px" height="264px" viewBox="0 0 264 264" enable-background="new 0 0 264 264" xml:space="preserve">
<g id="New_Symbol_13">
</g>
<g>
	<g>
		<g>
			<path fill="#FFFFFF" d="M252,136V40c0-6.6-5.4-12-12-12l0,0c-6.6,0-12,5.4-12,12v96"/>
			<path fill="none" stroke="#1565C0" stroke-width="3" stroke-linecap="round" stroke-linejoin="round" stroke-miterlimit="10" d="
				M252,136V40c0-6.6-5.4-12-12-12l0,0c-6.6,0-12,5.4-12,12v96"/>
		</g>
		<g>
			<path fill="#FFFFFF" d="M228,136l9.959,16.792c1.122,1.893,2.959,1.893,4.081,0L252,136"/>
			<path fill="none" stroke="#1565C0" stroke-width="3" stroke-linecap="round" stroke-linejoin="round" stroke-miterlimit="10" d="
				M228,136l9.959,16.792c1.122,1.893,2.959,1.893,4.081,0L252,136"/>
		</g>
		
			<polygon fill="#E3F2FD" stroke="#1565C0" stroke-width="3" stroke-linecap="round" stroke-linejoin="round" stroke-miterlimit="10" points="
			228,136 235.255,148.232 244.745,148.232 252,136 		"/>
		
			<path fill="#E3F2FD" stroke="#1565C0" stroke-width="3" stroke-linecap="round" stroke-linejoin="round" stroke-miterlimit="10" d="
			M240,28c-6.6,0-12,5.4-12,12v28c6.6,0,12-5.4,12-12V40h12C252,33.4,246.6,28,240,28z"/>
	</g>
	<path fill="none" stroke="#1565C0" stroke-width="3" stroke-linecap="round" stroke-linejoin="round" stroke-miterlimit="10" d="
		M224,228c8.836,0,16-7.163,16-16v-24v-24"/>
	<g>
		<g>
			<path fill="#FFFFFF" d="M204,244c0,8.8-7.2,16-16,16H28c-8.8,0-16-7.2-16-16V44c0-8.8,7.2-16,16-16h160c8.8,0,16,7.2,16,16V244z"
				/>
			<path fill="none" stroke="#1565C0" stroke-width="3" stroke-linecap="round" stroke-linejoin="round" stroke-miterlimit="10" d="
				M204,244c0,8.8-7.2,16-16,16H28c-8.8,0-16-7.2-16-16V44c0-8.8,7.2-16,16-16h160c8.8,0,16,7.2,16,16V244z"/>
		</g>
		
			<path fill="#E3F2FD" stroke="#1565C0" stroke-width="3" stroke-linecap="round" stroke-linejoin="round" stroke-miterlimit="10" d="
			M140,16h-20c0-6.628-5.373-12-12-12S96,9.372,96,16H76c-4.4,0-8,3.6-8,8v16c0,4.4,3.6,8,8,8h64c4.4,0,8-3.6,8-8V24
			C148,19.6,144.4,16,140,16z"/>
		
			<circle fill="#FFFFFF" stroke="#1565C0" stroke-width="3" stroke-linecap="round" stroke-linejoin="round" stroke-miterlimit="10" cx="108" cy="16" r="4"/>
		<g>
			<path fill="#E3F2FD" d="M52,176c-4.4,0-8,3.6-8,8v36c0,4.4,3.6,8,8,8h40c4.4,0,8-3.6,8-8v-36c0-4.4-3.6-8-8-8H52z"/>
			<path fill="none" stroke="#1565C0" stroke-width="3" stroke-linecap="round" stroke-linejoin="round" stroke-miterlimit="10" d="
				M52,176c-4.4,0-8,3.6-8,8v36c0,4.4,3.6,8,8,8h40c4.4,0,8-3.6,8-8v-36c0-4.4-3.6-8-8-8H52z"/>
		</g>
		<g>
			<path fill="#E3F2FD" d="M104,116c0-4.4-3.6-8-8-8H52c-4.4,0-8,3.6-8,8v48c0,4.4,3.6,8,8,8h44c4.4,0,8-3.6,8-8V116z"/>
			<path fill="none" stroke="#1565C0" stroke-width="3" stroke-linecap="round" stroke-linejoin="round" stroke-miterlimit="10" d="
				M104,116c0-4.4-3.6-8-8-8H52c-4.4,0-8,3.6-8,8v48c0,4.4,3.6,8,8,8h44c4.4,0,8-3.6,8-8V116z"/>
		</g>
		
			<rect x="44" y="148" fill="#E3F2FD" stroke="#1565C0" stroke-width="3" stroke-linecap="round" stroke-linejoin="round" stroke-miterlimit="10" width="40" height="40"/>
		<g>
			<path fill="#FFFFFF" d="M108,220c0,4.4,3.6,8,8,8h48c4.4,0,8-3.6,8-8v-40c0-4.4-3.6-8-8-8h-48c-4.4,0-8,3.6-8,8V220z"/>
			<path fill="none" stroke="#1565C0" stroke-width="3" stroke-linecap="round" stroke-linejoin="round" stroke-miterlimit="10" d="
				M108,220c0,4.4,3.6,8,8,8h48c4.4,0,8-3.6,8-8v-40c0-4.4-3.6-8-8-8h-48c-4.4,0-8,3.6-8,8V220z"/>
		</g>
		
			<rect x="128" y="148" fill="#FFFFFF" stroke="#1565C0" stroke-width="3" stroke-linecap="round" stroke-linejoin="round" stroke-miterlimit="10" width="44" height="40"/>
		<g>
			<path fill="#FFFFFF" d="M148,68H92c-4.4,0-8,3.6-8,8v48c0,4.4,3.6,8,8,8h56"/>
			<path fill="none" stroke="#1565C0" stroke-width="3" stroke-linecap="round" stroke-linejoin="round" stroke-miterlimit="10" d="
				M148,68H92c-4.4,0-8,3.6-8,8v48c0,4.4,3.6,8,8,8h56"/>
		</g>
		
			<rect x="84" y="188" fill="#FFFFFF" stroke="#1565C0" stroke-width="3" stroke-linecap="round" stroke-linejoin="round" stroke-miterlimit="10" width="44" height="40"/>
		
			<rect x="84" y="108" fill="#FFFFFF" stroke="#1565C0" stroke-width="3" stroke-linecap="round" stroke-linejoin="round" stroke-miterlimit="10" width="44" height="40"/>
		
			<rect x="84" y="148" fill="#FFFFFF" stroke="#1565C0" stroke-width="3" stroke-linecap="round" stroke-linejoin="round" stroke-miterlimit="10" width="44" height="40"/>
		
			<rect x="128" y="108" fill="#FFFFFF" stroke="#1565C0" stroke-width="3" stroke-linecap="round" stroke-linejoin="round" stroke-miterlimit="10" width="44" height="40"/>
		<g>
			<path fill="#FFFFFF" d="M172,108V76c0-4.4-3.6-8-8-8h-36"/>
			<path fill="none" stroke="#1565C0" stroke-width="3" stroke-linecap="round" stroke-linejoin="round" stroke-miterlimit="10" d="
				M172,108V76c0-4.4-3.6-8-8-8h-36"/>
		</g>
		
			<line fill="none" stroke="#1565C0" stroke-width="3" stroke-linecap="round" stroke-linejoin="round" stroke-miterlimit="10" x1="128" y1="108" x2="128" y2="68"/>
		<g>
			<path fill="#1565C0" d="M55.131,158.73c0-2.273,1.182-2.988,2.988-2.988h6.785c3.736,0,8.188,0.84,8.188,5.789
				c0,1.898-1.027,3.705-3.145,4.545v0.062c2.365,0.623,3.922,2.303,3.922,5.385c0,4.701-3.828,6.631-8.248,6.631h-7.502
				c-1.807,0-2.988-0.717-2.988-2.988V158.73z M60.235,164.955h4.202c2.396,0,3.549-0.965,3.549-2.738
				c0-2.148-1.806-2.74-3.705-2.74h-4.046V164.955z M60.235,174.232h4.296c1.992,0,4.232-0.406,4.232-2.988
				c0-2.709-2.365-3.051-4.855-3.051h-3.673V174.232z"/>
		</g>
		<g>
			<path fill="#1565C0" d="M60.998,116.893c0.436-1.15,1.245-1.555,2.491-1.555h1.213c1.152,0,2.18,0.279,2.74,1.867l6.162,17.15
				c0.188,0.498,0.498,1.402,0.498,1.961c0,1.246-1.089,2.242-2.396,2.242c-1.12,0-1.93-0.404-2.303-1.4l-1.308-3.736h-8.218
				l-1.338,3.736c-0.344,0.996-1.059,1.4-2.273,1.4c-1.4,0-2.365-0.871-2.365-2.242c0-0.559,0.311-1.463,0.498-1.961L60.998,116.893
				z M64.079,120.877h-0.062l-3.02,8.996h5.977L64.079,120.877z"/>
		</g>
		<g>
			<path fill="#1565C0" d="M65.371,195.213c5.853,0,9.059,3.672,9.059,5.852c0,1.432-0.778,2.303-2.303,2.303
				c-2.958,0-2.086-4.045-6.756-4.045c-3.205,0-5.852,2.77-5.852,7.625c0,4.078,1.619,7.627,6.039,7.627
				c4.016,0,3.922-4.295,6.381-4.295c1.245,0,2.49,0.715,2.49,1.961c0,3.236-3.922,6.443-8.871,6.443
				c-7.004,0-11.145-4.016-11.145-11.736C54.414,200.629,58.15,195.213,65.371,195.213z"/>
		</g>
		
			<line fill="#FFFFFF" stroke="#1565C0" stroke-width="3" stroke-linecap="round" stroke-linejoin="round" stroke-miterlimit="10" x1="112.666" y1="96" x2="96" y2="96"/>
		
			<line fill="#FFFFFF" stroke="#1565C0" stroke-width="3" stroke-linecap="round" stroke-linejoin="round" stroke-miterlimit="10" x1="116" y1="80" x2="96" y2="80"/>
		
			<line fill="#FFFFFF" stroke="#1565C0" stroke-width="3" stroke-linecap="round" stroke-linejoin="round" stroke-miterlimit="10" x1="108" y1="88" x2="96" y2="88"/>
		
			<line fill="#FFFFFF" stroke="#1565C0" stroke-width="3" stroke-linecap="round" stroke-linejoin="round" stroke-miterlimit="10" x1="156.666" y1="96" x2="140" y2="96"/>
		
			<line fill="#FFFFFF" stroke="#1565C0" stroke-width="3" stroke-linecap="round" stroke-linejoin="round" stroke-miterlimit="10" x1="160" y1="80" x2="140" y2="80"/>
		
			<line fill="#FFFFFF" stroke="#1565C0" stroke-width="3" stroke-linecap="round" stroke-linejoin="round" stroke-miterlimit="10" x1="152" y1="88" x2="140" y2="88"/>
	</g>
</g>
<polyline fill="#E3F2FD" stroke="#1565C0" stroke-width="3" stroke-linecap="round" stroke-linejoin="round" stroke-miterlimit="10" points="
	92,48 68,48 68,32 "/>
<polyline fill="#E3F2FD" stroke="#1565C0" stroke-width="3" stroke-linecap="round" stroke-linejoin="round" stroke-miterlimit="10" points="
	124,48 148,48 148,32 "/>
<line fill="none" stroke="#1565C0" stroke-width="3" stroke-linecap="round" stroke-linejoin="round" stroke-miterlimit="10" x1="68" y1="40" x2="148" y2="40"/>
</svg>
