<?xml version="1.0" encoding="utf-8"?>
<!-- Generator: Adobe Illustrator 16.0.4, SVG Export Plug-In . SVG Version: 6.00 Build 0)  -->
<!DOCTYPE svg PUBLIC "-//W3C//DTD SVG 1.1//EN" "http://www.w3.org/Graphics/SVG/1.1/DTD/svg11.dtd">
<svg version="1.1" id="Layer_1" xmlns="http://www.w3.org/2000/svg" xmlns:xlink="http://www.w3.org/1999/xlink" x="0px" y="0px"
	 width="264px" height="264px" viewBox="0 0 264 264" enable-background="new 0 0 264 264" xml:space="preserve">
<g id="New_Symbol_13">
</g>
<g>
	<path fill="none" stroke="#1565C0" stroke-width="3" stroke-linecap="round" stroke-linejoin="round" stroke-miterlimit="10" d="
		M20,128v84c0,17.674,14.327,32,32,32"/>
	<g>
		<path fill="#E3F2FD" d="M20,112V16c0-6.6,5.4-12,12-12h148c6.6,0,12,5.4,12,12v96"/>
		<path fill="none" stroke="#1565C0" stroke-width="3" stroke-linecap="round" stroke-linejoin="round" stroke-miterlimit="10" d="
			M20,112V16c0-6.6,5.4-12,12-12h148c6.6,0,12,5.4,12,12v96"/>
	</g>
	<g>
		<path fill="#1565C0" d="M36,96V68c0-4.4,3.6-8,8-8h124c4.4,0,8,3.6,8,8v28"/>
		<path fill="none" stroke="#1565C0" stroke-width="3" stroke-linecap="round" stroke-linejoin="round" stroke-miterlimit="10" d="
			M36,96V68c0-4.4,3.6-8,8-8h124c4.4,0,8,3.6,8,8v28"/>
	</g>
	
		<circle fill="#FFFFFF" stroke="#1565C0" stroke-width="3" stroke-linecap="round" stroke-linejoin="round" stroke-miterlimit="10" cx="168.298" cy="22.674" r="5.093"/>
	
		<line fill="none" stroke="#1565C0" stroke-width="3" stroke-linecap="round" stroke-linejoin="round" stroke-miterlimit="10" x1="36" y1="96" x2="176" y2="96"/>
	
		<line fill="none" stroke="#1565C0" stroke-width="3" stroke-linecap="round" stroke-linejoin="round" stroke-miterlimit="10" x1="192" y1="112" x2="20" y2="112"/>
	
		<rect x="52" y="76" fill="#FFFFFF" stroke="#1565C0" stroke-width="3" stroke-linecap="round" stroke-linejoin="round" stroke-miterlimit="10" width="112" height="132"/>
	<g>
		
			<line fill="#FFFFFF" stroke="#1565C0" stroke-width="3" stroke-linecap="round" stroke-linejoin="round" stroke-miterlimit="10" x1="128" y1="104" x2="65.758" y2="104"/>
		
			<line fill="#FFFFFF" stroke="#1565C0" stroke-width="3" stroke-linecap="round" stroke-linejoin="round" stroke-miterlimit="10" x1="128" y1="120" x2="65.758" y2="120"/>
		
			<line fill="#FFFFFF" stroke="#1565C0" stroke-width="3" stroke-linecap="round" stroke-linejoin="round" stroke-miterlimit="10" x1="128" y1="88" x2="65.758" y2="88"/>
		
			<line fill="#FFFFFF" stroke="#1565C0" stroke-width="3" stroke-linecap="round" stroke-linejoin="round" stroke-miterlimit="10" x1="120" y1="95.844" x2="65.758" y2="95.844"/>
		
			<line fill="#FFFFFF" stroke="#1565C0" stroke-width="3" stroke-linecap="round" stroke-linejoin="round" stroke-miterlimit="10" x1="122.156" y1="112.145" x2="65.758" y2="112.145"/>
		
			<line fill="#FFFFFF" stroke="#1565C0" stroke-width="3" stroke-linecap="round" stroke-linejoin="round" stroke-miterlimit="10" x1="120" y1="127.768" x2="65.758" y2="127.768"/>
	</g>
	<g>
		<g>
			
				<polyline fill="#FFFFFF" stroke="#1565C0" stroke-width="3" stroke-linecap="round" stroke-linejoin="round" stroke-miterlimit="10" points="
				150.156,188 114.156,188 114.156,152 			"/>
			
				<line fill="none" stroke="#1565C0" stroke-width="3" stroke-linecap="round" stroke-linejoin="round" stroke-miterlimit="10" x1="122.156" y1="188" x2="122.156" y2="172"/>
			
				<line fill="none" stroke="#1565C0" stroke-width="3" stroke-linecap="round" stroke-linejoin="round" stroke-miterlimit="10" x1="130.156" y1="188" x2="130.156" y2="164"/>
			
				<line fill="none" stroke="#1565C0" stroke-width="3" stroke-linecap="round" stroke-linejoin="round" stroke-miterlimit="10" x1="138.156" y1="188" x2="138.156" y2="176"/>
			
				<line fill="none" stroke="#1565C0" stroke-width="3" stroke-linecap="round" stroke-linejoin="round" stroke-miterlimit="10" x1="146.156" y1="188" x2="146.156" y2="160"/>
		</g>
		<g>
			
				<path fill="#FFFFFF" stroke="#1565C0" stroke-width="3" stroke-linecap="round" stroke-linejoin="round" stroke-miterlimit="10" d="
				M84.186,170.462h-0.085l12.661,12.661c3.266-3.241,5.311-7.712,5.381-12.661H84.186z"/>
			
				<path fill="#E3F2FD" stroke="#1565C0" stroke-width="3" stroke-linecap="round" stroke-linejoin="round" stroke-miterlimit="10" d="
				M65.775,170.462c0.143,9.929,8.224,17.934,18.184,17.934c4.996,0,9.518-2.015,12.803-5.272l-12.661-12.661H65.775z"/>
			
				<path fill="#E3F2FD" stroke="#1565C0" stroke-width="3" stroke-linecap="round" stroke-linejoin="round" stroke-miterlimit="10" d="
				M102.156,170.198c0-9.973-8.025-18.063-17.971-18.186v18.449h17.957C102.145,170.372,102.156,170.289,102.156,170.198z"/>
			
				<path fill="#1565C0" stroke="#1565C0" stroke-width="3" stroke-linecap="round" stroke-linejoin="round" stroke-miterlimit="10" d="
				M83.959,152c-10.049,0-18.197,8.148-18.197,18.198c0,0.091,0.012,0.174,0.014,0.264h18.41v-18.449
				C84.109,152.011,84.033,152,83.959,152z"/>
		</g>
	</g>
	
		<polygon fill="#FFFFFF" stroke="#1565C0" stroke-width="3" stroke-linecap="round" stroke-linejoin="round" stroke-miterlimit="10" points="
		248,260 137.844,260 137.844,120 228,120 248,140 	"/>
	
		<polygon fill="#E3F2FD" stroke="#1565C0" stroke-width="3" stroke-linecap="round" stroke-linejoin="round" stroke-miterlimit="10" points="
		228,120 228,140 248,140 	"/>
	<g>
		
			<line fill="#FFFFFF" stroke="#1565C0" stroke-width="3" stroke-linecap="round" stroke-linejoin="round" stroke-miterlimit="10" x1="208" y1="156.232" x2="151.602" y2="156.232"/>
		
			<line fill="#FFFFFF" stroke="#1565C0" stroke-width="3" stroke-linecap="round" stroke-linejoin="round" stroke-miterlimit="10" x1="208" y1="140.232" x2="151.602" y2="140.232"/>
		
			<line fill="#FFFFFF" stroke="#1565C0" stroke-width="3" stroke-linecap="round" stroke-linejoin="round" stroke-miterlimit="10" x1="200" y1="148.076" x2="151.602" y2="148.076"/>
	</g>
	
		<line fill="#FFFFFF" stroke="#1565C0" stroke-width="3" stroke-linecap="round" stroke-linejoin="round" stroke-miterlimit="10" x1="228.001" y1="176.156" x2="167.601" y2="176.156"/>
	
		<rect x="152.001" y="172" fill="#FFFFFF" stroke="#1565C0" stroke-width="3" stroke-linecap="round" stroke-linejoin="round" stroke-miterlimit="10" width="7.999" height="7.999"/>
	
		<line fill="#FFFFFF" stroke="#1565C0" stroke-width="3" stroke-linecap="round" stroke-linejoin="round" stroke-miterlimit="10" x1="220.001" y1="192.156" x2="167.601" y2="192.156"/>
	
		<rect x="152.001" y="188" fill="#FFFFFF" stroke="#1565C0" stroke-width="3" stroke-linecap="round" stroke-linejoin="round" stroke-miterlimit="10" width="7.999" height="7.999"/>
	
		<line fill="#FFFFFF" stroke="#1565C0" stroke-width="3" stroke-linecap="round" stroke-linejoin="round" stroke-miterlimit="10" x1="228.001" y1="208.156" x2="167.601" y2="208.156"/>
	
		<rect x="152.001" y="204" fill="#FFFFFF" stroke="#1565C0" stroke-width="3" stroke-linecap="round" stroke-linejoin="round" stroke-miterlimit="10" width="7.999" height="7.999"/>
	
		<line fill="#FFFFFF" stroke="#1565C0" stroke-width="3" stroke-linecap="round" stroke-linejoin="round" stroke-miterlimit="10" x1="220.001" y1="224.156" x2="167.601" y2="224.156"/>
	
		<rect x="152.001" y="220" fill="#FFFFFF" stroke="#1565C0" stroke-width="3" stroke-linecap="round" stroke-linejoin="round" stroke-miterlimit="10" width="7.999" height="7.999"/>
	
		<line fill="#FFFFFF" stroke="#1565C0" stroke-width="3" stroke-linecap="round" stroke-linejoin="round" stroke-miterlimit="10" x1="228.001" y1="240.156" x2="167.601" y2="240.156"/>
	
		<rect x="152.001" y="236" fill="#FFFFFF" stroke="#1565C0" stroke-width="3" stroke-linecap="round" stroke-linejoin="round" stroke-miterlimit="10" width="7.999" height="7.999"/>
</g>
</svg>
