<?xml version="1.0" encoding="utf-8"?>
<!-- Generator: Adobe Illustrator 16.0.4, SVG Export Plug-In . SVG Version: 6.00 Build 0)  -->
<!DOCTYPE svg PUBLIC "-//W3C//DTD SVG 1.1//EN" "http://www.w3.org/Graphics/SVG/1.1/DTD/svg11.dtd">
<svg version="1.1" id="Layer_1" xmlns="http://www.w3.org/2000/svg" xmlns:xlink="http://www.w3.org/1999/xlink" x="0px" y="0px"
	 width="264px" height="264px" viewBox="0 0 264 264" enable-background="new 0 0 264 264" xml:space="preserve">
<g id="New_Symbol_13">
</g>
<g>
	
		<line fill="#FFFFFF" stroke="#1565C0" stroke-width="3" stroke-linecap="round" stroke-linejoin="round" stroke-miterlimit="10" x1="47.814" y1="28.654" x2="47.814" y2="9.497"/>
	
		<line fill="#FFFFFF" stroke="#1565C0" stroke-width="3" stroke-linecap="round" stroke-linejoin="round" stroke-miterlimit="10" x1="47.814" y1="86.128" x2="47.814" y2="66.971"/>
	
		<line fill="#FFFFFF" stroke="#1565C0" stroke-width="3" stroke-linecap="round" stroke-linejoin="round" stroke-miterlimit="10" x1="86.13" y1="47.812" x2="66.972" y2="47.812"/>
	
		<line fill="#FFFFFF" stroke="#1565C0" stroke-width="3" stroke-linecap="round" stroke-linejoin="round" stroke-miterlimit="10" x1="9.499" y1="47.812" x2="28.656" y2="47.812"/>
	<g>
		<g>
			
				<line fill="#FFFFFF" stroke="#1565C0" stroke-width="3" stroke-linecap="round" stroke-linejoin="round" stroke-miterlimit="10" x1="20.384" y1="20.384" x2="47.814" y2="47.812"/>
		</g>
		<g>
			
				<line fill="#FFFFFF" stroke="#1565C0" stroke-width="3" stroke-linecap="round" stroke-linejoin="round" stroke-miterlimit="10" x1="20.384" y1="75.499" x2="47.812" y2="48.068"/>
		</g>
	</g>
	<g>
		<g>
			
				<line fill="#FFFFFF" stroke="#1565C0" stroke-width="3" stroke-linecap="round" stroke-linejoin="round" stroke-miterlimit="10" x1="75.515" y1="75.503" x2="48.082" y2="48.075"/>
		</g>
		<g>
			
				<line fill="#FFFFFF" stroke="#1565C0" stroke-width="3" stroke-linecap="round" stroke-linejoin="round" stroke-miterlimit="10" x1="75.515" y1="20.386" x2="48.085" y2="47.817"/>
		</g>
	</g>
	
		<path fill="#E3F2FD" stroke="#1565C0" stroke-width="3" stroke-linecap="round" stroke-linejoin="round" stroke-miterlimit="10" d="
		M70.972,47.812c0,12.793-10.369,23.158-23.157,23.158c-12.791,0-23.158-10.365-23.158-23.158c0-12.79,10.367-23.158,23.158-23.158
		C60.603,24.654,70.972,35.022,70.972,47.812z"/>
	<g>
		
			<path fill="#FFFFFF" stroke="#1565C0" stroke-width="3" stroke-linecap="round" stroke-linejoin="round" stroke-miterlimit="10" d="
			M53.311,9.499c0,3.037-2.461,5.496-5.496,5.496c-3.036,0-5.499-2.459-5.499-5.496C42.315,6.46,44.778,4,47.814,4
			C50.85,4,53.311,6.46,53.311,9.499z"/>
		
			<circle fill="#FFFFFF" stroke="#1565C0" stroke-width="3" stroke-linecap="round" stroke-linejoin="round" stroke-miterlimit="10" cx="47.813" cy="86.128" r="5.498"/>
	</g>
	<g>
		
			<circle fill="#FFFFFF" stroke="#1565C0" stroke-width="3" stroke-linecap="round" stroke-linejoin="round" stroke-miterlimit="10" cx="86.13" cy="47.812" r="5.497"/>
		
			<circle fill="#FFFFFF" stroke="#1565C0" stroke-width="3" stroke-linecap="round" stroke-linejoin="round" stroke-miterlimit="10" cx="9.499" cy="47.812" r="5.497"/>
	</g>
	<g>
		
			<path fill="#FFFFFF" stroke="#1565C0" stroke-width="3" stroke-linecap="round" stroke-linejoin="round" stroke-miterlimit="10" d="
			M78.793,24.608c-2.143,2.146-5.626,2.147-7.774,0c-2.146-2.146-2.146-5.628,0-7.774c2.148-2.15,5.632-2.15,7.776-0.003
			C80.941,18.98,80.941,22.462,78.793,24.608z"/>
		
			<path fill="#FFFFFF" stroke="#1565C0" stroke-width="3" stroke-linecap="round" stroke-linejoin="round" stroke-miterlimit="10" d="
			M24.607,78.793c-2.146,2.148-5.628,2.148-7.773,0c-2.15-2.146-2.149-5.626,0-7.775c2.146-2.148,5.628-2.148,7.773,0
			C26.755,73.167,26.755,76.647,24.607,78.793z"/>
	</g>
	<g>
		
			<path fill="#FFFFFF" stroke="#1565C0" stroke-width="3" stroke-linecap="round" stroke-linejoin="round" stroke-miterlimit="10" d="
			M71.019,78.793c-2.146-2.146-2.149-5.628-0.001-7.776c2.149-2.147,5.633-2.147,7.777,0.001c2.146,2.147,2.146,5.63,0,7.775
			C76.65,80.941,73.167,80.938,71.019,78.793z"/>
		
			<path fill="#FFFFFF" stroke="#1565C0" stroke-width="3" stroke-linecap="round" stroke-linejoin="round" stroke-miterlimit="10" d="
			M16.834,24.608c-2.149-2.146-2.15-5.628,0-7.777c2.146-2.147,5.631-2.146,7.773,0c2.147,2.149,2.149,5.631,0.003,7.78
			C22.465,26.758,18.979,26.754,16.834,24.608z"/>
	</g>
</g>
<g>
	
		<path fill="#1565C0" stroke="#1565C0" stroke-width="3" stroke-linecap="round" stroke-linejoin="round" stroke-miterlimit="10" d="
		M95.152,126.388c-7.209,2.182-14.822-1.894-17.008-9.106c-2.18-7.211,1.899-14.824,9.109-17.006
		c13.101-3.966,20.424-11.471,22.395-22.949c1.561-9.101-0.745-17.363-0.769-17.442c-2.182-7.212,1.892-14.826,9.104-17.008
		c7.211-2.182,14.825,1.896,17.006,9.108C141.938,74.942,137.063,113.706,95.152,126.388z"/>
	
		<line fill="#FFFFFF" stroke="#1565C0" stroke-width="3" stroke-linecap="round" stroke-linejoin="round" stroke-miterlimit="10" x1="78.256" y1="118.744" x2="72" y2="121.01"/>
	
		<line fill="#FFFFFF" stroke="#1565C0" stroke-width="3" stroke-linecap="round" stroke-linejoin="round" stroke-miterlimit="10" x1="117.984" y1="42.876" x2="115.717" y2="36"/>
	
		<line fill="#FFFFFF" stroke="#1565C0" stroke-width="3" stroke-linecap="round" stroke-linejoin="round" stroke-miterlimit="10" x1="130.33" y1="44.433" x2="133.716" y2="39.25"/>
	
		<line fill="#FFFFFF" stroke="#1565C0" stroke-width="3" stroke-linecap="round" stroke-linejoin="round" stroke-miterlimit="10" x1="81.206" y1="131.414" x2="84.557" y2="125.7"/>
	
		<line fill="#FFFFFF" stroke="#1565C0" stroke-width="3" stroke-linecap="round" stroke-linejoin="round" stroke-miterlimit="10" x1="95.264" y1="133.938" x2="92.926" y2="127.517"/>
	
		<line fill="#FFFFFF" stroke="#1565C0" stroke-width="3" stroke-linecap="round" stroke-linejoin="round" stroke-miterlimit="10" x1="109.867" y1="49.356" x2="103.335" y2="45.788"/>
	<circle fill="#FFFFFF" cx="90.736" cy="114.815" r="6.237"/>
	<circle fill="#FFFFFF" cx="112.14" cy="100.271" r="4.107"/>
	<circle fill="#FFFFFF" cx="123.077" cy="81.536" r="3.058"/>
	<circle fill="#FFFFFF" cx="122.482" cy="57.873" r="6.521"/>
</g>
<path fill="#E3F2FD" stroke="#1565C0" stroke-width="3" stroke-linecap="round" stroke-linejoin="round" stroke-miterlimit="10" d="
	M228.097,124.411h-31.903l-15.951,15.951h43.867c10.967,0,19.939,8.973,19.939,19.939v84.075H132.012V260H260v-8.334v-7.289v-88.062
	C260,138.768,245.644,124.411,228.097,124.411z"/>
<rect x="164.29" y="68.58" fill="#E3F2FD" stroke="#1565C0" stroke-width="3" stroke-linecap="round" stroke-linejoin="round" stroke-miterlimit="10" width="23.928" height="127.613"/>
<rect x="164.29" y="68.58" fill="#E3F2FD" stroke="#1565C0" stroke-width="3" stroke-linecap="round" stroke-linejoin="round" stroke-miterlimit="10" width="23.928" height="35.613"/>
<rect x="172.266" y="172.242" fill="#E3F2FD" stroke="#1565C0" stroke-width="3" stroke-linecap="round" stroke-linejoin="round" stroke-miterlimit="10" width="7.977" height="23.951"/>
<g>
	<path fill="#E3F2FD" d="M132,228.097c0,4.387,3.6,7.976,8,7.976h71.734c4.4,0,8-3.589,8-7.976s-3.6-7.976-8-7.976H140
		C135.6,220.121,132,223.71,132,228.097z"/>
	<path fill="none" stroke="#1565C0" stroke-width="3" stroke-linecap="round" stroke-linejoin="round" stroke-miterlimit="10" d="
		M132,228.097c0,4.387,3.6,7.976,8,7.976h71.734c4.4,0,8-3.589,8-7.976s-3.6-7.976-8-7.976H140
		C135.6,220.121,132,223.71,132,228.097z"/>
</g>
<rect x="156.314" y="84.531" fill="#E3F2FD" stroke="#1565C0" stroke-width="3" stroke-linecap="round" stroke-linejoin="round" stroke-miterlimit="10" width="39.879" height="95.711"/>
<circle fill="#1565C0" stroke="#1565C0" stroke-width="3" stroke-linecap="round" stroke-linejoin="round" stroke-miterlimit="10" cx="196.193" cy="132.387" r="15.951"/>
<circle fill="#FFFFFF" stroke="#1565C0" stroke-width="3" stroke-linecap="round" stroke-linejoin="round" stroke-miterlimit="10" cx="196.193" cy="132.387" r="7.976"/>
<path fill="none" stroke="#1565C0" stroke-width="3" stroke-linecap="round" stroke-linejoin="round" stroke-miterlimit="10" d="
	M48,108v88c0,17.674,14.327,32,32,32h40"/>
<polyline fill="#E3F2FD" stroke="#1565C0" stroke-width="3" stroke-linecap="round" stroke-linejoin="round" stroke-miterlimit="10" points="
	132,228.361 132,236.072 147.879,236.072 "/>
<polyline fill="#E3F2FD" stroke="#1565C0" stroke-width="3" stroke-linecap="round" stroke-linejoin="round" stroke-miterlimit="10" points="
	219.734,228.361 219.734,236.072 203.855,236.072 "/>
</svg>
