<?xml version="1.0" encoding="utf-8"?>
<!-- Generator: Adobe Illustrator 16.0.4, SVG Export Plug-In . SVG Version: 6.00 Build 0)  -->
<!DOCTYPE svg PUBLIC "-//W3C//DTD SVG 1.1//EN" "http://www.w3.org/Graphics/SVG/1.1/DTD/svg11.dtd">
<svg version="1.1" id="Layer_1" xmlns="http://www.w3.org/2000/svg" xmlns:xlink="http://www.w3.org/1999/xlink" x="0px" y="0px"
	 width="264px" height="264px" viewBox="0 0 264 264" enable-background="new 0 0 264 264" xml:space="preserve">
<g id="New_Symbol_13">
</g>
<polygon fill="#FFFFFF" stroke="#1565C0" stroke-width="3" stroke-linecap="round" stroke-linejoin="round" stroke-miterlimit="10" points="
	130.156,164 4,164 4,4 110.156,4 130.156,24 "/>
<polygon fill="#E3F2FD" stroke="#1565C0" stroke-width="3" stroke-linecap="round" stroke-linejoin="round" stroke-miterlimit="10" points="
	110.156,4 110.156,24 130.156,24 "/>
<g>
	
		<line fill="#FFFFFF" stroke="#1565C0" stroke-width="3" stroke-linecap="round" stroke-linejoin="round" stroke-miterlimit="10" x1="116" y1="60" x2="79.602" y2="60"/>
	
		<line fill="#FFFFFF" stroke="#1565C0" stroke-width="3" stroke-linecap="round" stroke-linejoin="round" stroke-miterlimit="10" x1="116" y1="76" x2="79.602" y2="76"/>
	
		<line fill="#FFFFFF" stroke="#1565C0" stroke-width="3" stroke-linecap="round" stroke-linejoin="round" stroke-miterlimit="10" x1="116" y1="44" x2="79.602" y2="44"/>
	
		<line fill="#FFFFFF" stroke="#1565C0" stroke-width="3" stroke-linecap="round" stroke-linejoin="round" stroke-miterlimit="10" x1="108" y1="51.844" x2="79.602" y2="51.844"/>
	
		<line fill="#FFFFFF" stroke="#1565C0" stroke-width="3" stroke-linecap="round" stroke-linejoin="round" stroke-miterlimit="10" x1="110.261" y1="68" x2="79.602" y2="68"/>
</g>
<g>
	
		<line fill="#FFFFFF" stroke="#1565C0" stroke-width="3" stroke-linecap="round" stroke-linejoin="round" stroke-miterlimit="10" x1="236" y1="20" x2="204.818" y2="20"/>
	
		<line fill="#FFFFFF" stroke="#1565C0" stroke-width="3" stroke-linecap="round" stroke-linejoin="round" stroke-miterlimit="10" x1="236" y1="4" x2="204.818" y2="4"/>
	
		<line fill="#FFFFFF" stroke="#1565C0" stroke-width="3" stroke-linecap="round" stroke-linejoin="round" stroke-miterlimit="10" x1="225.217" y1="11.844" x2="204.818" y2="11.844"/>
</g>
<g>
	
		<line fill="#FFFFFF" stroke="#1565C0" stroke-width="3" stroke-linecap="round" stroke-linejoin="round" stroke-miterlimit="10" x1="260" y1="180" x2="228.818" y2="180"/>
	
		<line fill="#FFFFFF" stroke="#1565C0" stroke-width="3" stroke-linecap="round" stroke-linejoin="round" stroke-miterlimit="10" x1="260" y1="164" x2="228.818" y2="164"/>
	
		<line fill="#FFFFFF" stroke="#1565C0" stroke-width="3" stroke-linecap="round" stroke-linejoin="round" stroke-miterlimit="10" x1="249.217" y1="171.844" x2="228.818" y2="171.844"/>
</g>
<g>
	
		<line fill="#FFFFFF" stroke="#1565C0" stroke-width="3" stroke-linecap="round" stroke-linejoin="round" stroke-miterlimit="10" x1="100.818" y1="224.156" x2="132" y2="224.156"/>
	
		<line fill="#FFFFFF" stroke="#1565C0" stroke-width="3" stroke-linecap="round" stroke-linejoin="round" stroke-miterlimit="10" x1="111.602" y1="216" x2="132" y2="216"/>
</g>
<g>
	
		<line fill="#FFFFFF" stroke="#1565C0" stroke-width="3" stroke-linecap="round" stroke-linejoin="round" stroke-miterlimit="10" x1="148" y1="148" x2="160" y2="148"/>
	
		<line fill="#FFFFFF" stroke="#1565C0" stroke-width="3" stroke-linecap="round" stroke-linejoin="round" stroke-miterlimit="10" x1="140" y1="155.844" x2="160" y2="155.844"/>
</g>
<g>
	
		<path fill="#FFFFFF" stroke="#1565C0" stroke-width="3" stroke-linecap="round" stroke-linejoin="round" stroke-miterlimit="10" d="
		M46.322,118.377h-0.121l18.091,18.091c4.667-4.631,7.589-11.02,7.688-18.091H46.322z"/>
	
		<path fill="#E3F2FD" stroke="#1565C0" stroke-width="3" stroke-linecap="round" stroke-linejoin="round" stroke-miterlimit="10" d="
		M20.02,118.377C20.223,132.563,31.77,144,46,144c7.139,0,13.599-2.879,18.292-7.532l-18.091-18.091H20.02z"/>
	
		<path fill="#E3F2FD" stroke="#1565C0" stroke-width="3" stroke-linecap="round" stroke-linejoin="round" stroke-miterlimit="10" d="
		M72,118c0-14.248-11.467-25.809-25.678-25.983v26.36H71.98C71.982,118.249,72,118.13,72,118z"/>
	
		<path fill="#1565C0" stroke="#1565C0" stroke-width="3" stroke-linecap="round" stroke-linejoin="round" stroke-miterlimit="10" d="
		M46,91.999c-14.357,0-26,11.643-26,26.001c0,0.13,0.018,0.249,0.02,0.377h26.303v-26.36C46.215,92.015,46.105,91.999,46,91.999z"/>
</g>
<g>
	<g>
		<path fill="#1565C0" d="M68,76v-6.286c0-2.2-1.671-4.669-3.714-5.485l-9.715-3.886c-2.043-0.817-5.514-1.509-7.714-1.537
			l-5.715-0.074c-2.2-0.028-5.665,0.632-7.701,1.467l-9.741,3.997C21.665,65.03,20,67.514,20,69.714V76"/>
		<path fill="none" stroke="#1565C0" stroke-width="3" stroke-linecap="round" stroke-linejoin="round" stroke-miterlimit="10" d="
			M68,76v-6.286c0-2.2-1.671-4.669-3.714-5.485l-9.715-3.886c-2.043-0.817-5.514-1.509-7.714-1.537l-5.715-0.074
			c-2.2-0.028-5.665,0.632-7.701,1.467l-9.741,3.997C21.665,65.03,20,67.514,20,69.714V76"/>
	</g>
	
		<rect x="37.143" y="58.857" fill="#E3F2FD" stroke="#1565C0" stroke-width="3" stroke-linecap="round" stroke-linejoin="round" stroke-miterlimit="10" width="13.715" height="17.143"/>
	<g>
		<path fill="#FFFFFF" d="M50.857,58.857c0,0,0,2.314,0,5.143S47.771,69.143,44,69.143S37.143,66.828,37.143,64s0-5.143,0-5.143"/>
		<path fill="none" stroke="#1565C0" stroke-width="3" stroke-linecap="round" stroke-linejoin="round" stroke-miterlimit="10" d="
			M50.857,58.857c0,0,0,2.314,0,5.143S47.771,69.143,44,69.143S37.143,66.828,37.143,64s0-5.143,0-5.143"/>
	</g>
	
		<line fill="none" stroke="#1565C0" stroke-width="3" stroke-linecap="round" stroke-linejoin="round" stroke-miterlimit="10" x1="20" y1="76" x2="68" y2="76"/>
	<g>
		<path fill="#FFFFFF" d="M57.715,50.857c0,4.4-3.6,8-8,8h-11.43c-4.4,0-8-3.6-8-8V32.571c0-4.399,3.6-8,8-8h11.43
			c4.4,0,8,3.601,8,8V50.857z"/>
		<path fill="none" stroke="#1565C0" stroke-width="3" stroke-linecap="round" stroke-linejoin="round" stroke-miterlimit="10" d="
			M57.715,50.857c0,4.4-3.6,8-8,8h-11.43c-4.4,0-8-3.6-8-8V32.571c0-4.399,3.6-8,8-8h11.43c4.4,0,8,3.601,8,8V50.857z"/>
	</g>
	<g>
		<path fill="none" stroke="#1565C0" stroke-width="3" stroke-linecap="round" stroke-linejoin="round" stroke-miterlimit="10" d="
			M47.429,24.571c0,0,0,2.314,0,5.144c0,2.828-3.6,5.143-8,5.143h-9.144"/>
	</g>
	<g>
		<path fill="none" stroke="#1565C0" stroke-width="3" stroke-linecap="round" stroke-linejoin="round" stroke-miterlimit="10" d="
			M57.715,34.857c0,0-2.314,0-5.143,0s-5.143-2.314-5.143-5.143c0-2.829,0-5.144,0-5.144"/>
	</g>
	<g>
		<path fill="#1565C0" d="M47.429,29.715c0-2.829,0-5.144,0-5.144h-9.144c-4.4,0-8,3.6-8,8v2.286h9.144
			C43.828,34.857,47.429,32.543,47.429,29.715z"/>
		<path fill="#1565C0" d="M49.715,24.571h-2.286c0,0,0,2.314,0,5.144c0,2.828,2.314,5.143,5.144,5.143c2.828,0,5.143,0,5.143,0
			v-2.286C57.715,28.171,54.114,24.571,49.715,24.571z"/>
	</g>
	
		<line fill="none" stroke="#1565C0" stroke-width="3" stroke-linecap="round" stroke-linejoin="round" stroke-miterlimit="10" x1="47.429" y1="51.822" x2="40.571" y2="51.822"/>
</g>
<path fill="#E3F2FD" stroke="#1565C0" stroke-width="3" stroke-linecap="round" stroke-linejoin="round" stroke-miterlimit="10" d="
	M253.881,103.667h-61.188V90.362c7.126-2.521,12.239-9.299,12.239-17.289c0-10.138-8.219-18.356-18.357-18.356
	s-18.355,8.219-18.355,18.356c0,7.99,5.111,14.768,12.236,17.289v13.305h-61.188c-3.381,0-6.119,2.739-6.119,6.119
	s2.738,6.119,6.119,6.119h48.951v137.977c0,3.379,2.738,6.118,6.117,6.118s6.119-2.739,6.119-6.118v-74.601h12.237v74.601
	c0,3.379,2.74,6.118,6.12,6.118c3.379,0,6.119-2.739,6.119-6.118V115.905h48.949c3.38,0,6.119-2.739,6.119-6.119
	S257.261,103.667,253.881,103.667z"/>
<circle fill="#FFFFFF" stroke="#1565C0" stroke-width="3" stroke-linecap="round" stroke-linejoin="round" stroke-miterlimit="10" cx="196" cy="56" r="8"/>
<circle fill="#FFFFFF" stroke="#1565C0" stroke-width="3" stroke-linecap="round" stroke-linejoin="round" stroke-miterlimit="10" cx="228" cy="116" r="8"/>
<line fill="none" stroke="#1565C0" stroke-width="3" stroke-linecap="round" stroke-linejoin="round" stroke-miterlimit="10" x1="228" y1="124" x2="228" y2="156"/>
<line fill="none" stroke="#1565C0" stroke-width="3" stroke-linecap="round" stroke-linejoin="round" stroke-miterlimit="10" x1="196" y1="48" x2="196" y2="3.844"/>
<line fill="none" stroke="#1565C0" stroke-width="3" stroke-linecap="round" stroke-linejoin="round" stroke-miterlimit="10" x1="188" y1="140" x2="140" y2="140"/>
<line fill="none" stroke="#1565C0" stroke-width="3" stroke-linecap="round" stroke-linejoin="round" stroke-miterlimit="10" x1="168" y1="208" x2="100" y2="208"/>
<path fill="none" stroke="#1565C0" stroke-width="3" stroke-linecap="round" stroke-linejoin="round" stroke-miterlimit="10" d="
	M44,176v52c0,17.674,14.327,32,32,32h56"/>
<circle fill="#FFFFFF" stroke="#1565C0" stroke-width="3" stroke-linecap="round" stroke-linejoin="round" stroke-miterlimit="10" cx="168" cy="208" r="8"/>
<circle fill="#FFFFFF" stroke="#1565C0" stroke-width="3" stroke-linecap="round" stroke-linejoin="round" stroke-miterlimit="10" cx="186.574" cy="140" r="8"/>
</svg>
