<?xml version="1.0" encoding="utf-8"?>
<!-- Generator: Adobe Illustrator 16.0.4, SVG Export Plug-In . SVG Version: 6.00 Build 0)  -->
<!DOCTYPE svg PUBLIC "-//W3C//DTD SVG 1.1//EN" "http://www.w3.org/Graphics/SVG/1.1/DTD/svg11.dtd">
<svg version="1.1" id="Layer_1" xmlns="http://www.w3.org/2000/svg" xmlns:xlink="http://www.w3.org/1999/xlink" x="0px" y="0px"
	 width="264px" height="264px" viewBox="0 0 264 264" enable-background="new 0 0 264 264" xml:space="preserve">
<g id="New_Symbol_13">
</g>
<g>
	<g>
		<path fill="#E3F2FD" d="M260,179.999c0,8.8-7.2,16-16,16H20c-8.8,0-16-7.2-16-16V20c0-8.8,7.2-16,16-16h224c8.8,0,16,7.2,16,16
			V179.999z"/>
		<path fill="none" stroke="#1565C0" stroke-width="3" stroke-linecap="round" stroke-linejoin="round" stroke-miterlimit="10" d="
			M260,179.999c0,8.8-7.2,16-16,16H20c-8.8,0-16-7.2-16-16V20c0-8.8,7.2-16,16-16h224c8.8,0,16,7.2,16,16V179.999z"/>
	</g>
	
		<rect x="4" y="176" fill="#FFFFFF" stroke="#1565C0" stroke-width="3" stroke-linecap="round" stroke-linejoin="round" stroke-miterlimit="10" width="256" height="19.999"/>
	
		<rect x="100" y="196" fill="#FFFFFF" stroke="#1565C0" stroke-width="3" stroke-linecap="round" stroke-linejoin="round" stroke-miterlimit="10" width="64" height="55.999"/>
	<g>
		<path fill="#FFFFFF" d="M196,260v-8.001c0-4.399-3.6-8-8-8H76c-4.4,0-8,3.601-8,8V260"/>
		<path fill="none" stroke="#1565C0" stroke-width="3" stroke-linecap="round" stroke-linejoin="round" stroke-miterlimit="10" d="
			M196,260v-8.001c0-4.399-3.6-8-8-8H76c-4.4,0-8,3.601-8,8V260"/>
	</g>
	<g>
		<path fill="#FFFFFF" d="M260,260v-8.001c0-4.399-3.6-8-8-8h-16c-4.4,0-8,3.601-8,8V260"/>
		<path fill="none" stroke="#1565C0" stroke-width="3" stroke-linecap="round" stroke-linejoin="round" stroke-miterlimit="10" d="
			M260,260v-8.001c0-4.399-3.6-8-8-8h-16c-4.4,0-8,3.601-8,8V260"/>
	</g>
	
		<line fill="#E3F2FD" stroke="#1565C0" stroke-width="3" stroke-linecap="round" stroke-linejoin="round" stroke-miterlimit="10" x1="68" y1="260" x2="196" y2="260"/>
	
		<line fill="#E3F2FD" stroke="#1565C0" stroke-width="3" stroke-linecap="round" stroke-linejoin="round" stroke-miterlimit="10" x1="228" y1="260" x2="260" y2="260"/>
	<g>
		
			<rect x="103.636" y="20" fill="#1565C0" stroke="#1565C0" stroke-width="3" stroke-linecap="round" stroke-linejoin="round" stroke-miterlimit="10" width="69.182" height="10.455"/>
		
			<rect x="103.636" y="30.455" fill="#FFFFFF" stroke="#1565C0" stroke-width="3" stroke-linecap="round" stroke-linejoin="round" stroke-miterlimit="10" width="62.728" height="10.454"/>
		
			<rect x="103.636" y="40.909" fill="#1565C0" stroke="#1565C0" stroke-width="3" stroke-linecap="round" stroke-linejoin="round" stroke-miterlimit="10" width="52.273" height="10.454"/>
		
			<rect x="103.636" y="51.363" fill="#FFFFFF" stroke="#1565C0" stroke-width="3" stroke-linecap="round" stroke-linejoin="round" stroke-miterlimit="10" width="62.728" height="10.455"/>
		
			<rect x="103.636" y="61.818" fill="#1565C0" stroke="#1565C0" stroke-width="3" stroke-linecap="round" stroke-linejoin="round" stroke-miterlimit="10" width="52.273" height="10.454"/>
		
			<rect x="103.636" y="72.272" fill="#FFFFFF" stroke="#1565C0" stroke-width="3" stroke-linecap="round" stroke-linejoin="round" stroke-miterlimit="10" width="59.781" height="10.455"/>
	</g>
	
		<polygon fill="#FFFFFF" stroke="#1565C0" stroke-width="3" stroke-linecap="round" stroke-linejoin="round" stroke-miterlimit="10" points="
		208.182,131.363 208.591,131.446 208.182,131.363 	"/>
	<g>
		<g>
			
				<polygon fill="#FFFFFF" stroke="#1565C0" stroke-width="3" stroke-linecap="round" stroke-linejoin="round" stroke-miterlimit="10" points="
				50.563,124.163 70.939,137.018 111.691,98.454 132.066,124.163 152.442,98.454 172.818,98.454 172.818,162.728 20,162.728 
				20,162.728 20,137.018 			"/>
		</g>
		<g>
			
				<polygon fill="#E3F2FD" stroke="#1565C0" stroke-width="3" stroke-linecap="round" stroke-linejoin="round" stroke-miterlimit="10" points="
				172.818,98.454 132.066,137.018 132.066,137.018 111.691,111.31 70.939,149.872 50.563,137.018 20,149.872 20,162.728 
				50.563,162.728 70.939,162.728 111.691,137.018 132.066,149.872 132.066,149.872 172.818,124.163 			"/>
			
				<polygon fill="#1565C0" stroke="#1565C0" stroke-width="3" stroke-linecap="round" stroke-linejoin="round" stroke-miterlimit="10" points="
				172.818,124.163 132.066,149.872 132.066,149.872 111.691,137.018 70.939,162.728 50.563,149.872 30.188,162.728 
				172.818,162.728 			"/>
		</g>
	</g>
	<g>
		<g>
			
				<path fill="#1565C0" stroke="#1565C0" stroke-width="3" stroke-linecap="round" stroke-linejoin="round" stroke-miterlimit="10" d="
				M218.636,162.728c-17.322,0-31.364-14.042-31.364-31.364S201.314,100,218.636,100V162.728z"/>
		</g>
		<g>
			
				<path fill="#FFFFFF" stroke="#1565C0" stroke-width="3" stroke-linecap="round" stroke-linejoin="round" stroke-miterlimit="10" d="
				M218.636,100v31.509l22.249-22.248C235.204,103.541,227.334,100,218.636,100z"/>
			
				<path fill="#E3F2FD" stroke="#1565C0" stroke-width="3" stroke-linecap="round" stroke-linejoin="round" stroke-miterlimit="10" d="
				M240.885,109.261l-22.249,22.248v31.219c17.322,0,31.364-14.042,31.364-31.364C250,122.739,246.518,114.931,240.885,109.261z"/>
		</g>
	</g>
	
		<rect x="20" y="20" fill="#FFFFFF" stroke="#1565C0" stroke-width="3" stroke-linecap="round" stroke-linejoin="round" stroke-miterlimit="10" width="69.182" height="62.728"/>
	<g>
		<g>
			
				<line fill="#FFFFFF" stroke="#1565C0" stroke-width="3" stroke-linecap="round" stroke-linejoin="round" stroke-miterlimit="10" x1="28.92" y1="30.455" x2="45.653" y2="30.455"/>
			
				<line fill="#FFFFFF" stroke="#1565C0" stroke-width="3" stroke-linecap="round" stroke-linejoin="round" stroke-miterlimit="10" x1="51.23" y1="30.455" x2="60.284" y2="30.455"/>
			
				<line fill="#FFFFFF" stroke="#1565C0" stroke-width="3" stroke-linecap="round" stroke-linejoin="round" stroke-miterlimit="10" x1="70.738" y1="30.455" x2="79.331" y2="30.455"/>
		</g>
		<g>
			
				<line fill="#FFFFFF" stroke="#1565C0" stroke-width="3" stroke-linecap="round" stroke-linejoin="round" stroke-miterlimit="10" x1="28.92" y1="61.818" x2="45.653" y2="61.818"/>
			
				<line fill="#FFFFFF" stroke="#1565C0" stroke-width="3" stroke-linecap="round" stroke-linejoin="round" stroke-miterlimit="10" x1="51.23" y1="61.818" x2="70.738" y2="61.818"/>
		</g>
		<g>
			
				<line fill="#FFFFFF" stroke="#1565C0" stroke-width="3" stroke-linecap="round" stroke-linejoin="round" stroke-miterlimit="10" x1="79.331" y1="72.272" x2="62.598" y2="72.272"/>
			
				<line fill="#FFFFFF" stroke="#1565C0" stroke-width="3" stroke-linecap="round" stroke-linejoin="round" stroke-miterlimit="10" x1="57.021" y1="72.272" x2="51.23" y2="72.272"/>
			
				<line fill="#FFFFFF" stroke="#1565C0" stroke-width="3" stroke-linecap="round" stroke-linejoin="round" stroke-miterlimit="10" x1="45.863" y1="72.272" x2="40.074" y2="72.272"/>
			
				<line fill="#FFFFFF" stroke="#1565C0" stroke-width="3" stroke-linecap="round" stroke-linejoin="round" stroke-miterlimit="10" x1="34.708" y1="72.272" x2="28.92" y2="72.272"/>
		</g>
		<g>
			
				<line fill="#FFFFFF" stroke="#1565C0" stroke-width="3" stroke-linecap="round" stroke-linejoin="round" stroke-miterlimit="10" x1="70.738" y1="40.909" x2="52.16" y2="40.909"/>
			
				<line fill="#FFFFFF" stroke="#1565C0" stroke-width="3" stroke-linecap="round" stroke-linejoin="round" stroke-miterlimit="10" x1="46.794" y1="40.909" x2="41.005" y2="40.909"/>
			
				<line fill="#FFFFFF" stroke="#1565C0" stroke-width="3" stroke-linecap="round" stroke-linejoin="round" stroke-miterlimit="10" x1="35.638" y1="40.909" x2="29.851" y2="40.909"/>
		</g>
		<g>
			
				<line fill="#FFFFFF" stroke="#1565C0" stroke-width="3" stroke-linecap="round" stroke-linejoin="round" stroke-miterlimit="10" x1="80.262" y1="51.363" x2="63.528" y2="51.363"/>
			
				<line fill="#FFFFFF" stroke="#1565C0" stroke-width="3" stroke-linecap="round" stroke-linejoin="round" stroke-miterlimit="10" x1="57.951" y1="51.363" x2="52.16" y2="51.363"/>
			
				<line fill="#FFFFFF" stroke="#1565C0" stroke-width="3" stroke-linecap="round" stroke-linejoin="round" stroke-miterlimit="10" x1="46.794" y1="51.363" x2="41.005" y2="51.363"/>
			
				<line fill="#FFFFFF" stroke="#1565C0" stroke-width="3" stroke-linecap="round" stroke-linejoin="round" stroke-miterlimit="10" x1="35.638" y1="51.363" x2="29.851" y2="51.363"/>
		</g>
	</g>
	<g>
		
			<path fill="#1565C0" stroke="#1565C0" stroke-width="3" stroke-linecap="round" stroke-linejoin="round" stroke-miterlimit="10" d="
			M215.992,68.836c-9.97,0-18.082-8.111-18.082-18.082c0-9.967,8.108-18.076,18.076-18.082V20.617
			c-16.614,0.004-30.13,13.522-30.13,30.137c0,16.619,13.519,30.136,30.136,30.136c0.038,0,0.074-0.002,0.11-0.002V68.83
			C216.066,68.83,216.03,68.836,215.992,68.836z"/>
		
			<path fill="#E3F2FD" stroke="#1565C0" stroke-width="3" stroke-linecap="round" stroke-linejoin="round" stroke-miterlimit="10" d="
			M246.129,50.754c0-0.014-0.001-0.028-0.001-0.043h-12.056c0,0.015,0.002,0.029,0.002,0.043c0,9.933-8.052,18.016-17.972,18.076
			v12.058C232.67,80.828,246.129,67.334,246.129,50.754z"/>
		
			<path fill="#FFFFFF" stroke="#1565C0" stroke-width="3" stroke-linecap="round" stroke-linejoin="round" stroke-miterlimit="10" d="
			M215.992,32.671c9.956,0,18.057,8.09,18.08,18.04h12.056c-0.023-16.598-13.533-30.094-30.136-30.094c-0.001,0-0.005,0-0.006,0
			v12.055C215.987,32.672,215.991,32.671,215.992,32.671z"/>
	</g>
</g>
</svg>
