<?xml version="1.0" encoding="utf-8"?>
<!-- Generator: Adobe Illustrator 16.0.4, SVG Export Plug-In . SVG Version: 6.00 Build 0)  -->
<!DOCTYPE svg PUBLIC "-//W3C//DTD SVG 1.1//EN" "http://www.w3.org/Graphics/SVG/1.1/DTD/svg11.dtd">
<svg version="1.1" id="Layer_1" xmlns="http://www.w3.org/2000/svg" xmlns:xlink="http://www.w3.org/1999/xlink" x="0px" y="0px"
	 width="264px" height="264px" viewBox="0 0 264 264" enable-background="new 0 0 264 264" xml:space="preserve">
<g id="New_Symbol_13">
</g>
<path fill="#1565C0" stroke="#1565C0" stroke-width="3" stroke-linecap="round" stroke-linejoin="round" stroke-miterlimit="10" d="
	M167.496,96.352c0,8.365-6.782,15.143-15.146,15.143c-8.364,0-15.146-6.777-15.146-15.143c0-8.367,6.781-15.147,15.146-15.147
	C160.714,81.204,167.496,87.984,167.496,96.352z M188.702,103.515V89.183h-9.41l-2.803-6.834l6.636-6.634l-10.137-10.139
	l-6.654,6.658l-6.815-2.852V60h-14.335v9.41l-6.834,2.804l-6.635-6.638L121.58,75.715l6.654,6.656l-2.85,6.812H116v14.332h9.41
	l2.805,6.839l-6.635,6.634l10.135,10.138l6.654-6.659l6.814,2.853v9.383h14.335v-9.412l6.834-2.805l6.636,6.641l10.137-10.138
	l-6.656-6.656l2.85-6.816H188.702z"/>
<g>
	
		<polygon fill="#E3F2FD" stroke="#1565C0" stroke-width="3" stroke-linecap="round" stroke-linejoin="round" stroke-miterlimit="10" points="
		198.951,141.223 246.492,141.223 246.492,160.238 222.721,160.238 198.951,150.73 	"/>
	
		<polygon fill="#E3F2FD" stroke="#1565C0" stroke-width="3" stroke-linecap="round" stroke-linejoin="round" stroke-miterlimit="10" points="
		246.492,122.205 246.492,112.697 222.722,112.697 198.951,122.205 198.951,131.713 246.492,131.713 256,131.713 256,122.205 	"/>
	
		<rect x="222.722" y="131.713" fill="#FFFFFF" stroke="#1565C0" stroke-width="3" stroke-linecap="round" stroke-linejoin="round" stroke-miterlimit="10" width="23.771" height="9.51"/>
	
		<rect x="222.722" y="160.238" fill="#FFFFFF" stroke="#1565C0" stroke-width="3" stroke-linecap="round" stroke-linejoin="round" stroke-miterlimit="10" width="23.771" height="87.762"/>
	
		<line fill="#FFFFFF" stroke="#1565C0" stroke-width="3" stroke-linecap="round" stroke-linejoin="round" stroke-miterlimit="10" x1="222.722" y1="169.746" x2="232.229" y2="169.746"/>
	
		<line fill="#FFFFFF" stroke="#1565C0" stroke-width="3" stroke-linecap="round" stroke-linejoin="round" stroke-miterlimit="10" x1="222.722" y1="179.254" x2="232.229" y2="179.254"/>
	
		<line fill="#FFFFFF" stroke="#1565C0" stroke-width="3" stroke-linecap="round" stroke-linejoin="round" stroke-miterlimit="10" x1="222.722" y1="188.764" x2="232.229" y2="188.764"/>
	
		<line fill="#FFFFFF" stroke="#1565C0" stroke-width="3" stroke-linecap="round" stroke-linejoin="round" stroke-miterlimit="10" x1="222.722" y1="198.271" x2="232.229" y2="198.271"/>
	
		<line fill="#FFFFFF" stroke="#1565C0" stroke-width="3" stroke-linecap="round" stroke-linejoin="round" stroke-miterlimit="10" x1="222.722" y1="207.779" x2="232.229" y2="207.779"/>
	
		<line fill="#FFFFFF" stroke="#1565C0" stroke-width="3" stroke-linecap="round" stroke-linejoin="round" stroke-miterlimit="10" x1="222.722" y1="217.287" x2="232.229" y2="217.287"/>
</g>
<g>
	
		<path fill="#E3F2FD" stroke="#1565C0" stroke-width="3" stroke-linecap="round" stroke-linejoin="round" stroke-miterlimit="10" d="
		M81.857,171.26V75.106c8.332-4.826,13.953-13.819,13.953-24.141c0-12.146-7.773-22.448-18.604-26.284v26.284H58.604V24.682
		C47.773,28.518,40,38.82,40,50.966c0,10.321,5.62,19.314,13.952,24.141v96.297c-4.27,3.842-6.956,9.41-6.956,15.606
		c0,11.593,9.398,20.99,20.992,20.99s20.991-9.397,20.991-20.99C88.979,180.734,86.223,175.105,81.857,171.26z M67.988,197.505
		c-5.797,0-10.496-4.699-10.496-10.495c0-5.797,4.699-10.496,10.496-10.496s10.496,4.699,10.496,10.496
		C78.484,192.806,73.785,197.505,67.988,197.505z M68.189,164.682v-88"/>
</g>
<g>
	
		<path fill="#FFFFFF" stroke="#1565C0" stroke-width="3" stroke-linecap="round" stroke-linejoin="round" stroke-miterlimit="10" d="
		M197.988,208c5.529,0,10.012,4.482,10.012,10.012s-4.482,10.012-10.012,10.012"/>
	
		<polyline fill="#FFFFFF" stroke="#1565C0" stroke-width="3" stroke-linecap="round" stroke-linejoin="round" stroke-miterlimit="10" points="
		197.988,228.023 148,228.023 148,208 197.988,208 	"/>
	
		<line fill="#FFFFFF" stroke="#1565C0" stroke-width="3" stroke-linecap="round" stroke-linejoin="round" stroke-miterlimit="10" x1="197.988" y1="218.012" x2="156" y2="218.012"/>
	
		<line fill="#FFFFFF" stroke="#1565C0" stroke-width="3" stroke-linecap="round" stroke-linejoin="round" stroke-miterlimit="10" x1="148" y1="218.012" x2="112" y2="218.012"/>
	
		<polygon fill="#E3F2FD" stroke="#1565C0" stroke-width="3" stroke-linecap="round" stroke-linejoin="round" stroke-miterlimit="10" points="
		112,224.045 92,220.023 92,216.023 112,212.023 	"/>
</g>
<path fill="none" stroke="#1565C0" stroke-width="3" stroke-linecap="round" stroke-linejoin="round" stroke-miterlimit="10" d="
	M28,200c0,17.673,14.326,32,32,32h24"/>
<path fill="none" stroke="#1565C0" stroke-width="3" stroke-linecap="round" stroke-linejoin="round" stroke-miterlimit="10" d="
	M112,28h52.001C199.348,28,228,56.654,228,92"/>
</svg>
