<?xml version="1.0" encoding="utf-8"?>
<!-- Generator: Adobe Illustrator 16.0.4, SVG Export Plug-In . SVG Version: 6.00 Build 0)  -->
<!DOCTYPE svg PUBLIC "-//W3C//DTD SVG 1.1//EN" "http://www.w3.org/Graphics/SVG/1.1/DTD/svg11.dtd">
<svg version="1.1" id="Layer_1" xmlns="http://www.w3.org/2000/svg" xmlns:xlink="http://www.w3.org/1999/xlink" x="0px" y="0px"
	 width="264px" height="264px" viewBox="0 0 264 264" enable-background="new 0 0 264 264" xml:space="preserve">
<g id="New_Symbol_13">
</g>
<g>
	<g>
		<path fill="#FFFFFF" d="M77.947,50.359c-2.264-3.772-7.716-6.859-12.116-6.859H22c-4.4,0-8,3.6-8,8v39.312c0,4.4,3.6,8,8,8h77.019
			c4.4,0,6.148-3.087,3.884-6.859L77.947,50.359z"/>
		<path fill="none" stroke="#1565C0" stroke-width="3" stroke-linecap="round" stroke-linejoin="round" stroke-miterlimit="10" d="
			M77.947,50.359c-2.264-3.772-7.716-6.859-12.116-6.859H22c-4.4,0-8,3.6-8,8v39.312c0,4.4,3.6,8,8,8h77.019
			c4.4,0,6.148-3.087,3.884-6.859L77.947,50.359z"/>
	</g>
	<g>
		<rect x="14" y="61.938" fill="#FFFFFF" width="236" height="158.562"/>
		
			<rect x="14" y="61.938" fill="none" stroke="#1565C0" stroke-width="3" stroke-linecap="round" stroke-linejoin="round" stroke-miterlimit="10" width="236" height="158.562"/>
	</g>
	
		<path fill="#E3F2FD" stroke="#1565C0" stroke-width="3" stroke-linecap="round" stroke-linejoin="round" stroke-miterlimit="10" d="
		M250,61.938H84.894l-7.268-12.113c-2.087-3.479-7.113-6.324-11.17-6.324H21.375C17.318,43.5,14,46.818,14,50.875v11.062v14.749
		v14.751c0,4.056,3.318,7.375,7.375,7.375h78.269c4.057,0,5.668-2.847,3.581-6.324l-9.481-15.802H250V61.938z"/>
	<g>
		<rect x="14" y="76.687" fill="#FFFFFF" width="236" height="143.813"/>
		
			<rect x="14" y="76.687" fill="none" stroke="#1565C0" stroke-width="3" stroke-linecap="round" stroke-linejoin="round" stroke-miterlimit="10" width="236" height="143.813"/>
	</g>
</g>
</svg>
