<?xml version="1.0" encoding="utf-8"?>
<!-- Generator: Adobe Illustrator 16.0.4, SVG Export Plug-In . SVG Version: 6.00 Build 0)  -->
<!DOCTYPE svg PUBLIC "-//W3C//DTD SVG 1.1//EN" "http://www.w3.org/Graphics/SVG/1.1/DTD/svg11.dtd">
<svg version="1.1" id="Layer_1" xmlns="http://www.w3.org/2000/svg" xmlns:xlink="http://www.w3.org/1999/xlink" x="0px" y="0px"
	 width="264px" height="264px" viewBox="0 0 264 264" enable-background="new 0 0 264 264" xml:space="preserve">
<g id="New_Symbol_13">
</g>
<g>
	<path fill="#1565C0" d="M50.363,187.457c-2.2,0-4.9-1.559-6-3.464L17.5,137.465c-1.1-1.905-1.1-5.022,0-6.928l26.863-46.532
		c1.1-1.905,3.8-3.464,6-3.464h53.728c2.2,0,4.9,1.559,6,3.464l26.862,46.532c1.1,1.905,1.1,5.022,0,6.928l-26.862,46.528
		c-1.1,1.905-3.8,3.464-6,3.464H50.363z"/>
	<path fill="none" stroke="#1565C0" stroke-width="3" stroke-linecap="round" stroke-linejoin="round" stroke-miterlimit="10" d="
		M50.363,187.457c-2.2,0-4.9-1.559-6-3.464L17.5,137.465c-1.1-1.905-1.1-5.022,0-6.928l26.863-46.532c1.1-1.905,3.8-3.464,6-3.464
		h53.728c2.2,0,4.9,1.559,6,3.464l26.862,46.532c1.1,1.905,1.1,5.022,0,6.928l-26.862,46.528c-1.1,1.905-3.8,3.464-6,3.464H50.363z"
		/>
</g>
<g>
	<path fill="#E3F2FD" d="M159.909,122.877c-2.2,0-4.9-1.559-6-3.464l-26.863-46.528c-1.1-1.905-1.1-5.022,0-6.928l26.863-46.53
		c1.1-1.905,3.8-3.464,6-3.464h53.727c2.2,0,4.9,1.559,6,3.464l26.864,46.53c1.1,1.905,1.1,5.022,0,6.928l-26.864,46.528
		c-1.1,1.905-3.8,3.464-6,3.464H159.909z"/>
	<path fill="none" stroke="#1565C0" stroke-width="3" stroke-linecap="round" stroke-linejoin="round" stroke-miterlimit="10" d="
		M159.909,122.877c-2.2,0-4.9-1.559-6-3.464l-26.863-46.528c-1.1-1.905-1.1-5.022,0-6.928l26.863-46.53c1.1-1.905,3.8-3.464,6-3.464
		h53.727c2.2,0,4.9,1.559,6,3.464l26.864,46.53c1.1,1.905,1.1,5.022,0,6.928l-26.864,46.528c-1.1,1.905-3.8,3.464-6,3.464H159.909z"
		/>
</g>
<g>
	<path fill="#FFFFFF" d="M159.91,248.037c-2.2,0-4.9-1.559-6-3.464l-26.863-46.53c-1.1-1.905-1.1-5.022,0-6.928l26.863-46.526
		c1.1-1.905,3.8-3.464,6-3.464h53.727c2.2,0,4.9,1.559,6,3.464l26.864,46.526c1.1,1.905,1.1,5.022,0,6.928l-26.864,46.53
		c-1.1,1.905-3.8,3.464-6,3.464H159.91z"/>
	<path fill="none" stroke="#1565C0" stroke-width="3" stroke-linecap="round" stroke-linejoin="round" stroke-miterlimit="10" d="
		M159.91,248.037c-2.2,0-4.9-1.559-6-3.464l-26.863-46.53c-1.1-1.905-1.1-5.022,0-6.928l26.863-46.526c1.1-1.905,3.8-3.464,6-3.464
		h53.727c2.2,0,4.9,1.559,6,3.464l26.864,46.526c1.1,1.905,1.1,5.022,0,6.928l-26.864,46.53c-1.1,1.905-3.8,3.464-6,3.464H159.91z"
		/>
</g>
</svg>
