<?xml version="1.0" encoding="utf-8"?>
<!-- Generator: Adobe Illustrator 16.0.4, SVG Export Plug-In . SVG Version: 6.00 Build 0)  -->
<!DOCTYPE svg PUBLIC "-//W3C//DTD SVG 1.1//EN" "http://www.w3.org/Graphics/SVG/1.1/DTD/svg11.dtd">
<svg version="1.1" id="Layer_1" xmlns="http://www.w3.org/2000/svg" xmlns:xlink="http://www.w3.org/1999/xlink" x="0px" y="0px"
	 width="264px" height="264px" viewBox="0 0 264 264" enable-background="new 0 0 264 264" xml:space="preserve">
<g id="New_Symbol_13">
	<g>
		<g>
			<path fill="#1565C0" d="M206,169c0,1.65-1.35,3-3,3h-2c-1.65,0-3-1.35-3-3V90c0-1.65,1.35-3,3-3h2c1.65,0,3,1.35,3,3V169z"/>
			<path fill="none" stroke="#1565C0" stroke-width="3" stroke-linecap="round" stroke-linejoin="round" stroke-miterlimit="10" d="
				M206,169c0,1.65-1.35,3-3,3h-2c-1.65,0-3-1.35-3-3V90c0-1.65,1.35-3,3-3h2c1.65,0,3,1.35,3,3V169z"/>
		</g>
		
			<circle fill="#1565C0" stroke="#1565C0" stroke-width="3" stroke-linecap="round" stroke-linejoin="round" stroke-miterlimit="10" cx="202" cy="62.154" r="42"/>
		
			<circle fill="#FFFFFF" stroke="#1269BD" stroke-width="3" stroke-linecap="round" stroke-linejoin="round" stroke-miterlimit="10" cx="202" cy="62.154" r="35.897"/>
	</g>
	<g>
		<path fill="#1565C0" d="M4,260h42.001c4.4,0,11.402-1.177,15.561-2.615l78.878-27.289c4.158-1.438,7.561-6.215,7.561-10.615V152
			c0-4.4-3.36-9.292-7.467-10.872l-37.066-14.256C99.36,125.292,92.4,124,88,124H64c-4.4,0-11.36,1.292-15.467,2.872L4,144"/>
		<path fill="none" stroke="#1565C0" stroke-width="3" stroke-linecap="round" stroke-linejoin="round" stroke-miterlimit="10" d="
			M4,260h42.001c4.4,0,11.402-1.177,15.561-2.615l78.878-27.289c4.158-1.438,7.561-6.215,7.561-10.615V152
			c0-4.4-3.36-9.292-7.467-10.872l-37.066-14.256C99.36,125.292,92.4,124,88,124H64c-4.4,0-11.36,1.292-15.467,2.872L4,144"/>
	</g>
	
		<rect x="56" y="124" fill="#E3F2FD" stroke="#1565C0" stroke-width="3" stroke-linecap="round" stroke-linejoin="round" stroke-miterlimit="10" width="40" height="136"/>
	<g>
		<path fill="#FFFFFF" d="M96,124c0,0,0,5.04,0,11.199s-7.2,11.199-16,11.199h-8c-8.8,0-16-5.04-16-11.199S56,124,56,124"/>
		<path fill="none" stroke="#1565C0" stroke-width="3" stroke-linecap="round" stroke-linejoin="round" stroke-miterlimit="10" d="
			M96,124c0,0,0,5.04,0,11.199s-7.2,11.199-16,11.199h-8c-8.8,0-16-5.04-16-11.199S56,124,56,124"/>
	</g>
	<g>
		
			<polygon fill="#FFFFFF" stroke="#1565C0" stroke-width="3" stroke-linecap="round" stroke-linejoin="round" stroke-miterlimit="10" points="
			34.398,45.219 58.048,38.881 34.398,45.218 		"/>
		
			<rect x="75.712" y="29.881" transform="matrix(-0.9659 0.2588 -0.2588 -0.9659 187.88 35.0316)" fill="#FFFFFF" stroke="#1565C0" stroke-width="3" stroke-linecap="round" stroke-linejoin="round" stroke-miterlimit="10" width="31.845" height="0.001"/>
		
			<polygon fill="#FFFFFF" stroke="#1565C0" stroke-width="3" stroke-linecap="round" stroke-linejoin="round" stroke-miterlimit="10" points="
			115.468,44.51 115.468,44.201 114.892,44.355 		"/>
		
			<path fill="#FFFFFF" stroke="#1565C0" stroke-width="3" stroke-linecap="round" stroke-linejoin="round" stroke-miterlimit="10" d="
			M34.398,65.924V100c0,13.2,10.8,24,24,24h33.069c13.2,0,24-10.8,24-24V65.216L76.254,54.709L34.398,65.924z"/>
		
			<polygon fill="#FFFFFF" stroke="#1565C0" stroke-width="3" stroke-linecap="round" stroke-linejoin="round" stroke-miterlimit="10" points="
			76.253,34.003 58.048,38.881 76.254,34.003 		"/>
		
			<polygon fill="#FFFFFF" stroke="#1565C0" stroke-width="3" stroke-linecap="round" stroke-linejoin="round" stroke-miterlimit="10" points="
			114.892,44.355 76.254,54.709 115.468,65.216 115.468,44.51 		"/>
		
			<path fill="#FFFFFF" stroke="#1565C0" stroke-width="3" stroke-linecap="round" stroke-linejoin="round" stroke-miterlimit="10" d="
			M107.015,25.762l-30.76,8.241l-18.206,4.878l-23.65,6.338v20.705l41.856-11.215l38.637-10.354l0.576-0.154V44
			C115.468,36.719,112.177,30.172,107.015,25.762z"/>
		
			<path fill="#FFFFFF" stroke="#1565C0" stroke-width="3" stroke-linecap="round" stroke-linejoin="round" stroke-miterlimit="10" d="
			M91.468,20H58.398c-13.2,0-24,10.8-24,24v1.218l23.65-6.337l18.205-4.878l30.761-8.242C102.818,22.176,97.386,20,91.468,20z"/>
	</g>
	
		<line fill="none" stroke="#1565C0" stroke-width="3" stroke-linecap="round" stroke-linejoin="round" stroke-miterlimit="10" x1="85.066" y1="104" x2="64.8" y2="104"/>
	<g>
		<g>
			
				<path fill="#FFFFFF" stroke="#1269BD" stroke-width="3" stroke-linecap="round" stroke-linejoin="round" stroke-miterlimit="10" d="
				M132,180h-16v48H44c-8.8,0-16,7.2-16,16s7.2,16,16,16h72h16c8.8,0,16-7.2,16-16v-40v-8v-16H132z"/>
		</g>
		<g>
			
				<path fill="#FFFFFF" stroke="#1269BD" stroke-width="3" stroke-linecap="round" stroke-linejoin="round" stroke-miterlimit="10" d="
				M44,228c-8.8,0-16,7.2-16,16s7.2,16,16,16h32.118l-32-32H44z"/>
			
				<polygon fill="#FFFFFF" stroke="#1269BD" stroke-width="3" stroke-linecap="round" stroke-linejoin="round" stroke-miterlimit="10" points="
				148,196 148,180 132,180 131.88,180 148,196.12 			"/>
			
				<polygon fill="#FFFFFF" stroke="#1269BD" stroke-width="3" stroke-linecap="round" stroke-linejoin="round" stroke-miterlimit="10" points="
				116,209.374 148,241.374 148,204 148,196.12 131.88,180 116,180 			"/>
			
				<rect x="109.373" y="225.374" transform="matrix(-0.7071 -0.7071 0.7071 -0.7071 65.9746 478.0756)" fill="#FFFFFF" stroke="#1269BD" stroke-width="3" stroke-linecap="round" stroke-linejoin="round" stroke-miterlimit="10" width="45.255" height="0"/>
			
				<polygon fill="#FFFFFF" stroke="#1269BD" stroke-width="3" stroke-linecap="round" stroke-linejoin="round" stroke-miterlimit="10" points="
				121.372,260 89.372,228 44.118,228 76.118,260 116,260 			"/>
			
				<rect x="82.745" y="244" transform="matrix(-0.7071 -0.7071 0.7071 -0.7071 7.3473 491.0434)" fill="#FFFFFF" stroke="#1269BD" stroke-width="3" stroke-linecap="round" stroke-linejoin="round" stroke-miterlimit="10" width="45.255" height="0"/>
		</g>
		<g>
			
				<path fill="#FFFFFF" stroke="#1269BD" stroke-width="3" stroke-linecap="round" stroke-linejoin="round" stroke-miterlimit="10" d="
				M121.372,260H132c8.8,0,16-7.2,16-16v-2.626l-32-32l-78.325-78.325l-32.684,12.57L89.372,228L121.372,260z"/>
		</g>
	</g>
	
		<line fill="none" stroke="#1565C0" stroke-width="3" stroke-linecap="round" stroke-linejoin="round" stroke-miterlimit="10" x1="4" y1="144" x2="4" y2="260"/>
</g>
<g>
	<path fill="none" stroke="#1565C0" stroke-width="3" stroke-linecap="round" stroke-linejoin="round" stroke-miterlimit="10" d="
		M200,220.5c0,0,13.5,0,30,0s30-14.4,30-32v-66.04"/>
</g>
</svg>
