<?xml version="1.0" encoding="utf-8"?>
<!-- Generator: Adobe Illustrator 16.0.4, SVG Export Plug-In . SVG Version: 6.00 Build 0)  -->
<!DOCTYPE svg PUBLIC "-//W3C//DTD SVG 1.1//EN" "http://www.w3.org/Graphics/SVG/1.1/DTD/svg11.dtd">
<svg version="1.1" id="Layer_1" xmlns="http://www.w3.org/2000/svg" xmlns:xlink="http://www.w3.org/1999/xlink" x="0px" y="0px"
	 width="264px" height="264px" viewBox="0 0 264 264" enable-background="new 0 0 264 264" xml:space="preserve">
<g id="New_Symbol_13">
</g>
<path fill="none" stroke="#1565C0" stroke-width="3" stroke-linecap="round" stroke-linejoin="round" stroke-miterlimit="10" d="
	M192,220h-76c-15.464,0-27.997-12.536-28-28"/>
<g>
	<path fill="#E3F2FD" d="M4,112V16C4,9.4,9.4,4,16,4h148c6.6,0,12,5.4,12,12v96"/>
	<path fill="none" stroke="#1565C0" stroke-width="3" stroke-linecap="round" stroke-linejoin="round" stroke-miterlimit="10" d="
		M4,112V16C4,9.4,9.4,4,16,4h148c6.6,0,12,5.4,12,12v96"/>
</g>
<g>
	<path fill="#1565C0" d="M20,96V68c0-4.4,3.6-8,8-8h124c4.4,0,8,3.6,8,8v28"/>
	<path fill="none" stroke="#1565C0" stroke-width="3" stroke-linecap="round" stroke-linejoin="round" stroke-miterlimit="10" d="
		M20,96V68c0-4.4,3.6-8,8-8h124c4.4,0,8,3.6,8,8v28"/>
</g>
<circle fill="#FFFFFF" stroke="#1565C0" stroke-width="3" stroke-linecap="round" stroke-linejoin="round" stroke-miterlimit="10" cx="152.298" cy="22.674" r="5.093"/>
<line fill="none" stroke="#1565C0" stroke-width="3" stroke-linecap="round" stroke-linejoin="round" stroke-miterlimit="10" x1="20" y1="96" x2="160" y2="96"/>
<line fill="none" stroke="#1565C0" stroke-width="3" stroke-linecap="round" stroke-linejoin="round" stroke-miterlimit="10" x1="176" y1="112" x2="4" y2="112"/>
<rect x="36" y="76" fill="#FFFFFF" stroke="#1565C0" stroke-width="3" stroke-linecap="round" stroke-linejoin="round" stroke-miterlimit="10" width="112" height="100"/>
<g>
	
		<rect x="48.102" y="88" fill="#1565C0" stroke="#1565C0" stroke-width="3" stroke-linecap="round" stroke-linejoin="round" stroke-miterlimit="10" width="16.001" height="24"/>
	
		<rect x="72.076" y="88" fill="#1565C0" stroke="#1565C0" stroke-width="3" stroke-linecap="round" stroke-linejoin="round" stroke-miterlimit="10" width="4.052" height="24"/>
	
		<rect x="83.948" y="88" fill="#1565C0" stroke="#1565C0" stroke-width="3" stroke-linecap="round" stroke-linejoin="round" stroke-miterlimit="10" width="4.052" height="24"/>
	
		<rect x="100" y="88" fill="#1565C0" stroke="#1565C0" stroke-width="3" stroke-linecap="round" stroke-linejoin="round" stroke-miterlimit="10" width="16" height="24"/>
	
		<rect x="124.178" y="88" fill="#1565C0" stroke="#1565C0" stroke-width="3" stroke-linecap="round" stroke-linejoin="round" stroke-miterlimit="10" width="11.645" height="24"/>
</g>
<g>
	
		<rect x="119.821" y="136" fill="#1565C0" stroke="#1565C0" stroke-width="3" stroke-linecap="round" stroke-linejoin="round" stroke-miterlimit="10" width="16.001" height="24"/>
	
		<rect x="107.796" y="136" fill="#1565C0" stroke="#1565C0" stroke-width="3" stroke-linecap="round" stroke-linejoin="round" stroke-miterlimit="10" width="4.052" height="24"/>
	
		<rect x="95.924" y="136" fill="#1565C0" stroke="#1565C0" stroke-width="3" stroke-linecap="round" stroke-linejoin="round" stroke-miterlimit="10" width="4.052" height="24"/>
	
		<rect x="67.924" y="136" fill="#1565C0" stroke="#1565C0" stroke-width="3" stroke-linecap="round" stroke-linejoin="round" stroke-miterlimit="10" width="12.076" height="24"/>
	
		<rect x="48.102" y="136" fill="#1565C0" stroke="#1565C0" stroke-width="3" stroke-linecap="round" stroke-linejoin="round" stroke-miterlimit="10" width="11.645" height="24"/>
	
		<line fill="none" stroke="#1565C0" stroke-width="3" stroke-linecap="round" stroke-linejoin="round" stroke-miterlimit="10" x1="88" y1="136" x2="88" y2="160"/>
</g>
<g>
	
		<polyline fill="#FFFFFF" stroke="#1565C0" stroke-width="3" stroke-linecap="round" stroke-linejoin="round" stroke-miterlimit="10" points="
		216,232 216,76 255.965,76 255.965,232 	"/>
	
		<path fill="#FFFFFF" stroke="#1565C0" stroke-width="3" stroke-linecap="round" stroke-linejoin="round" stroke-miterlimit="10" d="
		M256,232c0,11.046-8.954,20-20,20c-11.045,0-20-8.954-20-20"/>
</g>
<rect x="216" y="116" fill="#FFFFFF" stroke="#1565C0" stroke-width="3" stroke-linecap="round" stroke-linejoin="round" stroke-miterlimit="10" width="28" height="80"/>
<rect x="211.6" y="60" fill="#E3F2FD" stroke="#1565C0" stroke-width="3" stroke-linecap="round" stroke-linejoin="round" stroke-miterlimit="10" width="48.4" height="40"/>
<line fill="none" stroke="#1565C0" stroke-width="3" stroke-linecap="round" stroke-linejoin="round" stroke-miterlimit="10" x1="48.001" y1="124" x2="136.001" y2="124"/>
<g>
	
		<rect x="216.001" y="128" fill="#1565C0" stroke="#1565C0" stroke-width="3" stroke-linecap="round" stroke-linejoin="round" stroke-miterlimit="10" width="20" height="16.001"/>
	
		<rect x="216" y="152.001" fill="#1565C0" stroke="#1565C0" stroke-width="3" stroke-linecap="round" stroke-linejoin="round" stroke-miterlimit="10" width="20" height="0.102"/>
	
		<rect x="216.001" y="160.077" fill="#1565C0" stroke="#1565C0" stroke-width="3" stroke-linecap="round" stroke-linejoin="round" stroke-miterlimit="10" width="20" height="4.052"/>
	
		<rect x="216.001" y="171.949" fill="#1565C0" stroke="#1565C0" stroke-width="3" stroke-linecap="round" stroke-linejoin="round" stroke-miterlimit="10" width="20" height="12.051"/>
</g>
</svg>
