<?xml version="1.0" encoding="utf-8"?>
<!-- Generator: Adobe Illustrator 16.0.4, SVG Export Plug-In . SVG Version: 6.00 Build 0)  -->
<!DOCTYPE svg PUBLIC "-//W3C//DTD SVG 1.1//EN" "http://www.w3.org/Graphics/SVG/1.1/DTD/svg11.dtd">
<svg version="1.1" id="Layer_1" xmlns="http://www.w3.org/2000/svg" xmlns:xlink="http://www.w3.org/1999/xlink" x="0px" y="0px"
	 width="264px" height="264px" viewBox="0 0 264 264" enable-background="new 0 0 264 264" xml:space="preserve">
<g id="New_Symbol_13">
	<path fill="none" stroke="#1565C0" stroke-width="3" stroke-linecap="round" stroke-linejoin="round" stroke-miterlimit="10" d="
		M36,176V47.379C36,36.676,44.675,28.003,55.378,28"/>
</g>
<g>
	
		<polygon fill="#E3F2FD" stroke="#1565C0" stroke-width="3" stroke-linecap="round" stroke-linejoin="round" stroke-miterlimit="10" points="
		188,156 76,156 76,4 168,4 188,24 	"/>
	
		<polygon fill="#E3F2FD" stroke="#1565C0" stroke-width="3" stroke-linecap="round" stroke-linejoin="round" stroke-miterlimit="10" points="
		168,4 168,24 188,24 	"/>
</g>
<g>
	
		<polygon fill="#E3F2FD" stroke="#1565C0" stroke-width="3" stroke-linecap="round" stroke-linejoin="round" stroke-miterlimit="10" points="
		224,208 112,208 112,56 204,56 224,76 	"/>
	
		<polygon fill="#E3F2FD" stroke="#1565C0" stroke-width="3" stroke-linecap="round" stroke-linejoin="round" stroke-miterlimit="10" points="
		204,56 204,76 224,76 	"/>
</g>
<path fill="#1565C0" stroke="#1565C0" stroke-width="3" stroke-linecap="round" stroke-linejoin="round" stroke-miterlimit="10" d="
	M49.128,227.65c0,7.441-6.037,13.478-13.479,13.478c-7.445,0-13.479-6.036-13.479-13.478c0-7.444,6.034-13.48,13.479-13.48
	C43.092,214.17,49.128,220.206,49.128,227.65z M68,234.025V221.27h-8.374l-2.494-6.082l5.905-5.903l-9.022-9.021l-5.921,5.923
	l-6.065-2.535V195.3H29.271v8.374l-6.083,2.494l-5.904-5.904l-9.02,9.021l5.922,5.923l-2.538,6.062H3.299v12.756h8.374l2.496,6.086
	l-5.904,5.905l9.02,9.02l5.922-5.925l6.064,2.535V260h12.757v-8.375l6.083-2.497l5.904,5.908l9.022-9.02l-5.924-5.924l2.537-6.067
	H68z"/>
<g>
	
		<polygon fill="#FFFFFF" stroke="#1565C0" stroke-width="3" stroke-linecap="round" stroke-linejoin="round" stroke-miterlimit="10" points="
		260,260 148,260 148,108 240,108 260,128 	"/>
	
		<polygon fill="#E3F2FD" stroke="#1565C0" stroke-width="3" stroke-linecap="round" stroke-linejoin="round" stroke-miterlimit="10" points="
		240,108 240,128 260,128 	"/>
	<g>
		<g>
			
				<rect x="164" y="164" fill="#FFFFFF" stroke="#1565C0" stroke-width="3" stroke-linecap="round" stroke-linejoin="round" stroke-miterlimit="10" width="12" height="8"/>
			
				<rect x="164" y="144" fill="#1565C0" stroke="#1565C0" stroke-width="3" stroke-linecap="round" stroke-linejoin="round" stroke-miterlimit="10" width="32" height="8"/>
			
				<line fill="none" stroke="#1565C0" stroke-width="3" stroke-linecap="round" stroke-linejoin="round" stroke-miterlimit="10" x1="184" y1="168" x2="196" y2="168"/>
			
				<line fill="none" stroke="#1565C0" stroke-width="3" stroke-linecap="round" stroke-linejoin="round" stroke-miterlimit="10" x1="164" y1="152" x2="188" y2="152"/>
			
				<rect x="164" y="184" fill="#FFFFFF" stroke="#1565C0" stroke-width="3" stroke-linecap="round" stroke-linejoin="round" stroke-miterlimit="10" width="12" height="8"/>
			
				<line fill="none" stroke="#1565C0" stroke-width="3" stroke-linecap="round" stroke-linejoin="round" stroke-miterlimit="10" x1="184" y1="188" x2="196" y2="188"/>
			
				<rect x="164" y="204" fill="#1565C0" stroke="#1565C0" stroke-width="3" stroke-linecap="round" stroke-linejoin="round" stroke-miterlimit="10" width="12" height="8"/>
			
				<line fill="none" stroke="#1565C0" stroke-width="3" stroke-linecap="round" stroke-linejoin="round" stroke-miterlimit="10" x1="184" y1="208" x2="196" y2="208"/>
		</g>
		<g>
			
				<rect x="164" y="224" fill="#FFFFFF" stroke="#1565C0" stroke-width="3" stroke-linecap="round" stroke-linejoin="round" stroke-miterlimit="10" width="12" height="8"/>
			
				<line fill="none" stroke="#1565C0" stroke-width="3" stroke-linecap="round" stroke-linejoin="round" stroke-miterlimit="10" x1="184" y1="228" x2="196" y2="228"/>
		</g>
	</g>
	<g>
		<g>
			
				<rect x="208" y="164" fill="#FFFFFF" stroke="#1565C0" stroke-width="3" stroke-linecap="round" stroke-linejoin="round" stroke-miterlimit="10" width="12" height="8"/>
			
				<rect x="208" y="144" fill="#1565C0" stroke="#1565C0" stroke-width="3" stroke-linecap="round" stroke-linejoin="round" stroke-miterlimit="10" width="32" height="8"/>
			
				<line fill="none" stroke="#1565C0" stroke-width="3" stroke-linecap="round" stroke-linejoin="round" stroke-miterlimit="10" x1="228" y1="168" x2="240" y2="168"/>
			
				<line fill="none" stroke="#1565C0" stroke-width="3" stroke-linecap="round" stroke-linejoin="round" stroke-miterlimit="10" x1="208" y1="152" x2="232" y2="152"/>
			
				<rect x="208" y="184" fill="#1565C0" stroke="#1565C0" stroke-width="3" stroke-linecap="round" stroke-linejoin="round" stroke-miterlimit="10" width="12" height="8"/>
			
				<line fill="none" stroke="#1565C0" stroke-width="3" stroke-linecap="round" stroke-linejoin="round" stroke-miterlimit="10" x1="228" y1="188" x2="240" y2="188"/>
			
				<rect x="208" y="204" fill="#FFFFFF" stroke="#1565C0" stroke-width="3" stroke-linecap="round" stroke-linejoin="round" stroke-miterlimit="10" width="12" height="8"/>
			
				<line fill="none" stroke="#1565C0" stroke-width="3" stroke-linecap="round" stroke-linejoin="round" stroke-miterlimit="10" x1="228" y1="208" x2="240" y2="208"/>
		</g>
		<g>
			
				<rect x="208" y="224" fill="#1565C0" stroke="#1565C0" stroke-width="3" stroke-linecap="round" stroke-linejoin="round" stroke-miterlimit="10" width="12" height="8"/>
			
				<line fill="none" stroke="#1565C0" stroke-width="3" stroke-linecap="round" stroke-linejoin="round" stroke-miterlimit="10" x1="228" y1="228" x2="240" y2="228"/>
		</g>
	</g>
</g>
</svg>
