<?xml version="1.0" encoding="utf-8"?>
<!-- Generator: Adobe Illustrator 16.0.4, SVG Export Plug-In . SVG Version: 6.00 Build 0)  -->
<!DOCTYPE svg PUBLIC "-//W3C//DTD SVG 1.1//EN" "http://www.w3.org/Graphics/SVG/1.1/DTD/svg11.dtd">
<svg version="1.1" id="Layer_1" xmlns="http://www.w3.org/2000/svg" xmlns:xlink="http://www.w3.org/1999/xlink" x="0px" y="0px"
	 width="264px" height="264px" viewBox="0 0 264 264" enable-background="new 0 0 264 264" xml:space="preserve">
<g id="New_Symbol_13">
</g>
<g>
	<g>
		<path fill="#FFFFFF" d="M160.357,12c0-4.4,3.6-8,8-8h63.285c4.4,0,8,3.6,8,8v100c0,4.4-3.6,8-8,8h-63.285c-4.4,0-8-3.6-8-8V12z"/>
		<path fill="none" stroke="#1565C0" stroke-width="3" stroke-linecap="round" stroke-linejoin="round" stroke-miterlimit="10" d="
			M160.357,12c0-4.4,3.6-8,8-8h63.285c4.4,0,8,3.6,8,8v100c0,4.4-3.6,8-8,8h-63.285c-4.4,0-8-3.6-8-8V12z"/>
	</g>
	
		<rect x="160.357" y="44" fill="#FFFFFF" stroke="#1565C0" stroke-width="3" stroke-linecap="round" stroke-linejoin="round" stroke-miterlimit="10" width="79.285" height="56"/>
	
		<rect x="152" y="4" fill="#E3F2FD" stroke="#1565C0" stroke-width="3" stroke-linecap="round" stroke-linejoin="round" stroke-miterlimit="10" width="96" height="26.428"/>
	
		<rect x="169.143" y="4" fill="#E3F2FD" stroke="#1565C0" stroke-width="3" stroke-linecap="round" stroke-linejoin="round" stroke-miterlimit="10" width="61.715" height="26.428"/>
	
		<rect x="189.715" y="4" fill="#E3F2FD" stroke="#1565C0" stroke-width="3" stroke-linecap="round" stroke-linejoin="round" stroke-miterlimit="10" width="20.57" height="26.428"/>
</g>
<g>
	
		<polyline fill="#FFFFFF" stroke="#1565C0" stroke-width="3" stroke-linecap="round" stroke-linejoin="round" stroke-miterlimit="10" points="
		28,176 28,28 67.965,28 67.965,176 	"/>
	<g>
		
			<rect x="24" y="4" fill="#E3F2FD" stroke="#1565C0" stroke-width="3" stroke-linecap="round" stroke-linejoin="round" stroke-miterlimit="10" width="48" height="40"/>
		
			<path fill="#FFFFFF" stroke="#1565C0" stroke-width="3" stroke-linecap="round" stroke-linejoin="round" stroke-miterlimit="10" d="
			M68,176c0,11.046-8.954,20-20,20c-11.045,0-20-8.954-20-20"/>
	</g>
</g>
<rect x="28" y="68" fill="#FFFFFF" stroke="#1565C0" stroke-width="3" stroke-linecap="round" stroke-linejoin="round" stroke-miterlimit="10" width="13.299" height="64"/>
<g>
	
		<polyline fill="#FFFFFF" stroke="#1565C0" stroke-width="3" stroke-linecap="round" stroke-linejoin="round" stroke-miterlimit="10" points="
		92,176 92,28 131.965,28 131.965,176 	"/>
	<g>
		
			<rect x="88" y="4" fill="#E3F2FD" stroke="#1565C0" stroke-width="3" stroke-linecap="round" stroke-linejoin="round" stroke-miterlimit="10" width="48" height="40"/>
		
			<path fill="#FFFFFF" stroke="#1565C0" stroke-width="3" stroke-linecap="round" stroke-linejoin="round" stroke-miterlimit="10" d="
			M132,176c0,11.046-8.954,20-20,20c-11.045,0-20-8.954-20-20"/>
	</g>
</g>
<g>
	
		<circle fill="#E3F2FD" stroke="#1565C0" stroke-width="3" stroke-linecap="round" stroke-linejoin="round" stroke-miterlimit="10" cx="176" cy="196" r="64"/>
	<g>
		
			<path fill="#E3F2FD" stroke="#1565C0" stroke-width="3" stroke-linecap="round" stroke-linejoin="round" stroke-miterlimit="10" d="
			M184.65,231.967v-30.171c0,0,16.056-20.711,24.77-31.89c2.199-2.845,0.168-6.944-3.409-6.944H145.99
			c-3.582,0-5.608,4.1-3.409,6.944c8.714,11.179,24.811,31.89,24.811,31.89v30.171H184.65z"/>
	</g>
</g>
<rect x="92" y="68" fill="#FFFFFF" stroke="#1565C0" stroke-width="3" stroke-linecap="round" stroke-linejoin="round" stroke-miterlimit="10" width="13.299" height="64"/>
<path fill="none" stroke="#1565C0" stroke-width="3" stroke-linecap="round" stroke-linejoin="round" stroke-miterlimit="10" d="
	M104,244H72h-8c-8.837,0-16-7.164-16-16v-16"/>
</svg>
