<?xml version="1.0" encoding="utf-8"?>
<!-- Generator: Adobe Illustrator 16.0.4, SVG Export Plug-In . SVG Version: 6.00 Build 0)  -->
<!DOCTYPE svg PUBLIC "-//W3C//DTD SVG 1.1//EN" "http://www.w3.org/Graphics/SVG/1.1/DTD/svg11.dtd">
<svg version="1.1" id="Layer_1" xmlns="http://www.w3.org/2000/svg" xmlns:xlink="http://www.w3.org/1999/xlink" x="0px" y="0px"
	 width="264px" height="264px" viewBox="0 0 264 264" enable-background="new 0 0 264 264" xml:space="preserve">
<g id="New_Symbol_13">
</g>
<path fill="none" stroke="#1565C0" stroke-width="3" stroke-linecap="round" stroke-linejoin="round" stroke-miterlimit="10" d="
	M48.701,176V47.379c0-10.703,8.676-19.376,19.378-19.379"/>
<path fill="#1565C0" stroke="#1565C0" stroke-width="3" stroke-linecap="round" stroke-linejoin="round" stroke-miterlimit="10" d="
	M61.83,227.65c0,7.441-6.037,13.478-13.479,13.478c-7.444,0-13.479-6.036-13.479-13.478c0-7.444,6.035-13.48,13.479-13.48
	C55.793,214.17,61.83,220.206,61.83,227.65z M80.701,234.025V221.27h-8.374l-2.494-6.082l5.905-5.903l-9.022-9.021l-5.921,5.923
	l-6.066-2.535V195.3H41.973v8.374l-6.083,2.494l-5.904-5.904l-9.02,9.021l5.923,5.923l-2.538,6.062H16v12.756h8.374l2.496,6.086
	l-5.904,5.905l9.02,9.02l5.923-5.925l6.064,2.535V260h12.756v-8.375l6.083-2.497l5.904,5.908l9.022-9.02l-5.924-5.924l2.536-6.067
	H80.701z"/>
<g>
	<g>
		
			<polyline fill="#E3F2FD" stroke="#1565C0" stroke-width="3" stroke-linecap="round" stroke-linejoin="round" stroke-miterlimit="10" points="
			92,176 92,28 131.965,28 131.965,176 		"/>
		<g>
			
				<rect x="88" y="4" fill="#E3F2FD" stroke="#1565C0" stroke-width="3" stroke-linecap="round" stroke-linejoin="round" stroke-miterlimit="10" width="48" height="40"/>
			
				<path fill="#E3F2FD" stroke="#1565C0" stroke-width="3" stroke-linecap="round" stroke-linejoin="round" stroke-miterlimit="10" d="
				M132,176c0,11.046-8.954,20-20,20c-11.045,0-20-8.954-20-20"/>
		</g>
	</g>
	
		<rect x="92" y="68" fill="#E3F2FD" stroke="#1565C0" stroke-width="3" stroke-linecap="round" stroke-linejoin="round" stroke-miterlimit="10" width="16.508" height="64"/>
</g>
<g>
	<g>
		
			<polyline fill="#E3F2FD" stroke="#1565C0" stroke-width="3" stroke-linecap="round" stroke-linejoin="round" stroke-miterlimit="10" points="
			148,208 148,60 187.965,60 187.965,208 		"/>
		<g>
			
				<rect x="144" y="36" fill="#E3F2FD" stroke="#1565C0" stroke-width="3" stroke-linecap="round" stroke-linejoin="round" stroke-miterlimit="10" width="48" height="40"/>
			
				<path fill="#E3F2FD" stroke="#1565C0" stroke-width="3" stroke-linecap="round" stroke-linejoin="round" stroke-miterlimit="10" d="
				M188,208c0,11.046-8.954,20-20,20c-11.045,0-20-8.954-20-20"/>
		</g>
	</g>
	
		<rect x="148" y="100" fill="#E3F2FD" stroke="#1565C0" stroke-width="3" stroke-linecap="round" stroke-linejoin="round" stroke-miterlimit="10" width="16.508" height="64"/>
</g>
<g>
	<g>
		
			<polyline fill="#FFFFFF" stroke="#1565C0" stroke-width="3" stroke-linecap="round" stroke-linejoin="round" stroke-miterlimit="10" points="
			204,240 204,92 243.965,92 243.965,240 		"/>
		<g>
			
				<rect x="200" y="68" fill="#E3F2FD" stroke="#1565C0" stroke-width="3" stroke-linecap="round" stroke-linejoin="round" stroke-miterlimit="10" width="48" height="40"/>
			
				<path fill="#FFFFFF" stroke="#1565C0" stroke-width="3" stroke-linecap="round" stroke-linejoin="round" stroke-miterlimit="10" d="
				M244,240c0,11.046-8.954,20-20,20c-11.045,0-20-8.954-20-20"/>
		</g>
	</g>
	
		<rect x="204" y="132" fill="#FFFFFF" stroke="#1565C0" stroke-width="3" stroke-linecap="round" stroke-linejoin="round" stroke-miterlimit="10" width="16.508" height="64"/>
</g>
</svg>
