<?xml version="1.0" encoding="utf-8"?>
<!-- Generator: Adobe Illustrator 16.0.4, SVG Export Plug-In . SVG Version: 6.00 Build 0)  -->
<!DOCTYPE svg PUBLIC "-//W3C//DTD SVG 1.1//EN" "http://www.w3.org/Graphics/SVG/1.1/DTD/svg11.dtd">
<svg version="1.1" id="Layer_1" xmlns="http://www.w3.org/2000/svg" xmlns:xlink="http://www.w3.org/1999/xlink" x="0px" y="0px"
	 width="264px" height="264px" viewBox="0 0 264 264" enable-background="new 0 0 264 264" xml:space="preserve">
<g id="New_Symbol_13">
</g>
<g>
	<path fill="#FFFFFF" d="M4,244V20c0-8.8,7.2-16,16-16h224c8.8,0,16,7.2,16,16v224"/>
	<path fill="none" stroke="#1565C0" stroke-width="3" stroke-linecap="round" stroke-linejoin="round" stroke-miterlimit="10" d="
		M4,244V20c0-8.8,7.2-16,16-16h224c8.8,0,16,7.2,16,16v224"/>
</g>
<rect x="4" y="64" fill="#E3F2FD" stroke="#1565C0" stroke-width="3" stroke-linecap="round" stroke-linejoin="round" stroke-miterlimit="10" width="256" height="160"/>
<rect x="36" y="244" fill="#1565C0" stroke="#1565C0" stroke-width="2" stroke-linecap="round" stroke-linejoin="round" stroke-miterlimit="10" width="32" height="16"/>
<rect x="196" y="244" fill="#1565C0" stroke="#1565C0" stroke-width="2" stroke-linecap="round" stroke-linejoin="round" stroke-miterlimit="10" width="32" height="16"/>
<g>
	<line fill="#FFFFFF" x1="4" y1="244.331" x2="260" y2="244.331"/>
	
		<line fill="none" stroke="#1565C0" stroke-width="3" stroke-linecap="round" stroke-linejoin="round" stroke-miterlimit="10" x1="4" y1="244.331" x2="260" y2="244.331"/>
</g>
<g>
	<g>
		
			<polyline fill="#FFFFFF" stroke="#1565C0" stroke-width="3" stroke-linecap="round" stroke-linejoin="round" stroke-miterlimit="10" points="
			32,189.987 32,100.681 55.979,100.681 55.979,189.987 		"/>
		
			<path fill="#1565C0" stroke="#1565C0" stroke-width="3" stroke-linecap="round" stroke-linejoin="round" stroke-miterlimit="10" d="
			M32,144.449v45.538h-0.021c0,7.363,5.373,13.332,12,13.332c6.628,0,12-5.969,12-13.332v-45.538H32z"/>
		
			<rect x="28" y="84.681" fill="#E3F2FD" stroke="#1565C0" stroke-width="3" stroke-linecap="round" stroke-linejoin="round" stroke-miterlimit="10" width="32" height="24"/>
		
			<rect x="32" y="122.013" fill="#FFFFFF" stroke="#1565C0" stroke-width="3" stroke-linecap="round" stroke-linejoin="round" stroke-miterlimit="10" width="8" height="44"/>
	</g>
	<g>
		
			<polyline fill="#FFFFFF" stroke="#1565C0" stroke-width="3" stroke-linecap="round" stroke-linejoin="round" stroke-miterlimit="10" points="
			76,189.987 76,100.681 99.979,100.681 99.979,189.987 		"/>
		
			<path fill="#1565C0" stroke="#1565C0" stroke-width="3" stroke-linecap="round" stroke-linejoin="round" stroke-miterlimit="10" d="
			M76,144.521v45.467h-0.021c0,7.363,5.373,13.332,12,13.332c6.628,0,12-5.969,12-13.332v-45.467H76z"/>
		
			<rect x="72" y="84.681" fill="#E3F2FD" stroke="#1565C0" stroke-width="3" stroke-linecap="round" stroke-linejoin="round" stroke-miterlimit="10" width="32" height="24"/>
		
			<rect x="76" y="122.013" fill="#FFFFFF" stroke="#1565C0" stroke-width="3" stroke-linecap="round" stroke-linejoin="round" stroke-miterlimit="10" width="8" height="44"/>
	</g>
	<g>
		
			<polyline fill="#FFFFFF" stroke="#1565C0" stroke-width="3" stroke-linecap="round" stroke-linejoin="round" stroke-miterlimit="10" points="
			120,189.987 120,100.681 143.979,100.681 143.979,189.987 		"/>
		
			<path fill="#1565C0" stroke="#1565C0" stroke-width="3" stroke-linecap="round" stroke-linejoin="round" stroke-miterlimit="10" d="
			M120,144.449v45.538h-0.021c0,7.363,5.373,13.332,12,13.332c6.628,0,12-5.969,12-13.332v-45.538H120z"/>
		
			<rect x="116" y="84.681" fill="#E3F2FD" stroke="#1565C0" stroke-width="3" stroke-linecap="round" stroke-linejoin="round" stroke-miterlimit="10" width="32" height="24"/>
		
			<rect x="120" y="122.013" fill="#FFFFFF" stroke="#1565C0" stroke-width="3" stroke-linecap="round" stroke-linejoin="round" stroke-miterlimit="10" width="8" height="44"/>
	</g>
	<g>
		
			<polyline fill="#FFFFFF" stroke="#1565C0" stroke-width="3" stroke-linecap="round" stroke-linejoin="round" stroke-miterlimit="10" points="
			164,189.987 164,100.681 187.979,100.681 187.979,189.987 		"/>
		
			<path fill="#1565C0" stroke="#1565C0" stroke-width="3" stroke-linecap="round" stroke-linejoin="round" stroke-miterlimit="10" d="
			M164,144.627v45.36h-0.021c0,7.363,5.373,13.332,12,13.332c6.628,0,12-5.969,12-13.332v-45.36H164z"/>
		
			<rect x="160" y="84.681" fill="#E3F2FD" stroke="#1565C0" stroke-width="3" stroke-linecap="round" stroke-linejoin="round" stroke-miterlimit="10" width="32" height="24"/>
		
			<rect x="164" y="122.013" fill="#FFFFFF" stroke="#1565C0" stroke-width="3" stroke-linecap="round" stroke-linejoin="round" stroke-miterlimit="10" width="8" height="44"/>
	</g>
	<g>
		
			<polyline fill="#FFFFFF" stroke="#1565C0" stroke-width="3" stroke-linecap="round" stroke-linejoin="round" stroke-miterlimit="10" points="
			208,189.987 208,100.681 231.979,100.681 231.979,189.987 		"/>
		
			<path fill="#1565C0" stroke="#1565C0" stroke-width="3" stroke-linecap="round" stroke-linejoin="round" stroke-miterlimit="10" d="
			M208,144.521v45.467h-0.021c0,7.363,5.373,13.332,12,13.332c6.628,0,12-5.969,12-13.332v-45.467H208z"/>
		
			<rect x="204" y="84.681" fill="#E3F2FD" stroke="#1565C0" stroke-width="3" stroke-linecap="round" stroke-linejoin="round" stroke-miterlimit="10" width="32" height="24"/>
		
			<rect x="208" y="122.013" fill="#FFFFFF" stroke="#1565C0" stroke-width="3" stroke-linecap="round" stroke-linejoin="round" stroke-miterlimit="10" width="8" height="44"/>
	</g>
</g>
<g>
	
		<circle fill="#E3F2FD" stroke="#1565C0" stroke-width="3" stroke-linecap="round" stroke-linejoin="round" stroke-miterlimit="10" cx="190" cy="34" r="6"/>
	
		<circle fill="#E3F2FD" stroke="#1565C0" stroke-width="3" stroke-linecap="round" stroke-linejoin="round" stroke-miterlimit="10" cx="210" cy="34" r="6"/>
	
		<circle fill="#E3F2FD" stroke="#1565C0" stroke-width="3" stroke-linecap="round" stroke-linejoin="round" stroke-miterlimit="10" cx="230" cy="34" r="6"/>
</g>
<g>
	
		<line fill="none" stroke="#1565C0" stroke-width="3" stroke-linecap="round" stroke-linejoin="round" stroke-miterlimit="10" x1="52" y1="32" x2="20" y2="32"/>
	
		<line fill="none" stroke="#1565C0" stroke-width="3" stroke-linecap="round" stroke-linejoin="round" stroke-miterlimit="10" x1="36" y1="48" x2="36" y2="16"/>
	
		<polyline fill="none" stroke="#1565C0" stroke-width="3" stroke-linecap="round" stroke-linejoin="round" stroke-miterlimit="10" points="
		48.875,39.542 41.334,32 48.875,24.458 	"/>
	
		<polyline fill="none" stroke="#1565C0" stroke-width="3" stroke-linecap="round" stroke-linejoin="round" stroke-miterlimit="10" points="
		43.542,19.125 36,26.666 28.458,19.125 	"/>
	
		<polyline fill="none" stroke="#1565C0" stroke-width="3" stroke-linecap="round" stroke-linejoin="round" stroke-miterlimit="10" points="
		23.125,24.458 30.666,32 23.125,39.542 	"/>
	
		<polyline fill="none" stroke="#1565C0" stroke-width="3" stroke-linecap="round" stroke-linejoin="round" stroke-miterlimit="10" points="
		28.458,44.875 36,37.334 43.542,44.875 	"/>
</g>
</svg>
