<?xml version="1.0" encoding="utf-8"?>
<!-- Generator: Adobe Illustrator 16.0.4, SVG Export Plug-In . SVG Version: 6.00 Build 0)  -->
<!DOCTYPE svg PUBLIC "-//W3C//DTD SVG 1.1//EN" "http://www.w3.org/Graphics/SVG/1.1/DTD/svg11.dtd">
<svg version="1.1" id="Layer_1" xmlns="http://www.w3.org/2000/svg" xmlns:xlink="http://www.w3.org/1999/xlink" x="0px" y="0px"
	 width="264px" height="264px" viewBox="0 0 264 264" enable-background="new 0 0 264 264" xml:space="preserve">
<g id="New_Symbol_13">
</g>
<g>
	<g>
		
			<rect x="148" y="4" fill="#E3F2FD" stroke="#1565C0" stroke-width="3" stroke-linecap="round" stroke-linejoin="round" stroke-miterlimit="10" width="80" height="100"/>
		<g>
			<g>
				<g>
					
						<rect x="164" y="34.737" fill="#FFFFFF" stroke="#1565C0" stroke-width="3" stroke-linecap="round" stroke-linejoin="round" stroke-miterlimit="10" width="8.843" height="5.895"/>
					
						<rect x="164" y="20" fill="#1565C0" stroke="#1565C0" stroke-width="3" stroke-linecap="round" stroke-linejoin="round" stroke-miterlimit="10" width="23.579" height="5.895"/>
					
						<line fill="none" stroke="#1565C0" stroke-width="3" stroke-linecap="round" stroke-linejoin="round" stroke-miterlimit="10" x1="178.737" y1="37.685" x2="204" y2="37.685"/>
					
						<line fill="none" stroke="#1565C0" stroke-width="3" stroke-linecap="round" stroke-linejoin="round" stroke-miterlimit="10" x1="164" y1="25.895" x2="181.685" y2="25.895"/>
					
						<rect x="164" y="49.474" fill="#FFFFFF" stroke="#1565C0" stroke-width="3" stroke-linecap="round" stroke-linejoin="round" stroke-miterlimit="10" width="8.843" height="5.895"/>
					
						<line fill="none" stroke="#1565C0" stroke-width="3" stroke-linecap="round" stroke-linejoin="round" stroke-miterlimit="10" x1="178.737" y1="52.421" x2="196" y2="52.421"/>
					
						<rect x="164" y="64.211" fill="#1565C0" stroke="#1565C0" stroke-width="3" stroke-linecap="round" stroke-linejoin="round" stroke-miterlimit="10" width="8.843" height="5.895"/>
					
						<line fill="none" stroke="#1565C0" stroke-width="3" stroke-linecap="round" stroke-linejoin="round" stroke-miterlimit="10" x1="178.737" y1="67.158" x2="204" y2="67.158"/>
				</g>
				<g>
					
						<rect x="164" y="78.947" fill="#FFFFFF" stroke="#1565C0" stroke-width="3" stroke-linecap="round" stroke-linejoin="round" stroke-miterlimit="10" width="8.843" height="5.895"/>
					
						<line fill="none" stroke="#1565C0" stroke-width="3" stroke-linecap="round" stroke-linejoin="round" stroke-miterlimit="10" x1="178.737" y1="81.895" x2="196" y2="81.895"/>
				</g>
			</g>
		</g>
		<g>
			
				<path fill="#FFFFFF" stroke="#1565C0" stroke-width="3" stroke-linecap="round" stroke-linejoin="round" stroke-miterlimit="10" d="
				M240,106.667c0,7.363-5.371,13.333-12,13.333c-6.627,0-12-5.97-12-13.333"/>
			
				<polyline fill="#FFFFFF" stroke="#1565C0" stroke-width="3" stroke-linecap="round" stroke-linejoin="round" stroke-miterlimit="10" points="
				216,106.642 216,28.001 239.979,28.001 239.979,106.642 			"/>
			
				<rect x="212" y="12.001" fill="#E3F2FD" stroke="#1565C0" stroke-width="3" stroke-linecap="round" stroke-linejoin="round" stroke-miterlimit="10" width="32" height="24"/>
			
				<rect x="216" y="52" fill="#FFFFFF" stroke="#1565C0" stroke-width="3" stroke-linecap="round" stroke-linejoin="round" stroke-miterlimit="10" width="8" height="40"/>
		</g>
	</g>
	<g>
		<rect x="148" y="144" fill="#FFFFFF" width="80" height="100"/>
		<g>
			<polyline fill="none" stroke="#1565C0" stroke-width="3" stroke-linecap="round" stroke-linejoin="round" points="228,241 
				228,244 225,244 			"/>
			
				<line fill="none" stroke="#1565C0" stroke-width="3" stroke-linecap="round" stroke-linejoin="round" stroke-dasharray="6.7273,13.4545" x1="211.545" y1="244" x2="157.728" y2="244"/>
			<polyline fill="none" stroke="#1565C0" stroke-width="3" stroke-linecap="round" stroke-linejoin="round" points="151,244 
				148,244 148,241 			"/>
			
				<line fill="none" stroke="#1565C0" stroke-width="3" stroke-linecap="round" stroke-linejoin="round" stroke-dasharray="5.5294,11.0588" x1="148" y1="229.941" x2="148" y2="152.529"/>
			<polyline fill="none" stroke="#1565C0" stroke-width="3" stroke-linecap="round" stroke-linejoin="round" points="148,147 
				148,144 151,144 			"/>
			
				<line fill="none" stroke="#1565C0" stroke-width="3" stroke-linecap="round" stroke-linejoin="round" stroke-dasharray="6.7273,13.4545" x1="164.455" y1="144" x2="218.272" y2="144"/>
			<polyline fill="none" stroke="#1565C0" stroke-width="3" stroke-linecap="round" stroke-linejoin="round" points="225,144 
				228,144 228,147 			"/>
			
				<line fill="none" stroke="#1565C0" stroke-width="3" stroke-linecap="round" stroke-linejoin="round" stroke-dasharray="5.5294,11.0588" x1="228" y1="158.059" x2="228" y2="235.471"/>
		</g>
	</g>
	<g>
		
			<path fill="#FFFFFF" stroke="#1565C0" stroke-width="3" stroke-linecap="round" stroke-linejoin="round" stroke-miterlimit="10" d="
			M240,246.667c0,7.363-5.371,13.333-12,13.333c-6.627,0-12-5.97-12-13.333"/>
		
			<polyline fill="#FFFFFF" stroke="#1565C0" stroke-width="3" stroke-linecap="round" stroke-linejoin="round" stroke-miterlimit="10" points="
			216,246.642 216,168.001 239.979,168.001 239.979,246.642 		"/>
		
			<rect x="212" y="152.001" fill="#E3F2FD" stroke="#1565C0" stroke-width="3" stroke-linecap="round" stroke-linejoin="round" stroke-miterlimit="10" width="32" height="24"/>
		
			<rect x="216" y="192" fill="#FFFFFF" stroke="#1565C0" stroke-width="3" stroke-linecap="round" stroke-linejoin="round" stroke-miterlimit="10" width="8" height="40"/>
	</g>
	<g>
		
			<rect x="20" y="144" fill="#E3F2FD" stroke="#1565C0" stroke-width="3" stroke-linecap="round" stroke-linejoin="round" stroke-miterlimit="10" width="80" height="100"/>
		<g>
			<g>
				<g>
					
						<rect x="36" y="174.737" fill="#FFFFFF" stroke="#1565C0" stroke-width="3" stroke-linecap="round" stroke-linejoin="round" stroke-miterlimit="10" width="8.843" height="5.895"/>
					
						<rect x="36" y="160" fill="#1565C0" stroke="#1565C0" stroke-width="3" stroke-linecap="round" stroke-linejoin="round" stroke-miterlimit="10" width="23.579" height="5.895"/>
					
						<line fill="none" stroke="#1565C0" stroke-width="3" stroke-linecap="round" stroke-linejoin="round" stroke-miterlimit="10" x1="50.737" y1="177.685" x2="76" y2="177.685"/>
					
						<line fill="none" stroke="#1565C0" stroke-width="3" stroke-linecap="round" stroke-linejoin="round" stroke-miterlimit="10" x1="36" y1="165.895" x2="53.685" y2="165.895"/>
					
						<rect x="36" y="189.474" fill="#FFFFFF" stroke="#1565C0" stroke-width="3" stroke-linecap="round" stroke-linejoin="round" stroke-miterlimit="10" width="8.843" height="5.895"/>
					
						<line fill="none" stroke="#1565C0" stroke-width="3" stroke-linecap="round" stroke-linejoin="round" stroke-miterlimit="10" x1="50.737" y1="192.421" x2="68" y2="192.421"/>
					
						<rect x="36" y="204.211" fill="#1565C0" stroke="#1565C0" stroke-width="3" stroke-linecap="round" stroke-linejoin="round" stroke-miterlimit="10" width="8.843" height="5.895"/>
					
						<line fill="none" stroke="#1565C0" stroke-width="3" stroke-linecap="round" stroke-linejoin="round" stroke-miterlimit="10" x1="50.737" y1="207.158" x2="76" y2="207.158"/>
				</g>
				<g>
					
						<rect x="36" y="218.947" fill="#FFFFFF" stroke="#1565C0" stroke-width="3" stroke-linecap="round" stroke-linejoin="round" stroke-miterlimit="10" width="8.843" height="5.895"/>
					
						<line fill="none" stroke="#1565C0" stroke-width="3" stroke-linecap="round" stroke-linejoin="round" stroke-miterlimit="10" x1="50.737" y1="221.895" x2="68" y2="221.895"/>
				</g>
			</g>
		</g>
		<g>
			
				<path fill="#FFFFFF" stroke="#1565C0" stroke-width="3" stroke-linecap="round" stroke-linejoin="round" stroke-miterlimit="10" d="
				M112,246.667c0,7.363-5.371,13.333-12,13.333c-6.627,0-12-5.97-12-13.333"/>
			
				<polyline fill="#FFFFFF" stroke="#1565C0" stroke-width="3" stroke-linecap="round" stroke-linejoin="round" stroke-miterlimit="10" points="
				88,246.642 88,168.001 111.979,168.001 111.979,246.642 			"/>
			
				<rect x="84" y="152.001" fill="#E3F2FD" stroke="#1565C0" stroke-width="3" stroke-linecap="round" stroke-linejoin="round" stroke-miterlimit="10" width="32" height="24"/>
			
				<rect x="88" y="192" fill="#FFFFFF" stroke="#1565C0" stroke-width="3" stroke-linecap="round" stroke-linejoin="round" stroke-miterlimit="10" width="8" height="40"/>
		</g>
	</g>
	<g>
		
			<rect x="20" y="4" fill="#E3F2FD" stroke="#1565C0" stroke-width="3" stroke-linecap="round" stroke-linejoin="round" stroke-miterlimit="10" width="80" height="100"/>
		<g>
			<g>
				<g>
					
						<rect x="36" y="34.737" fill="#FFFFFF" stroke="#1565C0" stroke-width="3" stroke-linecap="round" stroke-linejoin="round" stroke-miterlimit="10" width="8.843" height="5.895"/>
					
						<rect x="36" y="20" fill="#1565C0" stroke="#1565C0" stroke-width="3" stroke-linecap="round" stroke-linejoin="round" stroke-miterlimit="10" width="23.579" height="5.895"/>
					
						<line fill="none" stroke="#1565C0" stroke-width="3" stroke-linecap="round" stroke-linejoin="round" stroke-miterlimit="10" x1="50.737" y1="37.685" x2="76" y2="37.685"/>
					
						<line fill="none" stroke="#1565C0" stroke-width="3" stroke-linecap="round" stroke-linejoin="round" stroke-miterlimit="10" x1="36" y1="25.895" x2="53.685" y2="25.895"/>
					
						<rect x="36" y="49.474" fill="#FFFFFF" stroke="#1565C0" stroke-width="3" stroke-linecap="round" stroke-linejoin="round" stroke-miterlimit="10" width="8.843" height="5.895"/>
					
						<line fill="none" stroke="#1565C0" stroke-width="3" stroke-linecap="round" stroke-linejoin="round" stroke-miterlimit="10" x1="50.737" y1="52.421" x2="68" y2="52.421"/>
					
						<rect x="36" y="64.211" fill="#1565C0" stroke="#1565C0" stroke-width="3" stroke-linecap="round" stroke-linejoin="round" stroke-miterlimit="10" width="8.843" height="5.895"/>
					
						<line fill="none" stroke="#1565C0" stroke-width="3" stroke-linecap="round" stroke-linejoin="round" stroke-miterlimit="10" x1="50.737" y1="67.158" x2="76" y2="67.158"/>
				</g>
				<g>
					
						<rect x="36" y="78.947" fill="#FFFFFF" stroke="#1565C0" stroke-width="3" stroke-linecap="round" stroke-linejoin="round" stroke-miterlimit="10" width="8.843" height="5.895"/>
					
						<line fill="none" stroke="#1565C0" stroke-width="3" stroke-linecap="round" stroke-linejoin="round" stroke-miterlimit="10" x1="50.737" y1="81.895" x2="68" y2="81.895"/>
				</g>
			</g>
		</g>
		<g>
			
				<path fill="#FFFFFF" stroke="#1565C0" stroke-width="3" stroke-linecap="round" stroke-linejoin="round" stroke-miterlimit="10" d="
				M112,106.667c0,7.363-5.371,13.333-12,13.333c-6.627,0-12-5.97-12-13.333"/>
			
				<polyline fill="#FFFFFF" stroke="#1565C0" stroke-width="3" stroke-linecap="round" stroke-linejoin="round" stroke-miterlimit="10" points="
				88,106.642 88,28.001 111.979,28.001 111.979,106.642 			"/>
			
				<rect x="84" y="12.001" fill="#E3F2FD" stroke="#1565C0" stroke-width="3" stroke-linecap="round" stroke-linejoin="round" stroke-miterlimit="10" width="32" height="24"/>
			
				<rect x="88" y="52" fill="#FFFFFF" stroke="#1565C0" stroke-width="3" stroke-linecap="round" stroke-linejoin="round" stroke-miterlimit="10" width="8" height="40"/>
		</g>
	</g>
</g>
</svg>
