<?xml version="1.0" encoding="utf-8"?>
<!-- Generator: Adobe Illustrator 16.0.4, SVG Export Plug-In . SVG Version: 6.00 Build 0)  -->
<!DOCTYPE svg PUBLIC "-//W3C//DTD SVG 1.1//EN" "http://www.w3.org/Graphics/SVG/1.1/DTD/svg11.dtd">
<svg version="1.1" id="Layer_1" xmlns="http://www.w3.org/2000/svg" xmlns:xlink="http://www.w3.org/1999/xlink" x="0px" y="0px"
	 width="264px" height="264px" viewBox="0 0 264 264" enable-background="new 0 0 264 264" xml:space="preserve">
<g id="New_Symbol_13">
</g>
<path fill="none" stroke="#1565C0" stroke-width="3" stroke-linecap="round" stroke-linejoin="round" stroke-miterlimit="10" d="
	M20,128v84c0,17.674,14.327,32,32,32h64"/>
<g>
	<path fill="#E3F2FD" d="M20,112V16c0-6.6,5.4-12,12-12h148c6.6,0,12,5.4,12,12v96"/>
	<path fill="none" stroke="#1565C0" stroke-width="3" stroke-linecap="round" stroke-linejoin="round" stroke-miterlimit="10" d="
		M20,112V16c0-6.6,5.4-12,12-12h148c6.6,0,12,5.4,12,12v96"/>
</g>
<g>
	<path fill="#1565C0" d="M36,96V68c0-4.4,3.6-8,8-8h124c4.4,0,8,3.6,8,8v28"/>
	<path fill="none" stroke="#1565C0" stroke-width="3" stroke-linecap="round" stroke-linejoin="round" stroke-miterlimit="10" d="
		M36,96V68c0-4.4,3.6-8,8-8h124c4.4,0,8,3.6,8,8v28"/>
</g>
<circle fill="#FFFFFF" stroke="#1565C0" stroke-width="3" stroke-linecap="round" stroke-linejoin="round" stroke-miterlimit="10" cx="168.298" cy="22.674" r="5.093"/>
<line fill="none" stroke="#1565C0" stroke-width="3" stroke-linecap="round" stroke-linejoin="round" stroke-miterlimit="10" x1="36" y1="96" x2="176" y2="96"/>
<line fill="none" stroke="#1565C0" stroke-width="3" stroke-linecap="round" stroke-linejoin="round" stroke-miterlimit="10" x1="192" y1="112" x2="20" y2="112"/>
<g>
	
		<rect x="52" y="76" fill="#FFFFFF" stroke="#1565C0" stroke-width="3" stroke-linecap="round" stroke-linejoin="round" stroke-miterlimit="10" width="112" height="99.999"/>
	<g>
		
			<line fill="#FFFFFF" stroke="#1565C0" stroke-width="3" stroke-linecap="round" stroke-linejoin="round" stroke-miterlimit="10" x1="124" y1="108" x2="64" y2="108"/>
		
			<line fill="#FFFFFF" stroke="#1565C0" stroke-width="3" stroke-linecap="round" stroke-linejoin="round" stroke-miterlimit="10" x1="124" y1="92" x2="64" y2="92"/>
		
			<line fill="#FFFFFF" stroke="#1565C0" stroke-width="3" stroke-linecap="round" stroke-linejoin="round" stroke-miterlimit="10" x1="116" y1="100" x2="64" y2="100"/>
	</g>
	<g>
		<line fill="#FFFFFF" x1="52" y1="128" x2="164" y2="128"/>
		<g>
			
				<line fill="none" stroke="#1565C0" stroke-width="3" stroke-linecap="round" stroke-linejoin="round" x1="52" y1="128" x2="55" y2="128"/>
			
				<line fill="none" stroke="#1565C0" stroke-width="3" stroke-linecap="round" stroke-linejoin="round" stroke-dasharray="6,8" x1="63" y1="128" x2="157" y2="128"/>
			
				<line fill="none" stroke="#1565C0" stroke-width="3" stroke-linecap="round" stroke-linejoin="round" x1="161" y1="128" x2="164" y2="128"/>
		</g>
	</g>
	<g>
		
			<line fill="#FFFFFF" stroke="#1565C0" stroke-width="3" stroke-linecap="round" stroke-linejoin="round" stroke-miterlimit="10" x1="124" y1="160" x2="64" y2="160"/>
		
			<line fill="#FFFFFF" stroke="#1565C0" stroke-width="3" stroke-linecap="round" stroke-linejoin="round" stroke-miterlimit="10" x1="124" y1="144" x2="64" y2="144"/>
		
			<line fill="#FFFFFF" stroke="#1565C0" stroke-width="3" stroke-linecap="round" stroke-linejoin="round" stroke-miterlimit="10" x1="116" y1="152" x2="64" y2="152"/>
	</g>
</g>
<polygon fill="#FFFFFF" stroke="#1565C0" stroke-width="3" stroke-linecap="round" stroke-linejoin="round" stroke-miterlimit="10" points="
	248,260 137.844,260 137.844,120 228,120 248,140 "/>
<polygon fill="#E3F2FD" stroke="#1565C0" stroke-width="3" stroke-linecap="round" stroke-linejoin="round" stroke-miterlimit="10" points="
	228,120 228,140 248,140 "/>
<g>
	<g>
		
			<line fill="#FFFFFF" stroke="#1565C0" stroke-width="3" stroke-linecap="round" stroke-linejoin="round" stroke-miterlimit="10" x1="209.844" y1="152" x2="149.844" y2="152"/>
		
			<line fill="#FFFFFF" stroke="#1565C0" stroke-width="3" stroke-linecap="round" stroke-linejoin="round" stroke-miterlimit="10" x1="209.844" y1="136" x2="149.844" y2="136"/>
		
			<line fill="#FFFFFF" stroke="#1565C0" stroke-width="3" stroke-linecap="round" stroke-linejoin="round" stroke-miterlimit="10" x1="201.844" y1="144" x2="149.844" y2="144"/>
	</g>
	<g>
		<line fill="#FFFFFF" x1="137.844" y1="168" x2="248" y2="168"/>
		<g>
			
				<line fill="none" stroke="#1565C0" stroke-width="3" stroke-linecap="round" stroke-linejoin="round" x1="137.844" y1="168" x2="140.844" y2="168"/>
			
				<line fill="none" stroke="#1565C0" stroke-width="3" stroke-linecap="round" stroke-linejoin="round" stroke-dasharray="5.8956,7.8608" x1="148.705" y1="168" x2="241.069" y2="168"/>
			
				<line fill="none" stroke="#1565C0" stroke-width="3" stroke-linecap="round" stroke-linejoin="round" x1="245" y1="168" x2="248" y2="168"/>
		</g>
	</g>
	<g>
		
			<line fill="#FFFFFF" stroke="#1565C0" stroke-width="3" stroke-linecap="round" stroke-linejoin="round" stroke-miterlimit="10" x1="209.844" y1="200" x2="149.844" y2="200"/>
		
			<line fill="#FFFFFF" stroke="#1565C0" stroke-width="3" stroke-linecap="round" stroke-linejoin="round" stroke-miterlimit="10" x1="209.844" y1="184" x2="149.844" y2="184"/>
		
			<line fill="#FFFFFF" stroke="#1565C0" stroke-width="3" stroke-linecap="round" stroke-linejoin="round" stroke-miterlimit="10" x1="201.844" y1="192" x2="149.844" y2="192"/>
	</g>
	<g>
		
			<line fill="#FFFFFF" stroke="#1565C0" stroke-width="3" stroke-linecap="round" stroke-linejoin="round" stroke-miterlimit="10" x1="209.844" y1="244" x2="149.844" y2="244"/>
		
			<line fill="#FFFFFF" stroke="#1565C0" stroke-width="3" stroke-linecap="round" stroke-linejoin="round" stroke-miterlimit="10" x1="209.844" y1="228" x2="149.844" y2="228"/>
		
			<line fill="#FFFFFF" stroke="#1565C0" stroke-width="3" stroke-linecap="round" stroke-linejoin="round" stroke-miterlimit="10" x1="201.844" y1="236" x2="149.844" y2="236"/>
	</g>
	<g>
		<line fill="#FFFFFF" x1="137.844" y1="216" x2="248" y2="216"/>
		<g>
			
				<line fill="none" stroke="#1565C0" stroke-width="3" stroke-linecap="round" stroke-linejoin="round" x1="137.844" y1="216" x2="140.844" y2="216"/>
			
				<line fill="none" stroke="#1565C0" stroke-width="3" stroke-linecap="round" stroke-linejoin="round" stroke-dasharray="5.8956,7.8608" x1="148.705" y1="216" x2="241.069" y2="216"/>
			
				<line fill="none" stroke="#1565C0" stroke-width="3" stroke-linecap="round" stroke-linejoin="round" x1="245" y1="216" x2="248" y2="216"/>
		</g>
	</g>
</g>
</svg>
