<?xml version="1.0" encoding="utf-8"?>
<!-- Generator: Adobe Illustrator 16.0.4, SVG Export Plug-In . SVG Version: 6.00 Build 0)  -->
<!DOCTYPE svg PUBLIC "-//W3C//DTD SVG 1.1//EN" "http://www.w3.org/Graphics/SVG/1.1/DTD/svg11.dtd">
<svg version="1.1" id="Layer_1" xmlns="http://www.w3.org/2000/svg" xmlns:xlink="http://www.w3.org/1999/xlink" x="0px" y="0px"
	 width="264px" height="264px" viewBox="0 0 264 264" enable-background="new 0 0 264 264" xml:space="preserve">
<g id="New_Symbol_13">
</g>
<g>
	<path fill="#FFFFFF" d="M79.947,74.859C77.684,71.087,72.23,68,67.831,68H24c-4.4,0-8,3.6-8,8v39.312c0,4.4,3.6,8,8,8h77.019
		c4.399,0,6.147-3.087,3.884-6.859L79.947,74.859z"/>
	<path fill="none" stroke="#1565C0" stroke-width="3" stroke-linecap="round" stroke-linejoin="round" stroke-miterlimit="10" d="
		M79.947,74.859C77.684,71.087,72.23,68,67.831,68H24c-4.4,0-8,3.6-8,8v39.312c0,4.4,3.6,8,8,8h77.019
		c4.399,0,6.147-3.087,3.884-6.859L79.947,74.859z"/>
</g>
<g>
	<rect x="16" y="86.438" fill="#FFFFFF" width="236" height="161.562"/>
	
		<rect x="16" y="86.438" fill="none" stroke="#1565C0" stroke-width="3" stroke-linecap="round" stroke-linejoin="round" stroke-miterlimit="10" width="236" height="161.562"/>
</g>
<path fill="#E3F2FD" stroke="#1565C0" stroke-width="3" stroke-linecap="round" stroke-linejoin="round" stroke-miterlimit="10" d="
	M252,86.438H86.894l-7.268-12.113C77.539,70.846,72.513,68,68.456,68H23.375C19.318,68,16,71.318,16,75.375v11.062v14.749v14.751
	c0,4.056,3.318,7.375,7.375,7.375h78.269c4.057,0,5.668-2.847,3.581-6.324l-9.481-15.802H252V86.438z"/>
<g>
	
		<polygon fill="#FFFFFF" stroke="#1565C0" stroke-width="3" stroke-linecap="round" stroke-linejoin="round" stroke-miterlimit="10" points="
		240,212 95.579,212 95.579,16 214.211,16 240,41.789 	"/>
	
		<polygon fill="#E3F2FD" stroke="#1565C0" stroke-width="3" stroke-linecap="round" stroke-linejoin="round" stroke-miterlimit="10" points="
		214.211,16 214.211,41.789 240,41.789 	"/>
</g>
<g>
	<rect x="16" y="101.187" fill="#FFFFFF" width="236" height="146.813"/>
	
		<rect x="16" y="101.187" fill="none" stroke="#1565C0" stroke-width="3" stroke-linecap="round" stroke-linejoin="round" stroke-miterlimit="10" width="236" height="146.813"/>
</g>
<g>
	<g>
		<path fill="#1565C0" d="M156,84v-6.286c0-2.2-1.672-4.669-3.714-5.485l-9.715-3.886c-2.042-0.817-5.514-1.509-7.714-1.537
			l-5.715-0.074c-2.2-0.028-5.666,0.632-7.701,1.467l-9.74,3.997C109.666,73.03,108,75.514,108,77.714V84"/>
		<path fill="none" stroke="#1565C0" stroke-width="3" stroke-linecap="round" stroke-linejoin="round" stroke-miterlimit="10" d="
			M156,84v-6.286c0-2.2-1.672-4.669-3.714-5.485l-9.715-3.886c-2.042-0.817-5.514-1.509-7.714-1.537l-5.715-0.074
			c-2.2-0.028-5.666,0.632-7.701,1.467l-9.74,3.997C109.666,73.03,108,75.514,108,77.714V84"/>
	</g>
	
		<rect x="125.143" y="66.857" fill="#E3F2FD" stroke="#1565C0" stroke-width="3" stroke-linecap="round" stroke-linejoin="round" stroke-miterlimit="10" width="13.715" height="17.143"/>
	<g>
		<path fill="#FFFFFF" d="M138.857,66.857c0,0,0,2.314,0,5.143s-3.086,5.143-6.857,5.143s-6.857-2.314-6.857-5.143s0-5.143,0-5.143"
			/>
		<path fill="none" stroke="#1565C0" stroke-width="3" stroke-linecap="round" stroke-linejoin="round" stroke-miterlimit="10" d="
			M138.857,66.857c0,0,0,2.314,0,5.143s-3.086,5.143-6.857,5.143s-6.857-2.314-6.857-5.143s0-5.143,0-5.143"/>
	</g>
	
		<line fill="none" stroke="#1565C0" stroke-width="3" stroke-linecap="round" stroke-linejoin="round" stroke-miterlimit="10" x1="108" y1="84" x2="156" y2="84"/>
	<g>
		<path fill="#FFFFFF" d="M145.715,58.857c0,4.4-3.6,8-8,8h-11.43c-4.4,0-8-3.6-8-8V40.571c0-4.399,3.6-8,8-8h11.43
			c4.4,0,8,3.601,8,8V58.857z"/>
		<path fill="none" stroke="#1565C0" stroke-width="3" stroke-linecap="round" stroke-linejoin="round" stroke-miterlimit="10" d="
			M145.715,58.857c0,4.4-3.6,8-8,8h-11.43c-4.4,0-8-3.6-8-8V40.571c0-4.399,3.6-8,8-8h11.43c4.4,0,8,3.601,8,8V58.857z"/>
	</g>
	<g>
		<path fill="none" stroke="#1565C0" stroke-width="3" stroke-linecap="round" stroke-linejoin="round" stroke-miterlimit="10" d="
			M135.429,32.571c0,0,0,2.314,0,5.144c0,2.828-3.601,5.143-8,5.143h-9.144"/>
	</g>
	<g>
		<path fill="none" stroke="#1565C0" stroke-width="3" stroke-linecap="round" stroke-linejoin="round" stroke-miterlimit="10" d="
			M145.715,42.857c0,0-2.314,0-5.143,0c-2.829,0-5.144-2.314-5.144-5.143c0-2.829,0-5.144,0-5.144"/>
	</g>
	<g>
		<path fill="#1565C0" d="M135.429,37.715c0-2.829,0-5.144,0-5.144h-9.144c-4.4,0-8,3.6-8,8v2.286h9.144
			C131.828,42.857,135.429,40.543,135.429,37.715z"/>
		<path fill="#1565C0" d="M137.715,32.571h-2.286c0,0,0,2.314,0,5.144c0,2.828,2.314,5.143,5.144,5.143c2.828,0,5.143,0,5.143,0
			v-2.286C145.715,36.171,142.114,32.571,137.715,32.571z"/>
	</g>
	
		<line fill="none" stroke="#1565C0" stroke-width="3" stroke-linecap="round" stroke-linejoin="round" stroke-miterlimit="10" x1="135.429" y1="59.822" x2="128.571" y2="59.822"/>
</g>
<line fill="none" stroke="#1565C0" stroke-width="3" stroke-linecap="round" stroke-linejoin="round" stroke-miterlimit="10" x1="172" y1="60" x2="216" y2="60"/>
<line fill="none" stroke="#1565C0" stroke-width="3" stroke-linecap="round" stroke-linejoin="round" stroke-miterlimit="10" x1="172" y1="76" x2="216" y2="76"/>
<line fill="none" stroke="#1565C0" stroke-width="3" stroke-linecap="round" stroke-linejoin="round" stroke-miterlimit="10" x1="172" y1="68" x2="203.429" y2="68"/>
<line fill="none" stroke="#1565C0" stroke-width="3" stroke-linecap="round" stroke-linejoin="round" stroke-miterlimit="10" x1="172" y1="84" x2="203.429" y2="84"/>
<line fill="none" stroke="#1565C0" stroke-width="3" stroke-linecap="round" stroke-linejoin="round" stroke-miterlimit="10" x1="28" y1="80" x2="60" y2="80"/>
<line fill="none" stroke="#1565C0" stroke-width="3" stroke-linecap="round" stroke-linejoin="round" stroke-miterlimit="10" x1="28" y1="88" x2="52" y2="88"/>
<polygon fill="#1565C0" stroke="#1565C0" stroke-width="3" stroke-linecap="round" stroke-linejoin="round" stroke-miterlimit="10" points="
	228,199 213,199 213,184 203,184 203,199 188,199 188,209 203,209 203,224 213,224 213,209 228,209 "/>
</svg>
