<?xml version="1.0" encoding="utf-8"?>
<!-- Generator: Adobe Illustrator 16.0.4, SVG Export Plug-In . SVG Version: 6.00 Build 0)  -->
<!DOCTYPE svg PUBLIC "-//W3C//DTD SVG 1.1//EN" "http://www.w3.org/Graphics/SVG/1.1/DTD/svg11.dtd">
<svg version="1.1" id="Layer_1" xmlns="http://www.w3.org/2000/svg" xmlns:xlink="http://www.w3.org/1999/xlink" x="0px" y="0px"
	 width="264px" height="264px" viewBox="0 0 264 264" enable-background="new 0 0 264 264" xml:space="preserve">
<g id="New_Symbol_13">
</g>
<g>
	
		<polygon fill="#FFFFFF" stroke="#1565C0" stroke-width="3" stroke-linecap="round" stroke-linejoin="round" stroke-miterlimit="10" points="
		121.818,50.545 4,50.545 4,260 148,260 148,76.728 	"/>
	
		<polygon fill="#E3F2FD" stroke="#1565C0" stroke-width="3" stroke-linecap="round" stroke-linejoin="round" stroke-miterlimit="10" points="
		121.818,50.545 121.818,76.728 148,76.728 	"/>
	
		<rect x="20.363" y="109.455" fill="#1565C0" stroke="#1565C0" stroke-width="3" stroke-linecap="round" stroke-linejoin="round" stroke-miterlimit="10" width="16.364" height="6.545"/>
	
		<rect x="20.363" y="93.091" fill="#1565C0" stroke="#1565C0" stroke-width="3" stroke-linecap="round" stroke-linejoin="round" stroke-miterlimit="10" width="45.819" height="6.546"/>
	
		<rect x="85.818" y="93.091" fill="#1565C0" stroke="#1565C0" stroke-width="3" stroke-linecap="round" stroke-linejoin="round" stroke-miterlimit="10" width="45.818" height="6.546"/>
	
		<rect x="20.363" y="174.91" fill="#1565C0" stroke="#1565C0" stroke-width="3" stroke-linecap="round" stroke-linejoin="round" stroke-miterlimit="10" width="45.819" height="6.545"/>
	
		<rect x="85.818" y="174.91" fill="#1565C0" stroke="#1565C0" stroke-width="3" stroke-linecap="round" stroke-linejoin="round" stroke-miterlimit="10" width="45.818" height="6.545"/>
	
		<line fill="none" stroke="#1565C0" stroke-width="3" stroke-linecap="round" stroke-linejoin="round" stroke-miterlimit="10" x1="43.272" y1="112.728" x2="66.183" y2="112.728"/>
	
		<line fill="none" stroke="#1565C0" stroke-width="3" stroke-linecap="round" stroke-linejoin="round" stroke-miterlimit="10" x1="20.363" y1="99.637" x2="46.545" y2="99.637"/>
	
		<rect x="85.818" y="109.455" fill="#FFFFFF" stroke="#1565C0" stroke-width="3" stroke-linecap="round" stroke-linejoin="round" stroke-miterlimit="10" width="16.364" height="6.545"/>
	
		<line fill="none" stroke="#1565C0" stroke-width="3" stroke-linecap="round" stroke-linejoin="round" stroke-miterlimit="10" x1="108.728" y1="112.728" x2="131.637" y2="112.728"/>
	
		<rect x="20.363" y="125.818" fill="#FFFFFF" stroke="#1565C0" stroke-width="3" stroke-linecap="round" stroke-linejoin="round" stroke-miterlimit="10" width="16.364" height="6.545"/>
	
		<line fill="none" stroke="#1565C0" stroke-width="3" stroke-linecap="round" stroke-linejoin="round" stroke-miterlimit="10" x1="43.272" y1="129.091" x2="66.183" y2="129.091"/>
	
		<rect x="85.818" y="125.818" fill="#1565C0" stroke="#1565C0" stroke-width="3" stroke-linecap="round" stroke-linejoin="round" stroke-miterlimit="10" width="16.364" height="6.545"/>
	
		<line fill="none" stroke="#1565C0" stroke-width="3" stroke-linecap="round" stroke-linejoin="round" stroke-miterlimit="10" x1="108.728" y1="129.091" x2="131.637" y2="129.091"/>
	
		<rect x="20.363" y="142.183" fill="#1565C0" stroke="#1565C0" stroke-width="3" stroke-linecap="round" stroke-linejoin="round" stroke-miterlimit="10" width="16.364" height="6.545"/>
	
		<line fill="none" stroke="#1565C0" stroke-width="3" stroke-linecap="round" stroke-linejoin="round" stroke-miterlimit="10" x1="43.272" y1="145.455" x2="66.183" y2="145.455"/>
	
		<rect x="85.818" y="142.183" fill="#FFFFFF" stroke="#1565C0" stroke-width="3" stroke-linecap="round" stroke-linejoin="round" stroke-miterlimit="10" width="16.364" height="6.545"/>
	
		<line fill="none" stroke="#1565C0" stroke-width="3" stroke-linecap="round" stroke-linejoin="round" stroke-miterlimit="10" x1="108.728" y1="145.455" x2="131.637" y2="145.455"/>
	
		<rect x="20.363" y="191.272" fill="#1565C0" stroke="#1565C0" stroke-width="3" stroke-linecap="round" stroke-linejoin="round" stroke-miterlimit="10" width="16.364" height="6.546"/>
	
		<line fill="none" stroke="#1565C0" stroke-width="3" stroke-linecap="round" stroke-linejoin="round" stroke-miterlimit="10" x1="43.272" y1="194.545" x2="66.183" y2="194.545"/>
	
		<line fill="none" stroke="#1565C0" stroke-width="3" stroke-linecap="round" stroke-linejoin="round" stroke-miterlimit="10" x1="20.363" y1="181.455" x2="46.545" y2="181.455"/>
	
		<rect x="85.818" y="191.272" fill="#FFFFFF" stroke="#1565C0" stroke-width="3" stroke-linecap="round" stroke-linejoin="round" stroke-miterlimit="10" width="16.364" height="6.546"/>
	
		<line fill="none" stroke="#1565C0" stroke-width="3" stroke-linecap="round" stroke-linejoin="round" stroke-miterlimit="10" x1="108.728" y1="194.545" x2="131.637" y2="194.545"/>
	
		<rect x="20.363" y="207.637" fill="#FFFFFF" stroke="#1565C0" stroke-width="3" stroke-linecap="round" stroke-linejoin="round" stroke-miterlimit="10" width="16.364" height="6.546"/>
	
		<line fill="none" stroke="#1565C0" stroke-width="3" stroke-linecap="round" stroke-linejoin="round" stroke-miterlimit="10" x1="43.272" y1="210.91" x2="66.183" y2="210.91"/>
	
		<rect x="85.818" y="207.637" fill="#1565C0" stroke="#1565C0" stroke-width="3" stroke-linecap="round" stroke-linejoin="round" stroke-miterlimit="10" width="16.364" height="6.546"/>
	
		<line fill="none" stroke="#1565C0" stroke-width="3" stroke-linecap="round" stroke-linejoin="round" stroke-miterlimit="10" x1="108.728" y1="210.91" x2="131.637" y2="210.91"/>
	
		<rect x="20.363" y="224" fill="#1565C0" stroke="#1565C0" stroke-width="3" stroke-linecap="round" stroke-linejoin="round" stroke-miterlimit="10" width="16.364" height="6.545"/>
	
		<line fill="none" stroke="#1565C0" stroke-width="3" stroke-linecap="round" stroke-linejoin="round" stroke-miterlimit="10" x1="43.272" y1="227.272" x2="66.183" y2="227.272"/>
	
		<rect x="85.818" y="224" fill="#1565C0" stroke="#1565C0" stroke-width="3" stroke-linecap="round" stroke-linejoin="round" stroke-miterlimit="10" width="16.364" height="6.545"/>
	
		<line fill="none" stroke="#1565C0" stroke-width="3" stroke-linecap="round" stroke-linejoin="round" stroke-miterlimit="10" x1="108.728" y1="227.272" x2="131.637" y2="227.272"/>
</g>
<g>
	<path fill="none" stroke="#1565C0" stroke-width="3" stroke-linecap="round" stroke-linejoin="round" stroke-miterlimit="10" d="
		M168,228h60.001c17.601,0,32-14.4,32-32v-66.04"/>
</g>
<g>
	<g>
		<path fill="#1565C0" d="M214,108c0,2.2-1.8,4-4,4l0,0c-2.2,0-4-1.8-4-4V48c0-2.2,1.8-4,4-4l0,0c2.2,0,4,1.8,4,4V108z"/>
		<path fill="none" stroke="#1565C0" stroke-width="3" stroke-linecap="round" stroke-linejoin="round" stroke-miterlimit="10" d="
			M214,108c0,2.2-1.8,4-4,4l0,0c-2.2,0-4-1.8-4-4V48c0-2.2,1.8-4,4-4l0,0c2.2,0,4,1.8,4,4V108z"/>
	</g>
	<g>
		<path fill="#1565C0" d="M240,73.5c2.2,0,4,1.8,4,4l0,0c0,2.2-1.8,4-4,4h-60c-2.2,0-4-1.8-4-4l0,0c0-2.2,1.8-4,4-4H240z"/>
		<path fill="none" stroke="#1565C0" stroke-width="3" stroke-linecap="round" stroke-linejoin="round" stroke-miterlimit="10" d="
			M240,73.5c2.2,0,4,1.8,4,4l0,0c0,2.2-1.8,4-4,4h-60c-2.2,0-4-1.8-4-4l0,0c0-2.2,1.8-4,4-4H240z"/>
	</g>
</g>
</svg>
