<?xml version="1.0" encoding="utf-8"?>
<!-- Generator: Adobe Illustrator 16.0.4, SVG Export Plug-In . SVG Version: 6.00 Build 0)  -->
<!DOCTYPE svg PUBLIC "-//W3C//DTD SVG 1.1//EN" "http://www.w3.org/Graphics/SVG/1.1/DTD/svg11.dtd">
<svg version="1.1" id="Layer_1" xmlns="http://www.w3.org/2000/svg" xmlns:xlink="http://www.w3.org/1999/xlink" x="0px" y="0px"
	 width="264px" height="264px" viewBox="0 0 264 264" enable-background="new 0 0 264 264" xml:space="preserve">
<g id="New_Symbol_13">
</g>
<g>
	<g>
		<path fill="none" stroke="#1565C0" stroke-width="10" stroke-linecap="round" stroke-linejoin="round" stroke-miterlimit="10" d="
			M92,41.997c0,24.854,11.983,36.353,34.994,45C151.103,94.001,172,107.146,172,132s-21.342,38.284-45.003,45.003
			c-21.81,7.521-34.997,20.149-34.997,45"/>
		<path fill="none" stroke="#1565C0" stroke-width="10" stroke-linecap="round" stroke-linejoin="round" stroke-miterlimit="10" d="
			M172,222.003c0-24.851-11.986-36.353-34.994-45C112.894,169.999,92,156.854,92,132s21.342-38.284,45-45.003
			c21.811-7.52,35-20.146,35-45"/>
	</g>
	
		<line fill="none" stroke="#1565C0" stroke-width="3" stroke-linecap="round" stroke-linejoin="round" stroke-miterlimit="10" x1="106.266" y1="42.467" x2="157.605" y2="42.467"/>
	
		<line fill="none" stroke="#1565C0" stroke-width="3" stroke-linecap="round" stroke-linejoin="round" stroke-miterlimit="10" x1="115.481" y1="60.18" x2="148.387" y2="60.18"/>
	
		<line fill="none" stroke="#1565C0" stroke-width="3" stroke-linecap="round" stroke-linejoin="round" stroke-miterlimit="10" x1="157.605" y1="221.729" x2="106.266" y2="221.729"/>
	
		<line fill="none" stroke="#1565C0" stroke-width="3" stroke-linecap="round" stroke-linejoin="round" stroke-miterlimit="10" x1="148.387" y1="204.016" x2="115.481" y2="204.016"/>
	<g>
		
			<line fill="none" stroke="#1565C0" stroke-width="3" stroke-linecap="round" stroke-linejoin="round" stroke-miterlimit="10" x1="106.329" y1="131.24" x2="157.667" y2="131.24"/>
		
			<line fill="none" stroke="#1565C0" stroke-width="3" stroke-linecap="round" stroke-linejoin="round" stroke-miterlimit="10" x1="115.55" y1="148.955" x2="148.45" y2="148.955"/>
		
			<line fill="none" stroke="#1565C0" stroke-width="3" stroke-linecap="round" stroke-linejoin="round" stroke-miterlimit="10" x1="115.55" y1="115.049" x2="148.45" y2="115.049"/>
	</g>
</g>
</svg>
