<?xml version="1.0" encoding="utf-8"?>
<!-- Generator: Adobe Illustrator 16.0.4, SVG Export Plug-In . SVG Version: 6.00 Build 0)  -->
<!DOCTYPE svg PUBLIC "-//W3C//DTD SVG 1.1//EN" "http://www.w3.org/Graphics/SVG/1.1/DTD/svg11.dtd">
<svg version="1.1" id="Layer_1" xmlns="http://www.w3.org/2000/svg" xmlns:xlink="http://www.w3.org/1999/xlink" x="0px" y="0px"
	 width="264px" height="264px" viewBox="0 0 264 264" enable-background="new 0 0 264 264" xml:space="preserve">
<g id="New_Symbol_13">
</g>
<g>
	
		<circle fill="#E3F2FD" stroke="#1565C0" stroke-width="3" stroke-linecap="round" stroke-linejoin="round" stroke-miterlimit="10" cx="132" cy="132" r="96"/>
	
		<line fill="none" stroke="#1565C0" stroke-width="3" stroke-linecap="round" stroke-linejoin="round" stroke-miterlimit="10" x1="62.609" y1="132" x2="48" y2="132"/>
	<g>
		
			<line fill="none" stroke="#1565C0" stroke-width="3" stroke-linecap="round" stroke-linejoin="round" stroke-miterlimit="10" x1="67.892" y1="105.445" x2="54.395" y2="99.854"/>
	</g>
	<g>
		
			<line fill="none" stroke="#1565C0" stroke-width="3" stroke-linecap="round" stroke-linejoin="round" stroke-miterlimit="10" x1="82.934" y1="82.933" x2="72.604" y2="72.603"/>
	</g>
	<g>
		
			<line fill="none" stroke="#1565C0" stroke-width="3" stroke-linecap="round" stroke-linejoin="round" stroke-miterlimit="10" x1="105.446" y1="67.891" x2="99.854" y2="54.394"/>
	</g>
	<g>
		
			<line fill="none" stroke="#1565C0" stroke-width="3" stroke-linecap="round" stroke-linejoin="round" stroke-miterlimit="10" x1="132.001" y1="62.608" x2="132" y2="47.999"/>
	</g>
	<g>
		
			<line fill="none" stroke="#1565C0" stroke-width="3" stroke-linecap="round" stroke-linejoin="round" stroke-miterlimit="10" x1="158.556" y1="67.891" x2="164.146" y2="54.394"/>
	</g>
	<g>
		
			<line fill="none" stroke="#1565C0" stroke-width="3" stroke-linecap="round" stroke-linejoin="round" stroke-miterlimit="10" x1="181.068" y1="82.933" x2="191.397" y2="72.602"/>
	</g>
	<g>
		
			<line fill="none" stroke="#1565C0" stroke-width="3" stroke-linecap="round" stroke-linejoin="round" stroke-miterlimit="10" x1="196.11" y1="105.445" x2="209.607" y2="99.854"/>
	</g>
	<g>
		
			<line fill="none" stroke="#1565C0" stroke-width="3" stroke-linecap="round" stroke-linejoin="round" stroke-miterlimit="10" x1="201.393" y1="132" x2="216.002" y2="131.999"/>
	</g>
	
		<path fill="#1565C0" stroke="#1565C0" stroke-width="3" stroke-linecap="round" stroke-linejoin="round" stroke-miterlimit="10" d="
		M170.002,93.999l-47.376,32.55c-3.602,3.604-3.204,9.841,0.892,13.935c4.093,4.094,10.331,4.492,13.934,0.892L170.002,93.999z"/>
	<g>
		
			<path fill="#FFFFFF" stroke="#1565C0" stroke-width="3" stroke-linecap="round" stroke-linejoin="round" stroke-miterlimit="10" d="
			M144,131.997c0.003,6.629-5.367,12.004-11.998,11.998c-6.628,0.003-12.001-5.369-11.998-11.992c0-6.633,5.37-12.004,11.998-12.004
			C138.633,119.996,144,125.37,144,131.997z"/>
	</g>
	<g>
		
			<line fill="none" stroke="#1565C0" stroke-width="3" stroke-linecap="round" stroke-linejoin="round" stroke-miterlimit="10" x1="196.11" y1="158.554" x2="209.607" y2="164.145"/>
	</g>
	<g>
		
			<line fill="none" stroke="#1565C0" stroke-width="3" stroke-linecap="round" stroke-linejoin="round" stroke-miterlimit="10" x1="67.892" y1="158.554" x2="54.395" y2="164.146"/>
	</g>
</g>
</svg>
