<?xml version="1.0" encoding="utf-8"?>
<!-- Generator: Adobe Illustrator 16.0.4, SVG Export Plug-In . SVG Version: 6.00 Build 0)  -->
<!DOCTYPE svg PUBLIC "-//W3C//DTD SVG 1.1//EN" "http://www.w3.org/Graphics/SVG/1.1/DTD/svg11.dtd">
<svg version="1.1" id="Layer_1" xmlns="http://www.w3.org/2000/svg" xmlns:xlink="http://www.w3.org/1999/xlink" x="0px" y="0px"
	 width="264px" height="264px" viewBox="0 0 264 264" enable-background="new 0 0 264 264" xml:space="preserve">
<g id="New_Symbol_13">
</g>
<path fill="none" stroke="#1565C0" stroke-width="3" stroke-linecap="round" stroke-linejoin="round" stroke-miterlimit="10" d="
	M36,176V47.379C36,36.676,44.676,28.003,55.378,28"/>
<g>
	
		<polygon fill="#E3F2FD" stroke="#1565C0" stroke-width="3" stroke-linecap="round" stroke-linejoin="round" stroke-miterlimit="10" points="
		188,156 76,156 76,4 168,4 188,24 	"/>
	
		<polygon fill="#E3F2FD" stroke="#1565C0" stroke-width="3" stroke-linecap="round" stroke-linejoin="round" stroke-miterlimit="10" points="
		168,4 168,24 188,24 	"/>
</g>
<g>
	
		<polygon fill="#E3F2FD" stroke="#1565C0" stroke-width="3" stroke-linecap="round" stroke-linejoin="round" stroke-miterlimit="10" points="
		224,208 112,208 112,56 204,56 224,76 	"/>
	
		<polygon fill="#E3F2FD" stroke="#1565C0" stroke-width="3" stroke-linecap="round" stroke-linejoin="round" stroke-miterlimit="10" points="
		204,56 204,76 224,76 	"/>
</g>
<path fill="#1565C0" stroke="#1565C0" stroke-width="3" stroke-linecap="round" stroke-linejoin="round" stroke-miterlimit="10" d="
	M49.83,228.351c0,7.441-6.037,13.478-13.479,13.478c-7.444,0-13.479-6.036-13.479-13.478c0-7.444,6.035-13.48,13.479-13.48
	C43.793,214.87,49.83,220.906,49.83,228.351z M68.701,234.726V221.97h-8.373l-2.495-6.082l5.905-5.903l-9.023-9.021l-5.92,5.923
	l-6.066-2.535V196H29.973v8.374l-6.083,2.494l-5.905-5.904l-9.019,9.021l5.923,5.923l-2.538,6.062H4v12.756h8.374l2.495,6.086
	l-5.903,5.905l9.019,9.02l5.924-5.925l6.064,2.535v8.354h12.756v-8.375l6.083-2.497l5.903,5.908l9.023-9.02l-5.924-5.924
	l2.536-6.067H68.701z"/>
<polygon fill="#FFFFFF" stroke="#1565C0" stroke-width="3" stroke-linecap="round" stroke-linejoin="round" stroke-miterlimit="10" points="
	260,260 148,260 148,108 240,108 260,128 "/>
<polygon fill="#E3F2FD" stroke="#1565C0" stroke-width="3" stroke-linecap="round" stroke-linejoin="round" stroke-miterlimit="10" points="
	240,108 240,128 260,128 "/>
<g>
	<g>
		
			<line fill="#FFFFFF" stroke="#1565C0" stroke-width="3" stroke-linecap="round" stroke-linejoin="round" stroke-miterlimit="10" x1="225.844" y1="155.604" x2="163.602" y2="155.604"/>
		
			<line fill="#FFFFFF" stroke="#1565C0" stroke-width="3" stroke-linecap="round" stroke-linejoin="round" stroke-miterlimit="10" x1="225.844" y1="171.604" x2="163.602" y2="171.604"/>
		
			<line fill="#FFFFFF" stroke="#1565C0" stroke-width="3" stroke-linecap="round" stroke-linejoin="round" stroke-miterlimit="10" x1="225.844" y1="139.604" x2="163.602" y2="139.604"/>
		
			<line fill="#FFFFFF" stroke="#1565C0" stroke-width="3" stroke-linecap="round" stroke-linejoin="round" stroke-miterlimit="10" x1="217.844" y1="147.448" x2="163.602" y2="147.448"/>
		
			<line fill="#FFFFFF" stroke="#1565C0" stroke-width="3" stroke-linecap="round" stroke-linejoin="round" stroke-miterlimit="10" x1="220" y1="163.749" x2="163.602" y2="163.749"/>
		
			<line fill="#FFFFFF" stroke="#1565C0" stroke-width="3" stroke-linecap="round" stroke-linejoin="round" stroke-miterlimit="10" x1="217.844" y1="179.372" x2="163.602" y2="179.372"/>
	</g>
	<g>
		<g>
			
				<polyline fill="#FFFFFF" stroke="#1565C0" stroke-width="3" stroke-linecap="round" stroke-linejoin="round" stroke-miterlimit="10" points="
				244,239.604 212,239.604 212,203.604 			"/>
			
				<line fill="none" stroke="#1565C0" stroke-width="3" stroke-linecap="round" stroke-linejoin="round" stroke-miterlimit="10" x1="220" y1="239.604" x2="220" y2="223.604"/>
			
				<line fill="none" stroke="#1565C0" stroke-width="3" stroke-linecap="round" stroke-linejoin="round" stroke-miterlimit="10" x1="228" y1="239.604" x2="228" y2="215.604"/>
			
				<line fill="none" stroke="#1565C0" stroke-width="3" stroke-linecap="round" stroke-linejoin="round" stroke-miterlimit="10" x1="236" y1="239.604" x2="236" y2="227.604"/>
			
				<line fill="none" stroke="#1565C0" stroke-width="3" stroke-linecap="round" stroke-linejoin="round" stroke-miterlimit="10" x1="244" y1="239.604" x2="244" y2="211.604"/>
		</g>
		<g>
			
				<path fill="#FFFFFF" stroke="#1565C0" stroke-width="3" stroke-linecap="round" stroke-linejoin="round" stroke-miterlimit="10" d="
				M182.029,222.066h-0.085l12.661,12.661c3.266-3.241,5.311-7.712,5.381-12.661H182.029z"/>
			
				<path fill="#E3F2FD" stroke="#1565C0" stroke-width="3" stroke-linecap="round" stroke-linejoin="round" stroke-miterlimit="10" d="
				M163.619,222.066c0.143,9.929,8.225,17.934,18.184,17.934c4.996,0,9.518-2.015,12.803-5.272l-12.661-12.661H163.619z"/>
			
				<path fill="#E3F2FD" stroke="#1565C0" stroke-width="3" stroke-linecap="round" stroke-linejoin="round" stroke-miterlimit="10" d="
				M200,221.803c0-9.973-8.025-18.063-17.971-18.186v18.449h17.957C199.988,221.977,200,221.894,200,221.803z"/>
			
				<path fill="#1565C0" stroke="#1565C0" stroke-width="3" stroke-linecap="round" stroke-linejoin="round" stroke-miterlimit="10" d="
				M181.803,203.604c-10.049,0-18.197,8.148-18.197,18.198c0,0.091,0.012,0.174,0.014,0.264h18.41v-18.449
				C181.953,203.615,181.877,203.604,181.803,203.604z"/>
		</g>
	</g>
</g>
</svg>
