<?xml version="1.0" encoding="utf-8"?>
<!-- Generator: Adobe Illustrator 16.0.4, SVG Export Plug-In . SVG Version: 6.00 Build 0)  -->
<!DOCTYPE svg PUBLIC "-//W3C//DTD SVG 1.1//EN" "http://www.w3.org/Graphics/SVG/1.1/DTD/svg11.dtd">
<svg version="1.1" id="Layer_1" xmlns="http://www.w3.org/2000/svg" xmlns:xlink="http://www.w3.org/1999/xlink" x="0px" y="0px"
	 width="264px" height="264px" viewBox="0 0 264 264" enable-background="new 0 0 264 264" xml:space="preserve">
<g>
	
		<polygon fill="#FFFFFF" stroke="#1565C0" stroke-width="3" stroke-linecap="round" stroke-linejoin="round" stroke-miterlimit="10" points="
		121.818,50.545 4,50.545 4,260 148,260 148,76.728 	"/>
	
		<polygon fill="#E3F2FD" stroke="#1565C0" stroke-width="3" stroke-linecap="round" stroke-linejoin="round" stroke-miterlimit="10" points="
		121.818,50.545 121.818,76.728 148,76.728 	"/>
	<g>
		<path fill="none" stroke="#1565C0" stroke-width="3" stroke-linecap="round" stroke-linejoin="round" stroke-miterlimit="10" d="
			M168,228h60.001c17.601,0,32-14.4,32-32v-66.04"/>
	</g>
	<g>
		<g>
			<g>
				
					<polygon fill="#E3F2FD" stroke="#1565C0" stroke-width="3" stroke-linecap="round" stroke-linejoin="round" stroke-miterlimit="10" points="
					176.679,32.105 176.679,70.143 240.075,70.143 240.075,49.92 222.26,32.105 				"/>
			</g>
			
				<polygon fill="#FFFFFF" stroke="#1565C0" stroke-width="3" stroke-linecap="round" stroke-linejoin="round" stroke-miterlimit="10" points="
				240.075,49.92 222.26,49.92 222.26,32.105 			"/>
			
				<polygon fill="#FFFFFF" stroke="#1565C0" stroke-width="3" stroke-linecap="round" stroke-linejoin="round" stroke-miterlimit="10" points="
				240.075,49.92 222.26,49.92 222.26,32.105 			"/>
			
				<polygon fill="#FFFFFF" stroke="#1565C0" stroke-width="3" stroke-linecap="round" stroke-linejoin="round" stroke-miterlimit="10" points="
				240.075,49.92 222.26,49.92 222.26,32.105 			"/>
			
				<polygon fill="#E3F2FD" stroke="#1565C0" stroke-width="3" stroke-linecap="round" stroke-linejoin="round" stroke-miterlimit="10" points="
				240.075,49.92 222.26,49.92 222.26,32.105 			"/>
		</g>
		
			<line fill="#1565C0" stroke="#FFFFFF" stroke-width="3" stroke-linecap="round" stroke-linejoin="round" stroke-miterlimit="10" x1="171.153" y1="65.041" x2="232.023" y2="65.041"/>
		<g>
			
				<path fill="#1565C0" stroke="#1565C0" stroke-width="3" stroke-linecap="round" stroke-linejoin="round" stroke-miterlimit="10" d="
				M164,74.333v44.198h88.754V74.336c0,0,0-9.297-9.294-9.297l-70.166,0.002C164,65.041,164,74.333,164,74.333z"/>
			<path fill="#E3F2FD" d="M243.46,78.703c0,2.418-1.962,4.371-4.372,4.371l0,0c-2.413,0-4.371-1.953-4.371-4.371l0,0
				c0-2.408,1.958-4.37,4.371-4.37l0,0C241.498,74.333,243.46,76.295,243.46,78.703L243.46,78.703z"/>
			<g>
				<g>
					<path fill="#E3F2FD" d="M173.294,109.237L173.294,109.237c0,0,0-9.671,9.296-9.671h51.574c0,0,9.296,0.376,9.296,9.671l0,0
						H173.294z"/>
				</g>
			</g>
		</g>
	</g>
</g>
<g id="New_Symbol_13">
</g>
<g>
	<g>
		<path fill="#1565C0" d="M78.457,139.843c5.457,0,10.829,2.515,10.829,8.526c0,5.541-6.352,7.676-7.715,9.677
			c-1.024,1.491-0.682,3.579-3.496,3.579c-1.831,0-2.729-1.49-2.729-2.853c0-5.076,7.461-6.228,7.461-10.403
			c0-2.303-1.535-3.667-4.09-3.667c-5.459,0-3.328,5.629-7.461,5.629c-1.493,0-2.773-0.897-2.773-2.603
			C68.483,143.551,73.259,139.843,78.457,139.843z M78.243,164.396c1.921,0,3.5,1.576,3.5,3.496c0,1.917-1.579,3.496-3.5,3.496
			c-1.915,0-3.495-1.579-3.495-3.496C74.748,165.973,76.328,164.396,78.243,164.396z"/>
	</g>
</g>
<g>
	<g>
		<line fill="#FFFFFF" x1="6.298" y1="121.273" x2="144.828" y2="121.273"/>
		<g>
			
				<line fill="none" stroke="#1565C0" stroke-width="3" stroke-linecap="round" stroke-linejoin="round" x1="6.298" y1="121.273" x2="9.298" y2="121.273"/>
			
				<line fill="none" stroke="#1565C0" stroke-width="3" stroke-linecap="round" stroke-linejoin="round" stroke-dasharray="5.9342,7.9123" x1="17.21" y1="121.273" x2="137.872" y2="121.273"/>
			
				<line fill="none" stroke="#1565C0" stroke-width="3" stroke-linecap="round" stroke-linejoin="round" x1="141.828" y1="121.273" x2="144.828" y2="121.273"/>
		</g>
	</g>
	<g>
		<line fill="#FFFFFF" x1="6.298" y1="191.698" x2="144.828" y2="191.698"/>
		<g>
			
				<line fill="none" stroke="#1565C0" stroke-width="3" stroke-linecap="round" stroke-linejoin="round" x1="6.298" y1="191.698" x2="9.298" y2="191.698"/>
			
				<line fill="none" stroke="#1565C0" stroke-width="3" stroke-linecap="round" stroke-linejoin="round" stroke-dasharray="5.9342,7.9123" x1="17.21" y1="191.698" x2="137.872" y2="191.698"/>
			
				<line fill="none" stroke="#1565C0" stroke-width="3" stroke-linecap="round" stroke-linejoin="round" x1="141.828" y1="191.698" x2="144.828" y2="191.698"/>
		</g>
	</g>
	<g>
		<g>
			
				<line fill="#FFFFFF" stroke="#1565C0" stroke-width="3" stroke-linecap="round" stroke-linejoin="round" stroke-miterlimit="10" x1="101.872" y1="101.152" x2="69.372" y2="101.152"/>
			
				<line fill="#FFFFFF" stroke="#1565C0" stroke-width="3" stroke-linecap="round" stroke-linejoin="round" stroke-miterlimit="10" x1="101.872" y1="81.03" x2="69.372" y2="81.03"/>
			
				<line fill="#FFFFFF" stroke="#1565C0" stroke-width="3" stroke-linecap="round" stroke-linejoin="round" stroke-miterlimit="10" x1="91.812" y1="91.092" x2="69.372" y2="91.092"/>
		</g>
		<g>
			
				<path fill="#FFFFFF" stroke="#1565C0" stroke-width="3" stroke-linecap="round" stroke-linejoin="round" stroke-miterlimit="10" d="
				M39.281,91.215h-0.068l10.434,10.433c2.691-2.669,4.376-6.354,4.433-10.433H39.281z"/>
			
				<path fill="#E3F2FD" stroke="#1565C0" stroke-width="3" stroke-linecap="round" stroke-linejoin="round" stroke-miterlimit="10" d="
				M24.111,91.215c0.117,8.181,6.777,14.778,14.986,14.778c4.116,0,7.842-1.661,10.549-4.346L39.213,91.215H24.111z"/>
			
				<path fill="#E3F2FD" stroke="#1565C0" stroke-width="3" stroke-linecap="round" stroke-linejoin="round" stroke-miterlimit="10" d="
				M54.092,90.998c0-8.219-6.615-14.887-14.811-14.988v15.205h14.798C54.082,91.141,54.092,91.072,54.092,90.998z"/>
			
				<path fill="#1565C0" stroke="#1565C0" stroke-width="3" stroke-linecap="round" stroke-linejoin="round" stroke-miterlimit="10" d="
				M39.098,76C30.815,76,24.1,82.715,24.1,90.998c0,0.074,0.012,0.143,0.012,0.217h15.17V76.01C39.219,76.01,39.156,76,39.098,76z"
				/>
		</g>
	</g>
	<g>
		<g>
			
				<line fill="#FFFFFF" stroke="#1565C0" stroke-width="3" stroke-linecap="round" stroke-linejoin="round" stroke-miterlimit="10" x1="101.872" y1="231.941" x2="69.372" y2="231.941"/>
			
				<line fill="#FFFFFF" stroke="#1565C0" stroke-width="3" stroke-linecap="round" stroke-linejoin="round" stroke-miterlimit="10" x1="101.872" y1="211.82" x2="69.372" y2="211.82"/>
			
				<line fill="#FFFFFF" stroke="#1565C0" stroke-width="3" stroke-linecap="round" stroke-linejoin="round" stroke-miterlimit="10" x1="91.812" y1="221.88" x2="69.372" y2="221.88"/>
		</g>
		<g>
			
				<path fill="#FFFFFF" stroke="#1565C0" stroke-width="3" stroke-linecap="round" stroke-linejoin="round" stroke-miterlimit="10" d="
				M39.281,222.003h-0.068l10.434,10.435c2.691-2.67,4.376-6.355,4.433-10.435H39.281z"/>
			
				<path fill="#E3F2FD" stroke="#1565C0" stroke-width="3" stroke-linecap="round" stroke-linejoin="round" stroke-miterlimit="10" d="
				M24.111,222.003c0.117,8.182,6.777,14.778,14.986,14.778c4.116,0,7.842-1.661,10.549-4.344l-10.434-10.435H24.111z"/>
			
				<path fill="#E3F2FD" stroke="#1565C0" stroke-width="3" stroke-linecap="round" stroke-linejoin="round" stroke-miterlimit="10" d="
				M54.092,221.786c0-8.218-6.615-14.887-14.811-14.987v15.204h14.798C54.082,221.929,54.092,221.86,54.092,221.786z"/>
			
				<path fill="#1565C0" stroke="#1565C0" stroke-width="3" stroke-linecap="round" stroke-linejoin="round" stroke-miterlimit="10" d="
				M39.098,206.789c-8.282,0-14.998,6.715-14.998,14.997c0,0.074,0.012,0.143,0.012,0.217h15.17v-15.204
				C39.219,206.799,39.156,206.789,39.098,206.789z"/>
		</g>
	</g>
</g>
</svg>
