<?xml version="1.0" encoding="utf-8"?>
<!-- Generator: Adobe Illustrator 16.0.4, SVG Export Plug-In . SVG Version: 6.00 Build 0)  -->
<!DOCTYPE svg PUBLIC "-//W3C//DTD SVG 1.1//EN" "http://www.w3.org/Graphics/SVG/1.1/DTD/svg11.dtd">
<svg version="1.1" id="Layer_1" xmlns="http://www.w3.org/2000/svg" xmlns:xlink="http://www.w3.org/1999/xlink" x="0px" y="0px"
	 width="264px" height="264px" viewBox="0 0 264 264" enable-background="new 0 0 264 264" xml:space="preserve">
<g id="New_Symbol_13">
</g>
<path fill="none" stroke="#1565C0" stroke-width="3" stroke-linecap="round" stroke-linejoin="round" stroke-miterlimit="10" d="
	M33.351,176V47.379c0-10.703,8.676-19.376,19.378-19.379"/>
<g>
	<g>
		<g>
			
				<polygon fill="#FFFFFF" stroke="#1565C0" stroke-width="3" stroke-linecap="round" stroke-linejoin="round" stroke-miterlimit="10" points="
				16,189.469 16,213.469 56,213.469 56,200.709 44.76,189.469 			"/>
		</g>
		
			<polygon fill="#FFFFFF" stroke="#1565C0" stroke-width="3" stroke-linecap="round" stroke-linejoin="round" stroke-miterlimit="10" points="
			56,200.709 44.76,200.709 44.76,189.469 		"/>
		
			<polygon fill="#FFFFFF" stroke="#1565C0" stroke-width="3" stroke-linecap="round" stroke-linejoin="round" stroke-miterlimit="10" points="
			56,200.709 44.76,200.709 44.76,189.469 		"/>
		
			<polygon fill="#FFFFFF" stroke="#1565C0" stroke-width="3" stroke-linecap="round" stroke-linejoin="round" stroke-miterlimit="10" points="
			56,200.709 44.76,200.709 44.76,189.469 		"/>
		
			<polygon fill="#FFFFFF" stroke="#1565C0" stroke-width="3" stroke-linecap="round" stroke-linejoin="round" stroke-miterlimit="10" points="
			56,200.709 44.76,200.709 44.76,189.469 		"/>
	</g>
	
		<line fill="#1565C0" stroke="#FFFFFF" stroke-width="3" stroke-linecap="round" stroke-linejoin="round" stroke-miterlimit="10" x1="12.514" y1="210.25" x2="50.92" y2="210.25"/>
	<g>
		
			<path fill="#1565C0" stroke="#1565C0" stroke-width="3" stroke-linecap="round" stroke-linejoin="round" stroke-miterlimit="10" d="
			M8,216.113V244h56v-27.885c0,0,0-5.866-5.864-5.866l-44.271,0.001C8,210.25,8,216.113,8,216.113z"/>
		<path fill="#FFFFFF" d="M58.136,218.87c0,1.525-1.237,2.758-2.759,2.758l0,0c-1.522,0-2.758-1.232-2.758-2.758l0,0
			c0-1.52,1.235-2.757,2.758-2.757l0,0C56.898,216.113,58.136,217.351,58.136,218.87L58.136,218.87z"/>
		<g>
			<g>
				<path fill="#FFFFFF" d="M13.864,238.136L13.864,238.136c0,0,0-6.102,5.865-6.102h32.541c0,0,5.865,0.237,5.865,6.102l0,0H13.864
					z"/>
			</g>
		</g>
	</g>
</g>
<g>
	<g>
		
			<polygon fill="#E3F2FD" stroke="#1565C0" stroke-width="3" stroke-linecap="round" stroke-linejoin="round" stroke-miterlimit="10" points="
			185.351,156 73.351,156 73.351,4 165.351,4 185.351,24 		"/>
		<g>
			<g>
				
					<line fill="#FFFFFF" stroke="#1565C0" stroke-width="3" stroke-linecap="round" stroke-linejoin="round" stroke-miterlimit="10" x1="151.194" y1="48.232" x2="88.952" y2="48.232"/>
				
					<line fill="#FFFFFF" stroke="#1565C0" stroke-width="3" stroke-linecap="round" stroke-linejoin="round" stroke-miterlimit="10" x1="151.194" y1="64.232" x2="88.952" y2="64.232"/>
				
					<line fill="#FFFFFF" stroke="#1565C0" stroke-width="3" stroke-linecap="round" stroke-linejoin="round" stroke-miterlimit="10" x1="151.194" y1="32.232" x2="88.952" y2="32.232"/>
				
					<line fill="#FFFFFF" stroke="#1565C0" stroke-width="3" stroke-linecap="round" stroke-linejoin="round" stroke-miterlimit="10" x1="143.194" y1="40.076" x2="88.952" y2="40.076"/>
				
					<line fill="#FFFFFF" stroke="#1565C0" stroke-width="3" stroke-linecap="round" stroke-linejoin="round" stroke-miterlimit="10" x1="145.351" y1="56.377" x2="88.952" y2="56.377"/>
				
					<line fill="#FFFFFF" stroke="#1565C0" stroke-width="3" stroke-linecap="round" stroke-linejoin="round" stroke-miterlimit="10" x1="143.194" y1="72" x2="88.952" y2="72"/>
			</g>
			<g>
				<g>
					
						<polyline fill="#FFFFFF" stroke="#1565C0" stroke-width="3" stroke-linecap="round" stroke-linejoin="round" stroke-miterlimit="10" points="
						169.351,135.604 137.351,135.604 137.351,99.604 					"/>
					
						<line fill="none" stroke="#1565C0" stroke-width="3" stroke-linecap="round" stroke-linejoin="round" stroke-miterlimit="10" x1="145.351" y1="135.604" x2="145.351" y2="119.604"/>
					
						<line fill="none" stroke="#1565C0" stroke-width="3" stroke-linecap="round" stroke-linejoin="round" stroke-miterlimit="10" x1="153.351" y1="135.604" x2="153.351" y2="111.604"/>
					
						<line fill="none" stroke="#1565C0" stroke-width="3" stroke-linecap="round" stroke-linejoin="round" stroke-miterlimit="10" x1="161.351" y1="135.604" x2="161.351" y2="123.604"/>
					
						<line fill="none" stroke="#1565C0" stroke-width="3" stroke-linecap="round" stroke-linejoin="round" stroke-miterlimit="10" x1="169.351" y1="135.604" x2="169.351" y2="107.604"/>
				</g>
				<g>
					
						<path fill="#FFFFFF" stroke="#1565C0" stroke-width="3" stroke-linecap="round" stroke-linejoin="round" stroke-miterlimit="10" d="
						M107.38,118.066h-0.085l12.661,12.661c3.266-3.241,5.311-7.712,5.381-12.661H107.38z"/>
					
						<path fill="#E3F2FD" stroke="#1565C0" stroke-width="3" stroke-linecap="round" stroke-linejoin="round" stroke-miterlimit="10" d="
						M88.97,118.066C89.112,127.995,97.194,136,107.153,136c4.996,0,9.518-2.015,12.803-5.272l-12.661-12.661H88.97z"/>
					
						<path fill="#E3F2FD" stroke="#1565C0" stroke-width="3" stroke-linecap="round" stroke-linejoin="round" stroke-miterlimit="10" d="
						M125.351,117.803c0-9.973-8.025-18.063-17.971-18.186v18.449h17.957C125.339,117.977,125.351,117.894,125.351,117.803z"/>
					
						<path fill="#1565C0" stroke="#1565C0" stroke-width="3" stroke-linecap="round" stroke-linejoin="round" stroke-miterlimit="10" d="
						M107.153,99.604c-10.049,0-18.197,8.148-18.197,18.198c0,0.091,0.012,0.174,0.014,0.264h18.41V99.617
						C107.304,99.615,107.228,99.604,107.153,99.604z"/>
				</g>
			</g>
		</g>
	</g>
	
		<polygon fill="#E3F2FD" stroke="#1565C0" stroke-width="3" stroke-linecap="round" stroke-linejoin="round" stroke-miterlimit="10" points="
		165.351,4 165.351,24 185.351,24 	"/>
</g>
<g>
	<g>
		
			<polygon fill="#E3F2FD" stroke="#1565C0" stroke-width="3" stroke-linecap="round" stroke-linejoin="round" stroke-miterlimit="10" points="
			220,208 108,208 108,56 200,56 220,76 		"/>
		<g>
			<g>
				
					<line fill="#FFFFFF" stroke="#1565C0" stroke-width="3" stroke-linecap="round" stroke-linejoin="round" stroke-miterlimit="10" x1="185.844" y1="100.232" x2="123.602" y2="100.232"/>
				
					<line fill="#FFFFFF" stroke="#1565C0" stroke-width="3" stroke-linecap="round" stroke-linejoin="round" stroke-miterlimit="10" x1="185.844" y1="116.232" x2="123.602" y2="116.232"/>
				
					<line fill="#FFFFFF" stroke="#1565C0" stroke-width="3" stroke-linecap="round" stroke-linejoin="round" stroke-miterlimit="10" x1="185.844" y1="84.232" x2="123.602" y2="84.232"/>
				
					<line fill="#FFFFFF" stroke="#1565C0" stroke-width="3" stroke-linecap="round" stroke-linejoin="round" stroke-miterlimit="10" x1="177.844" y1="92.076" x2="123.602" y2="92.076"/>
				
					<line fill="#FFFFFF" stroke="#1565C0" stroke-width="3" stroke-linecap="round" stroke-linejoin="round" stroke-miterlimit="10" x1="180" y1="108.377" x2="123.602" y2="108.377"/>
				
					<line fill="#FFFFFF" stroke="#1565C0" stroke-width="3" stroke-linecap="round" stroke-linejoin="round" stroke-miterlimit="10" x1="177.844" y1="124" x2="123.602" y2="124"/>
			</g>
			<g>
				<g>
					
						<polyline fill="#FFFFFF" stroke="#1565C0" stroke-width="3" stroke-linecap="round" stroke-linejoin="round" stroke-miterlimit="10" points="
						204,187.604 172,187.604 172,151.604 					"/>
					
						<line fill="none" stroke="#1565C0" stroke-width="3" stroke-linecap="round" stroke-linejoin="round" stroke-miterlimit="10" x1="180" y1="187.604" x2="180" y2="171.604"/>
					
						<line fill="none" stroke="#1565C0" stroke-width="3" stroke-linecap="round" stroke-linejoin="round" stroke-miterlimit="10" x1="188" y1="187.604" x2="188" y2="163.604"/>
					
						<line fill="none" stroke="#1565C0" stroke-width="3" stroke-linecap="round" stroke-linejoin="round" stroke-miterlimit="10" x1="196" y1="187.604" x2="196" y2="175.604"/>
					
						<line fill="none" stroke="#1565C0" stroke-width="3" stroke-linecap="round" stroke-linejoin="round" stroke-miterlimit="10" x1="204" y1="187.604" x2="204" y2="159.604"/>
				</g>
				<g>
					
						<path fill="#FFFFFF" stroke="#1565C0" stroke-width="3" stroke-linecap="round" stroke-linejoin="round" stroke-miterlimit="10" d="
						M142.029,170.066h-0.085l12.661,12.661c3.266-3.241,5.311-7.712,5.381-12.661H142.029z"/>
					
						<path fill="#E3F2FD" stroke="#1565C0" stroke-width="3" stroke-linecap="round" stroke-linejoin="round" stroke-miterlimit="10" d="
						M123.619,170.066c0.143,9.929,8.225,17.934,18.184,17.934c4.996,0,9.518-2.015,12.803-5.272l-12.661-12.661H123.619z"/>
					
						<path fill="#E3F2FD" stroke="#1565C0" stroke-width="3" stroke-linecap="round" stroke-linejoin="round" stroke-miterlimit="10" d="
						M160,169.803c0-9.973-8.025-18.063-17.971-18.186v18.449h17.957C159.988,169.977,160,169.894,160,169.803z"/>
					
						<path fill="#1565C0" stroke="#1565C0" stroke-width="3" stroke-linecap="round" stroke-linejoin="round" stroke-miterlimit="10" d="
						M141.803,151.604c-10.049,0-18.197,8.148-18.197,18.198c0,0.091,0.012,0.174,0.014,0.264h18.41v-18.449
						C141.953,151.615,141.877,151.604,141.803,151.604z"/>
				</g>
			</g>
		</g>
	</g>
	
		<polygon fill="#E3F2FD" stroke="#1565C0" stroke-width="3" stroke-linecap="round" stroke-linejoin="round" stroke-miterlimit="10" points="
		200,56 200,76 220,76 	"/>
</g>
<g>
	<g>
		
			<polygon fill="#FFFFFF" stroke="#1565C0" stroke-width="3" stroke-linecap="round" stroke-linejoin="round" stroke-miterlimit="10" points="
			256,260 144,260 144,108 236,108 256,128 		"/>
		<g>
			<g>
				
					<line fill="#FFFFFF" stroke="#1565C0" stroke-width="3" stroke-linecap="round" stroke-linejoin="round" stroke-miterlimit="10" x1="221.844" y1="152.232" x2="159.602" y2="152.232"/>
				
					<line fill="#FFFFFF" stroke="#1565C0" stroke-width="3" stroke-linecap="round" stroke-linejoin="round" stroke-miterlimit="10" x1="221.844" y1="168.232" x2="159.602" y2="168.232"/>
				
					<line fill="#FFFFFF" stroke="#1565C0" stroke-width="3" stroke-linecap="round" stroke-linejoin="round" stroke-miterlimit="10" x1="221.844" y1="136.232" x2="159.602" y2="136.232"/>
				
					<line fill="#FFFFFF" stroke="#1565C0" stroke-width="3" stroke-linecap="round" stroke-linejoin="round" stroke-miterlimit="10" x1="213.844" y1="144.076" x2="159.602" y2="144.076"/>
				
					<line fill="#FFFFFF" stroke="#1565C0" stroke-width="3" stroke-linecap="round" stroke-linejoin="round" stroke-miterlimit="10" x1="216" y1="160.377" x2="159.602" y2="160.377"/>
				
					<line fill="#FFFFFF" stroke="#1565C0" stroke-width="3" stroke-linecap="round" stroke-linejoin="round" stroke-miterlimit="10" x1="213.844" y1="176" x2="159.602" y2="176"/>
			</g>
			<g>
				<g>
					
						<polyline fill="#FFFFFF" stroke="#1565C0" stroke-width="3" stroke-linecap="round" stroke-linejoin="round" stroke-miterlimit="10" points="
						240,239.604 208,239.604 208,203.604 					"/>
					
						<line fill="none" stroke="#1565C0" stroke-width="3" stroke-linecap="round" stroke-linejoin="round" stroke-miterlimit="10" x1="216" y1="239.604" x2="216" y2="223.604"/>
					
						<line fill="none" stroke="#1565C0" stroke-width="3" stroke-linecap="round" stroke-linejoin="round" stroke-miterlimit="10" x1="224" y1="239.604" x2="224" y2="215.604"/>
					
						<line fill="none" stroke="#1565C0" stroke-width="3" stroke-linecap="round" stroke-linejoin="round" stroke-miterlimit="10" x1="232" y1="239.604" x2="232" y2="227.604"/>
					
						<line fill="none" stroke="#1565C0" stroke-width="3" stroke-linecap="round" stroke-linejoin="round" stroke-miterlimit="10" x1="240" y1="239.604" x2="240" y2="211.604"/>
				</g>
				<g>
					
						<path fill="#FFFFFF" stroke="#1565C0" stroke-width="3" stroke-linecap="round" stroke-linejoin="round" stroke-miterlimit="10" d="
						M178.029,222.066h-0.085l12.661,12.661c3.266-3.241,5.311-7.712,5.381-12.661H178.029z"/>
					
						<path fill="#E3F2FD" stroke="#1565C0" stroke-width="3" stroke-linecap="round" stroke-linejoin="round" stroke-miterlimit="10" d="
						M159.619,222.066c0.143,9.929,8.225,17.934,18.184,17.934c4.996,0,9.518-2.015,12.803-5.272l-12.661-12.661H159.619z"/>
					
						<path fill="#E3F2FD" stroke="#1565C0" stroke-width="3" stroke-linecap="round" stroke-linejoin="round" stroke-miterlimit="10" d="
						M196,221.803c0-9.973-8.025-18.063-17.971-18.186v18.449h17.957C195.988,221.977,196,221.894,196,221.803z"/>
					
						<path fill="#1565C0" stroke="#1565C0" stroke-width="3" stroke-linecap="round" stroke-linejoin="round" stroke-miterlimit="10" d="
						M177.803,203.604c-10.049,0-18.197,8.148-18.197,18.198c0,0.091,0.012,0.174,0.014,0.264h18.41v-18.449
						C177.953,203.615,177.877,203.604,177.803,203.604z"/>
				</g>
			</g>
		</g>
	</g>
	
		<polygon fill="#E3F2FD" stroke="#1565C0" stroke-width="3" stroke-linecap="round" stroke-linejoin="round" stroke-miterlimit="10" points="
		236,108 236,128 256,128 	"/>
</g>
</svg>
