<?xml version="1.0" encoding="utf-8"?>
<!-- Generator: Adobe Illustrator 16.0.4, SVG Export Plug-In . SVG Version: 6.00 Build 0)  -->
<!DOCTYPE svg PUBLIC "-//W3C//DTD SVG 1.1//EN" "http://www.w3.org/Graphics/SVG/1.1/DTD/svg11.dtd">
<svg version="1.1" id="Layer_1" xmlns="http://www.w3.org/2000/svg" xmlns:xlink="http://www.w3.org/1999/xlink" x="0px" y="0px"
	 width="264px" height="264px" viewBox="0 0 264 264" enable-background="new 0 0 264 264" xml:space="preserve">
<g id="New_Symbol_13">
</g>
<g>
	<polyline fill="#1565C0" points="92,216 92,147.999 260,147.999 260,216 	"/>
	
		<polyline fill="none" stroke="#1565C0" stroke-width="3" stroke-linecap="round" stroke-linejoin="round" stroke-miterlimit="10" points="
		92,216 92,147.999 260,147.999 260,216 	"/>
</g>
<path fill="none" stroke="#1565C0" stroke-width="3" stroke-linecap="round" stroke-linejoin="round" stroke-miterlimit="10" d="
	M36,176V47.379C36,36.676,44.675,28.003,55.378,28H64"/>
<path fill="#1565C0" stroke="#1565C0" stroke-width="3" stroke-linecap="round" stroke-linejoin="round" stroke-miterlimit="10" d="
	M49.128,227.65c0,7.441-6.037,13.478-13.479,13.478c-7.445,0-13.479-6.036-13.479-13.478c0-7.444,6.034-13.48,13.479-13.48
	C43.092,214.17,49.128,220.206,49.128,227.65z M68,234.025V221.27h-8.374l-2.494-6.082l5.905-5.903l-9.022-9.021l-5.921,5.923
	l-6.065-2.535V195.3H29.271v8.374l-6.083,2.494l-5.904-5.904l-9.02,9.021l5.922,5.923l-2.538,6.062H3.299v12.756h8.374l2.496,6.086
	l-5.904,5.905l9.02,9.02l5.922-5.925l6.064,2.535V260h12.757v-8.375l6.083-2.497l5.904,5.908l9.022-9.02l-5.924-5.924l2.537-6.067
	H68z"/>
<g>
	
		<polygon fill="#E3F2FD" stroke="#1565C0" stroke-width="3" stroke-linecap="round" stroke-linejoin="round" stroke-miterlimit="10" points="
		243.586,144 108.414,144 108.414,4 219.448,4 243.586,28.138 	"/>
	
		<polygon fill="#E3F2FD" stroke="#1565C0" stroke-width="3" stroke-linecap="round" stroke-linejoin="round" stroke-miterlimit="10" points="
		219.448,4 219.448,28.138 243.586,28.138 	"/>
</g>
<g>
	
		<polygon fill="#E3F2FD" stroke="#1565C0" stroke-width="3" stroke-linecap="round" stroke-linejoin="round" stroke-miterlimit="10" points="
		243.586,192 108.414,192 108.414,52 219.448,52 243.586,76.138 	"/>
	
		<polygon fill="#E3F2FD" stroke="#1565C0" stroke-width="3" stroke-linecap="round" stroke-linejoin="round" stroke-miterlimit="10" points="
		219.448,52 219.448,76.138 243.586,76.138 	"/>
</g>
<g>
	
		<polygon fill="#FFFFFF" stroke="#1565C0" stroke-width="3" stroke-linecap="round" stroke-linejoin="round" stroke-miterlimit="10" points="
		243.586,248 108.414,248 108.414,108 219.448,108 243.586,132.138 	"/>
	
		<polygon fill="#E3F2FD" stroke="#1565C0" stroke-width="3" stroke-linecap="round" stroke-linejoin="round" stroke-miterlimit="10" points="
		219.448,108 219.448,132.138 243.586,132.138 	"/>
</g>
<g>
	<path fill="#E3F2FD" d="M92,184v60c0,8.8,7.2,16,16,16h136c8.8,0,16-7.2,16-16v-60"/>
	<path fill="none" stroke="#1565C0" stroke-width="3" stroke-linecap="round" stroke-linejoin="round" stroke-miterlimit="10" d="
		M92,184v60c0,8.8,7.2,16,16,16h136c8.8,0,16-7.2,16-16v-60"/>
</g>
<path fill="#FFFFFF" stroke="#1565C0" stroke-width="3" stroke-linecap="round" stroke-linejoin="round" stroke-miterlimit="10" d="
	M156,184c0,11.045,8.955,20,20,20s20-8.955,20-20"/>
<line fill="none" stroke="#1565C0" stroke-width="3" stroke-linecap="round" stroke-linejoin="round" stroke-miterlimit="10" x1="92" y1="184" x2="156" y2="184"/>
<line fill="none" stroke="#1565C0" stroke-width="3" stroke-linecap="round" stroke-linejoin="round" stroke-miterlimit="10" x1="196" y1="184" x2="260" y2="184"/>
</svg>
