<?xml version="1.0" encoding="utf-8"?>
<!-- Generator: Adobe Illustrator 16.0.4, SVG Export Plug-In . SVG Version: 6.00 Build 0)  -->
<!DOCTYPE svg PUBLIC "-//W3C//DTD SVG 1.1//EN" "http://www.w3.org/Graphics/SVG/1.1/DTD/svg11.dtd">
<svg version="1.1" id="Layer_1" xmlns="http://www.w3.org/2000/svg" xmlns:xlink="http://www.w3.org/1999/xlink" x="0px" y="0px"
	 width="264px" height="264px" viewBox="0 0 264 264" enable-background="new 0 0 264 264" xml:space="preserve">
<g id="New_Symbol_13">
</g>
<g>
	
		<line fill="#FFFFFF" stroke="#1565C0" stroke-width="3" stroke-linecap="round" stroke-linejoin="round" stroke-miterlimit="10" x1="45.814" y1="199.902" x2="45.814" y2="181.619"/>
	
		<line fill="#FFFFFF" stroke="#1565C0" stroke-width="3" stroke-linecap="round" stroke-linejoin="round" stroke-miterlimit="10" x1="45.814" y1="254.752" x2="45.814" y2="236.469"/>
	
		<line fill="#FFFFFF" stroke="#1565C0" stroke-width="3" stroke-linecap="round" stroke-linejoin="round" stroke-miterlimit="10" x1="82.381" y1="218.186" x2="64.097" y2="218.186"/>
	
		<line fill="#FFFFFF" stroke="#1565C0" stroke-width="3" stroke-linecap="round" stroke-linejoin="round" stroke-miterlimit="10" x1="9.248" y1="218.186" x2="27.531" y2="218.186"/>
	<g>
		<g>
			
				<line fill="#FFFFFF" stroke="#1565C0" stroke-width="3" stroke-linecap="round" stroke-linejoin="round" stroke-miterlimit="10" x1="19.636" y1="192.01" x2="45.814" y2="218.186"/>
		</g>
		<g>
			
				<line fill="#FFFFFF" stroke="#1565C0" stroke-width="3" stroke-linecap="round" stroke-linejoin="round" stroke-miterlimit="10" x1="19.636" y1="244.608" x2="45.813" y2="218.43"/>
		</g>
	</g>
	<g>
		<g>
			
				<line fill="#FFFFFF" stroke="#1565C0" stroke-width="3" stroke-linecap="round" stroke-linejoin="round" stroke-miterlimit="10" x1="72.25" y1="244.612" x2="46.07" y2="218.437"/>
		</g>
		<g>
			
				<line fill="#FFFFFF" stroke="#1565C0" stroke-width="3" stroke-linecap="round" stroke-linejoin="round" stroke-miterlimit="10" x1="72.25" y1="192.011" x2="46.072" y2="218.19"/>
		</g>
	</g>
	
		<circle fill="#E3F2FD" stroke="#1565C0" stroke-width="3" stroke-linecap="round" stroke-linejoin="round" stroke-miterlimit="10" cx="45.814" cy="218.186" r="22.101"/>
	<g>
		
			<path fill="#FFFFFF" stroke="#1565C0" stroke-width="3" stroke-linecap="round" stroke-linejoin="round" stroke-miterlimit="10" d="
			M51.06,181.621c0,2.898-2.349,5.245-5.246,5.245c-2.897,0-5.248-2.347-5.248-5.245c0-2.9,2.35-5.248,5.248-5.248
			C48.711,176.373,51.06,178.721,51.06,181.621z"/>
		
			<circle fill="#FFFFFF" stroke="#1565C0" stroke-width="3" stroke-linecap="round" stroke-linejoin="round" stroke-miterlimit="10" cx="45.813" cy="254.752" r="5.247"/>
	</g>
	<g>
		
			<circle fill="#FFFFFF" stroke="#1565C0" stroke-width="3" stroke-linecap="round" stroke-linejoin="round" stroke-miterlimit="10" cx="82.381" cy="218.185" r="5.247"/>
		
			<circle fill="#FFFFFF" stroke="#1565C0" stroke-width="3" stroke-linecap="round" stroke-linejoin="round" stroke-miterlimit="10" cx="9.248" cy="218.185" r="5.247"/>
	</g>
	<g>
		
			<path fill="#FFFFFF" stroke="#1565C0" stroke-width="3" stroke-linecap="round" stroke-linejoin="round" stroke-miterlimit="10" d="
			M75.378,196.041c-2.044,2.047-5.369,2.049-7.419,0c-2.047-2.049-2.047-5.371,0-7.42c2.05-2.053,5.375-2.053,7.421-0.002
			C77.429,190.67,77.429,193.992,75.378,196.041z"/>
		
			<path fill="#FFFFFF" stroke="#1565C0" stroke-width="3" stroke-linecap="round" stroke-linejoin="round" stroke-miterlimit="10" d="
			M23.667,247.752c-2.047,2.051-5.371,2.051-7.419,0c-2.052-2.047-2.051-5.368,0-7.42c2.048-2.051,5.372-2.051,7.419,0
			C25.716,242.384,25.716,245.705,23.667,247.752z"/>
	</g>
	<g>
		
			<path fill="#FFFFFF" stroke="#1565C0" stroke-width="3" stroke-linecap="round" stroke-linejoin="round" stroke-miterlimit="10" d="
			M67.959,247.752c-2.047-2.047-2.051-5.371-0.001-7.422c2.051-2.049,5.376-2.049,7.422,0.002c2.048,2.049,2.048,5.373,0,7.42
			C73.334,249.803,70.01,249.8,67.959,247.752z"/>
		
			<circle fill="#FFFFFF" stroke="#1565C0" stroke-width="3" stroke-linecap="round" stroke-linejoin="round" stroke-miterlimit="10" cx="19.958" cy="192.33" r="5.247"/>
	</g>
</g>
<g>
	
		<path fill="#1565C0" stroke="#1565C0" stroke-width="3" stroke-linecap="round" stroke-linejoin="round" stroke-miterlimit="10" d="
		M142.438,243.982c-5.741,1.737-11.804-1.509-13.544-7.253c-1.736-5.742,1.513-11.806,7.254-13.543
		c10.433-3.157,16.265-9.135,17.834-18.275c1.243-7.248-0.593-13.828-0.612-13.891c-1.737-5.744,1.506-11.808,7.251-13.544
		c5.742-1.737,11.806,1.509,13.542,7.253C179.696,203.012,175.815,233.882,142.438,243.982z"/>
	
		<line fill="#FFFFFF" stroke="#1565C0" stroke-width="3" stroke-linecap="round" stroke-linejoin="round" stroke-miterlimit="10" x1="128.982" y1="237.896" x2="124" y2="239.698"/>
	
		<line fill="#FFFFFF" stroke="#1565C0" stroke-width="3" stroke-linecap="round" stroke-linejoin="round" stroke-miterlimit="10" x1="160.621" y1="177.477" x2="158.815" y2="172"/>
	
		<line fill="#FFFFFF" stroke="#1565C0" stroke-width="3" stroke-linecap="round" stroke-linejoin="round" stroke-miterlimit="10" x1="170.452" y1="178.715" x2="173.149" y2="174.588"/>
	
		<line fill="#FFFFFF" stroke="#1565C0" stroke-width="3" stroke-linecap="round" stroke-linejoin="round" stroke-miterlimit="10" x1="131.332" y1="247.984" x2="134" y2="243.435"/>
	
		<line fill="#FFFFFF" stroke="#1565C0" stroke-width="3" stroke-linecap="round" stroke-linejoin="round" stroke-miterlimit="10" x1="142.526" y1="249.995" x2="140.665" y2="244.881"/>
	
		<line fill="#FFFFFF" stroke="#1565C0" stroke-width="3" stroke-linecap="round" stroke-linejoin="round" stroke-miterlimit="10" x1="154.156" y1="182.637" x2="148.954" y2="179.794"/>
	<circle fill="#FFFFFF" cx="138.921" cy="234.766" r="4.967"/>
	<circle fill="#FFFFFF" cx="155.966" cy="223.184" r="3.271"/>
	<circle fill="#FFFFFF" cx="164.677" cy="208.263" r="2.435"/>
	<circle fill="#FFFFFF" cx="164.203" cy="189.418" r="5.193"/>
</g>
<path fill="none" stroke="#1565C0" stroke-width="3" stroke-linecap="round" stroke-linejoin="round" stroke-miterlimit="10" d="
	M160.508,36l51.491,0.002l8-0.002C228.837,36,236,43.164,236,52v4"/>
<path fill="#E3F2FD" stroke="#1565C0" stroke-width="3" stroke-linecap="round" stroke-linejoin="round" stroke-miterlimit="10" d="
	M132.509,68l20-64H36.001c-17.673,0-32,14.327-32,32s14.327,32,32,32h0.702l-21.689,72.337C13.75,144.552,16.315,148,20.716,148
	h23.285h8h24v-5.5l-11.957-7.982L83.988,68H132.509z"/>
<circle fill="#FFFFFF" stroke="#1565C0" stroke-width="3" stroke-linecap="round" stroke-linejoin="round" stroke-miterlimit="10" cx="42.001" cy="130" r="6"/>
<line fill="#FFFFFF" stroke="#1565C0" stroke-width="3" stroke-linecap="round" stroke-linejoin="round" stroke-miterlimit="10" x1="4.001" y1="36" x2="125.016" y2="36"/>
<g>
	<g>
		
			<polyline fill="#FFFFFF" stroke="#1565C0" stroke-width="3" stroke-linecap="round" stroke-linejoin="round" stroke-miterlimit="10" points="
			216,240 216,92 255.965,92 255.965,240 		"/>
		<g>
			
				<rect x="212" y="68" fill="#E3F2FD" stroke="#1565C0" stroke-width="3" stroke-linecap="round" stroke-linejoin="round" stroke-miterlimit="10" width="48" height="40"/>
			
				<path fill="#FFFFFF" stroke="#1565C0" stroke-width="3" stroke-linecap="round" stroke-linejoin="round" stroke-miterlimit="10" d="
				M256,240c0,11.046-8.954,20-20,20c-11.045,0-20-8.954-20-20"/>
		</g>
	</g>
	
		<rect x="216" y="132" fill="#FFFFFF" stroke="#1565C0" stroke-width="3" stroke-linecap="round" stroke-linejoin="round" stroke-miterlimit="10" width="28.508" height="64"/>
	<g>
		
			<rect x="216.002" y="139.999" fill="#1565C0" stroke="#1565C0" stroke-width="3" stroke-linecap="round" stroke-linejoin="round" stroke-miterlimit="10" width="19.999" height="13.715"/>
		
			<rect x="215.999" y="160.571" fill="#1565C0" stroke="#1565C0" stroke-width="3" stroke-linecap="round" stroke-linejoin="round" stroke-miterlimit="10" width="20" height="0.087"/>
		
			<rect x="216.002" y="167.493" fill="#1565C0" stroke="#1565C0" stroke-width="3" stroke-linecap="round" stroke-linejoin="round" stroke-miterlimit="10" width="19.999" height="3.474"/>
		
			<rect x="216.002" y="177.67" fill="#1565C0" stroke="#1565C0" stroke-width="3" stroke-linecap="round" stroke-linejoin="round" stroke-miterlimit="10" width="19.999" height="10.329"/>
	</g>
</g>
<line fill="#E3F2FD" stroke="#1565C0" stroke-width="3" stroke-linecap="round" stroke-linejoin="round" stroke-miterlimit="10" x1="115.724" y1="68" x2="135.724" y2="4"/>
<g>
	<g>
		<path fill="#FFFFFF" d="M117.304,165.606c-1.556,1.556-4.038,1.618-5.516,0.14s-1.415-3.961,0.141-5.516l13.159-13.158
			c1.556-1.557,4.038-1.619,5.517-0.141s1.415,3.96-0.141,5.516L117.304,165.606z"/>
		<path fill="none" stroke="#1565C0" stroke-width="3" stroke-linecap="round" stroke-linejoin="round" stroke-miterlimit="10" d="
			M117.304,165.606c-1.556,1.556-4.038,1.618-5.516,0.14s-1.415-3.961,0.141-5.516l13.159-13.158
			c1.556-1.557,4.038-1.619,5.517-0.141s1.415,3.96-0.141,5.516L117.304,165.606z"/>
	</g>
	<g>
		<path fill="#FFFFFF" d="M87.333,169.549c-2.2,0-4-1.711-4-3.801c0-2.092,1.8-3.802,4-3.802l18.61-0.001c2.2,0,4,1.711,4,3.802
			s-1.8,3.802-4,3.802H87.333z"/>
		<path fill="none" stroke="#1565C0" stroke-width="3" stroke-linecap="round" stroke-linejoin="round" stroke-miterlimit="10" d="
			M87.333,169.549c-2.2,0-4-1.711-4-3.801c0-2.092,1.8-3.802,4-3.802l18.61-0.001c2.2,0,4,1.711,4,3.802s-1.8,3.802-4,3.802H87.333z
			"/>
	</g>
	<g>
		<path fill="#FFFFFF" d="M116.568,191.178c0,2.2-1.711,4-3.802,4.001s-3.802-1.799-3.802-3.999l0-18.609c0-2.2,1.71-4,3.801-4
			c2.091-0.001,3.801,1.799,3.801,3.999L116.568,191.178z"/>
		<path fill="none" stroke="#1565C0" stroke-width="3" stroke-linecap="round" stroke-linejoin="round" stroke-miterlimit="10" d="
			M116.568,191.178c0,2.2-1.711,4-3.802,4.001s-3.802-1.799-3.802-3.999l0-18.609c0-2.2,1.71-4,3.801-4
			c2.091-0.001,3.801,1.799,3.801,3.999L116.568,191.178z"/>
	</g>
	<g>
		<path fill="#FFFFFF" d="M155.902,144.243c2.2,0,4,1.71,4,3.802c0,2.09-1.8,3.801-4,3.801h-18.611c-2.2,0-4-1.711-4-3.801
			c0-2.092,1.801-3.802,4.001-3.802H155.902z"/>
		<path fill="none" stroke="#1565C0" stroke-width="3" stroke-linecap="round" stroke-linejoin="round" stroke-miterlimit="10" d="
			M155.902,144.243c2.2,0,4,1.71,4,3.802c0,2.09-1.8,3.801-4,3.801h-18.611c-2.2,0-4-1.711-4-3.801c0-2.092,1.801-3.802,4.001-3.802
			H155.902z"/>
	</g>
	<g>
		<path fill="#FFFFFF" d="M126.667,122.613c0-2.2,1.71-4,3.801-4.001s3.801,1.799,3.801,3.999l-0.001,18.609
			c0,2.2-1.71,4-3.801,4.001s-3.801-1.799-3.801-3.999L126.667,122.613z"/>
		<path fill="none" stroke="#1565C0" stroke-width="3" stroke-linecap="round" stroke-linejoin="round" stroke-miterlimit="10" d="
			M126.667,122.613c0-2.2,1.71-4,3.801-4.001s3.801,1.799,3.801,3.999l-0.001,18.609c0,2.2-1.71,4-3.801,4.001
			s-3.801-1.799-3.801-3.999L126.667,122.613z"/>
	</g>
</g>
</svg>
