<?xml version="1.0" encoding="utf-8"?>
<!-- Generator: Adobe Illustrator 16.0.4, SVG Export Plug-In . SVG Version: 6.00 Build 0)  -->
<!DOCTYPE svg PUBLIC "-//W3C//DTD SVG 1.1//EN" "http://www.w3.org/Graphics/SVG/1.1/DTD/svg11.dtd">
<svg version="1.1" id="Layer_1" xmlns="http://www.w3.org/2000/svg" xmlns:xlink="http://www.w3.org/1999/xlink" x="0px" y="0px"
	 width="264px" height="264px" viewBox="0 0 264 264" enable-background="new 0 0 264 264" xml:space="preserve">
<g id="New_Symbol_13">
</g>
<g>
	
		<polyline fill="#FFFFFF" stroke="#1565C0" stroke-width="3" stroke-linecap="round" stroke-linejoin="round" stroke-miterlimit="10" points="
		88,176 88,28 127.965,28 127.965,176 	"/>
	<g>
		
			<path fill="#FFFFFF" stroke="#1565C0" stroke-width="3" stroke-linecap="round" stroke-linejoin="round" stroke-miterlimit="10" d="
			M128,176c0,11.046-8.954,20-20,20c-11.045,0-20-8.954-20-20"/>
	</g>
</g>
<g>
	
		<polyline fill="#FFFFFF" stroke="#1565C0" stroke-width="3" stroke-linecap="round" stroke-linejoin="round" stroke-miterlimit="10" points="
		152,176 152,28 191.965,28 191.965,176 	"/>
	<g>
		
			<rect x="148" y="4" fill="#E3F2FD" stroke="#1565C0" stroke-width="3" stroke-linecap="round" stroke-linejoin="round" stroke-miterlimit="10" width="48" height="40"/>
		
			<path fill="#FFFFFF" stroke="#1565C0" stroke-width="3" stroke-linecap="round" stroke-linejoin="round" stroke-miterlimit="10" d="
			M192,176c0,11.046-8.954,20-20,20c-11.045,0-20-8.954-20-20"/>
	</g>
</g>
<g>
	
		<polyline fill="#FFFFFF" stroke="#1565C0" stroke-width="3" stroke-linecap="round" stroke-linejoin="round" stroke-miterlimit="10" points="
		216,176 216,28 255.965,28 255.965,176 	"/>
	<g>
		
			<path fill="#FFFFFF" stroke="#1565C0" stroke-width="3" stroke-linecap="round" stroke-linejoin="round" stroke-miterlimit="10" d="
			M256,176c0,11.046-8.954,20-20,20c-11.045,0-20-8.954-20-20"/>
	</g>
</g>
<g>
	<defs>
		<polyline id="SVGID_13_" points="152,176 152,28 191.965,28 191.965,176 		"/>
	</defs>
	<clipPath id="SVGID_2_">
		<use xlink:href="#SVGID_13_"  overflow="visible"/>
	</clipPath>
	
		<path clip-path="url(#SVGID_2_)" fill="#1565C0" stroke="#1565C0" stroke-width="3" stroke-linecap="round" stroke-linejoin="round" stroke-miterlimit="10" d="
		M111.479,169.188c-5.716-3.061-7.87-10.176-4.809-15.898c3.064-5.717,10.18-7.867,15.898-4.807
		c10.389,5.562,19.415,5.45,27.601-0.338c6.49-4.589,10.117-11.021,10.15-11.085c3.062-5.718,10.178-7.873,15.896-4.812
		c5.717,3.062,7.87,10.18,4.808,15.897C171.277,166.35,144.712,186.98,111.479,169.188z"/>
	
		<line clip-path="url(#SVGID_2_)" fill="#FFFFFF" stroke="#1565C0" stroke-width="3" stroke-linecap="round" stroke-linejoin="round" stroke-miterlimit="10" x1="105.847" y1="154.248" x2="100.66" y2="151.818"/>
	
		<line clip-path="url(#SVGID_2_)" fill="#FFFFFF" stroke="#1565C0" stroke-width="3" stroke-linecap="round" stroke-linejoin="round" stroke-miterlimit="10" x1="176.216" y1="132.248" x2="179.02" y2="126.684"/>
	
		<line clip-path="url(#SVGID_2_)" fill="#FFFFFF" stroke="#1565C0" stroke-width="3" stroke-linecap="round" stroke-linejoin="round" stroke-miterlimit="10" x1="182.782" y1="140.712" x2="188" y2="139.618"/>
	
		<line clip-path="url(#SVGID_2_)" fill="#FFFFFF" stroke="#1565C0" stroke-width="3" stroke-linecap="round" stroke-linejoin="round" stroke-miterlimit="10" x1="99.93" y1="163.758" x2="105.447" y2="162.319"/>
	
		<line clip-path="url(#SVGID_2_)" fill="#FFFFFF" stroke="#1565C0" stroke-width="3" stroke-linecap="round" stroke-linejoin="round" stroke-miterlimit="10" x1="106.952" y1="173.851" x2="109.438" y2="168.518"/>
	
		<line clip-path="url(#SVGID_2_)" fill="#FFFFFF" stroke="#1565C0" stroke-width="3" stroke-linecap="round" stroke-linejoin="round" stroke-miterlimit="10" x1="167.33" y1="131.251" x2="165.525" y2="125.104"/>
	<path clip-path="url(#SVGID_2_)" fill="#FFFFFF" d="M118.151,164.298c-2.679,1.279-5.883,0.144-7.162-2.529
		c-1.276-2.677-0.144-5.88,2.532-7.16c2.678-1.277,5.883-0.145,7.157,2.532C121.957,159.814,120.825,163.021,118.151,164.298z"/>
	<path clip-path="url(#SVGID_2_)" fill="#FFFFFF" d="M139.241,166.821c-1.763,0.842-3.873,0.096-4.714-1.667
		c-0.842-1.766-0.095-3.875,1.669-4.715c1.761-0.841,3.871-0.096,4.713,1.666C141.751,163.87,141.003,165.98,139.241,166.821z"/>
	<circle clip-path="url(#SVGID_2_)" fill="#FFFFFF" cx="155.782" cy="158.882" r="2.632"/>
	<path clip-path="url(#SVGID_2_)" fill="#FFFFFF" d="M172.244,149.181c-2.798,1.337-6.148,0.155-7.483-2.645
		c-1.335-2.799-0.153-6.149,2.645-7.487c2.798-1.334,6.152-0.148,7.485,2.649C176.228,144.496,175.042,147.847,172.244,149.181z"/>
	
		<path clip-path="url(#SVGID_2_)" fill="#1565C0" stroke="#1565C0" stroke-width="3" stroke-linecap="round" stroke-linejoin="round" stroke-miterlimit="10" d="
		M171.477,90.087c-5.09,4.017-5.961,11.399-1.943,16.495c4.02,5.092,11.402,5.959,16.495,1.942c9.251-7.3,18.157-8.773,27.232-4.512
		c7.194,3.378,11.894,9.073,11.938,9.13c4.019,5.093,11.402,5.965,16.495,1.947c5.09-4.018,5.961-11.402,1.942-16.494
		C230.845,82.385,201.071,66.737,171.477,90.087z"/>
	
		<line clip-path="url(#SVGID_2_)" fill="#FFFFFF" stroke="#1565C0" stroke-width="3" stroke-linecap="round" stroke-linejoin="round" stroke-miterlimit="10" x1="168.555" y1="105.783" x2="163.875" y2="109.086"/>
	
		<line clip-path="url(#SVGID_2_)" fill="#FFFFFF" stroke="#1565C0" stroke-width="3" stroke-linecap="round" stroke-linejoin="round" stroke-miterlimit="10" x1="241.693" y1="115.09" x2="245.43" y2="120.075"/>
	
		<line clip-path="url(#SVGID_2_)" fill="#FFFFFF" stroke="#1565C0" stroke-width="3" stroke-linecap="round" stroke-linejoin="round" stroke-miterlimit="10" x1="246.672" y1="105.604" x2="252" y2="105.766"/>
	
		<line clip-path="url(#SVGID_2_)" fill="#FFFFFF" stroke="#1565C0" stroke-width="3" stroke-linecap="round" stroke-linejoin="round" stroke-miterlimit="10" x1="161.061" y1="97.46" x2="166.745" y2="97.907"/>
	
		<line clip-path="url(#SVGID_2_)" fill="#FFFFFF" stroke="#1565C0" stroke-width="3" stroke-linecap="round" stroke-linejoin="round" stroke-miterlimit="10" x1="166.202" y1="86.291" x2="169.585" y2="91.105"/>
	
		<line clip-path="url(#SVGID_2_)" fill="#FFFFFF" stroke="#1565C0" stroke-width="3" stroke-linecap="round" stroke-linejoin="round" stroke-miterlimit="10" x1="233.12" y1="117.631" x2="232.422" y2="124"/>
	<path clip-path="url(#SVGID_2_)" fill="#FFFFFF" d="M178.903,93.729c-2.862-0.789-5.817,0.892-6.606,3.747
		c-0.786,2.859,0.891,5.814,3.75,6.604c2.86,0.788,5.817-0.891,6.601-3.749C183.438,97.476,181.76,94.517,178.903,93.729z"/>
	<path clip-path="url(#SVGID_2_)" fill="#FFFFFF" d="M199.224,87.544c-1.883-0.52-3.83,0.585-4.349,2.468
		c-0.519,1.887,0.587,3.831,2.471,4.349c1.882,0.52,3.827-0.584,4.348-2.467C202.212,90.009,201.105,88.062,199.224,87.544z"/>
	<circle clip-path="url(#SVGID_2_)" fill="#FFFFFF" cx="216.901" cy="92.456" r="2.633"/>
	<path clip-path="url(#SVGID_2_)" fill="#FFFFFF" d="M234.811,99.117c-2.989-0.825-6.08,0.927-6.903,3.917
		c-0.822,2.99,0.929,6.081,3.918,6.907c2.988,0.822,6.083-0.934,6.904-3.923C239.555,103.03,237.8,99.939,234.811,99.117z"/>
</g>
<g>
	<defs>
		<polyline id="SVGID_15_" points="216,176 216,28 255.965,28 255.965,176 		"/>
	</defs>
	<use xlink:href="#SVGID_15_"  overflow="visible" fill="#FFFFFF"/>
	<clipPath id="SVGID_4_">
		<use xlink:href="#SVGID_15_"  overflow="visible"/>
	</clipPath>
	<g clip-path="url(#SVGID_4_)">
		<path fill="#FFFFFF" d="M211.911,177.172c-1.556,1.555-4.102,1.556-5.657,0l-0.841-0.842c-1.556-1.556-1.556-4.102,0-5.656
			l17.091-17.092c1.556-1.555,4.101-1.556,5.657,0l0.842,0.842c1.556,1.556,1.556,4.102,0,5.656L211.911,177.172z"/>
		<path fill="none" stroke="#1565C0" stroke-width="3" stroke-linecap="round" stroke-linejoin="round" stroke-miterlimit="10" d="
			M211.911,177.172c-1.556,1.555-4.102,1.556-5.657,0l-0.841-0.842c-1.556-1.556-1.556-4.102,0-5.656l17.091-17.092
			c1.556-1.555,4.101-1.556,5.657,0l0.842,0.842c1.556,1.556,1.556,4.102,0,5.656L211.911,177.172z"/>
	</g>
	<g clip-path="url(#SVGID_4_)">
		<path fill="#FFFFFF" d="M245.581,85.326c-1.556-1.555-1.556-4.101,0-5.656l0.842-0.842c1.556-1.556,4.102-1.556,5.657,0
			l17.092,17.09c1.556,1.556,1.556,4.102,0,5.656l-0.844,0.843c-1.556,1.556-4.102,1.556-5.657-0.001L245.581,85.326z"/>
		<path fill="none" stroke="#1565C0" stroke-width="3" stroke-linecap="round" stroke-linejoin="round" stroke-miterlimit="10" d="
			M245.581,85.326c-1.556-1.555-1.556-4.101,0-5.656l0.842-0.842c1.556-1.556,4.102-1.556,5.657,0l17.092,17.09
			c1.556,1.556,1.556,4.102,0,5.656l-0.844,0.843c-1.556,1.556-4.102,1.556-5.657-0.001L245.581,85.326z"/>
	</g>
	<g clip-path="url(#SVGID_4_)">
		<path fill="#FFFFFF" d="M260,150.754c2.2,0,4,1.8,4,4v1.19c0,2.2-1.8,4-4,4l-24.172,0.001c-2.2,0-4-1.8-3.999-4v-1.191
			c0-2.2,1.801-4,4.001-4H260z"/>
		<path fill="none" stroke="#1565C0" stroke-width="3" stroke-linecap="round" stroke-linejoin="round" stroke-miterlimit="10" d="
			M260,150.754c2.2,0,4,1.8,4,4v1.19c0,2.2-1.8,4-4,4l-24.172,0.001c-2.2,0-4-1.8-3.999-4v-1.191c0-2.2,1.801-4,4.001-4H260z"/>
	</g>
	<g clip-path="url(#SVGID_4_)">
		<path fill="#FFFFFF" d="M223.82,123.769c0-2.2,1.8-4.001,4-4.001h1.191c2.2,0,4,1.799,4,3.999l-0.001,24.17
			c0,2.2-1.8,4.001-4,4.001h-1.191c-2.2,0-4-1.8-4-4L223.82,123.769z"/>
		<path fill="none" stroke="#1565C0" stroke-width="3" stroke-linecap="round" stroke-linejoin="round" stroke-miterlimit="10" d="
			M223.82,123.769c0-2.2,1.8-4.001,4-4.001h1.191c2.2,0,4,1.799,4,3.999l-0.001,24.17c0,2.2-1.8,4.001-4,4.001h-1.191
			c-2.2,0-4-1.8-4-4L223.82,123.769z"/>
	</g>
	
		<use xlink:href="#SVGID_15_"  overflow="visible" fill="none" stroke="#1565C0" stroke-width="3" stroke-linecap="round" stroke-linejoin="round" stroke-miterlimit="10"/>
</g>
<rect x="212" y="4" fill="#E3F2FD" stroke="#1565C0" stroke-width="3" stroke-linecap="round" stroke-linejoin="round" stroke-miterlimit="10" width="48" height="40"/>
<g>
	<defs>
		<polyline id="SVGID_17_" points="88,176 88,28 127.965,28 127.965,176 		"/>
	</defs>
	<clipPath id="SVGID_6_">
		<use xlink:href="#SVGID_17_"  overflow="visible"/>
	</clipPath>
	
		<line clip-path="url(#SVGID_6_)" fill="#FFFFFF" stroke="#1565C0" stroke-width="3" stroke-linecap="round" stroke-linejoin="round" stroke-miterlimit="10" x1="83.814" y1="128.525" x2="83.814" y2="112.867"/>
	
		<line clip-path="url(#SVGID_6_)" fill="#FFFFFF" stroke="#1565C0" stroke-width="3" stroke-linecap="round" stroke-linejoin="round" stroke-miterlimit="10" x1="83.814" y1="175.506" x2="83.814" y2="159.846"/>
	
		<line clip-path="url(#SVGID_6_)" fill="#FFFFFF" stroke="#1565C0" stroke-width="3" stroke-linecap="round" stroke-linejoin="round" stroke-miterlimit="10" x1="115.134" y1="144.186" x2="99.474" y2="144.186"/>
	
		<line clip-path="url(#SVGID_6_)" fill="#FFFFFF" stroke="#1565C0" stroke-width="3" stroke-linecap="round" stroke-linejoin="round" stroke-miterlimit="10" x1="52.495" y1="144.186" x2="68.154" y2="144.186"/>
	<g clip-path="url(#SVGID_6_)">
		<g>
			
				<line fill="#FFFFFF" stroke="#1565C0" stroke-width="3" stroke-linecap="round" stroke-linejoin="round" stroke-miterlimit="10" x1="61.393" y1="121.766" x2="83.814" y2="144.186"/>
		</g>
		<g>
			
				<line fill="#FFFFFF" stroke="#1565C0" stroke-width="3" stroke-linecap="round" stroke-linejoin="round" stroke-miterlimit="10" x1="61.393" y1="166.816" x2="83.812" y2="144.395"/>
		</g>
	</g>
	<g clip-path="url(#SVGID_6_)">
		<g>
			
				<line fill="#FFFFFF" stroke="#1565C0" stroke-width="3" stroke-linecap="round" stroke-linejoin="round" stroke-miterlimit="10" x1="106.457" y1="166.82" x2="84.033" y2="144.4"/>
		</g>
		<g>
			
				<line fill="#FFFFFF" stroke="#1565C0" stroke-width="3" stroke-linecap="round" stroke-linejoin="round" stroke-miterlimit="10" x1="106.457" y1="121.768" x2="84.035" y2="144.189"/>
		</g>
	</g>
	
		<circle clip-path="url(#SVGID_6_)" fill="#FFFFFF" stroke="#1565C0" stroke-width="3" stroke-linecap="round" stroke-linejoin="round" stroke-miterlimit="10" cx="83.814" cy="144.186" r="18.929"/>
	<g clip-path="url(#SVGID_6_)">
		
			<circle fill="#FFFFFF" stroke="#1565C0" stroke-width="3" stroke-linecap="round" stroke-linejoin="round" stroke-miterlimit="10" cx="83.813" cy="112.868" r="4.494"/>
		
			<circle fill="#FFFFFF" stroke="#1565C0" stroke-width="3" stroke-linecap="round" stroke-linejoin="round" stroke-miterlimit="10" cx="83.813" cy="175.506" r="4.494"/>
	</g>
	<g clip-path="url(#SVGID_6_)">
		
			<circle fill="#FFFFFF" stroke="#1565C0" stroke-width="3" stroke-linecap="round" stroke-linejoin="round" stroke-miterlimit="10" cx="115.134" cy="144.185" r="4.494"/>
		
			<circle fill="#FFFFFF" stroke="#1565C0" stroke-width="3" stroke-linecap="round" stroke-linejoin="round" stroke-miterlimit="10" cx="52.495" cy="144.185" r="4.494"/>
	</g>
	<g clip-path="url(#SVGID_6_)">
		
			<path fill="#FFFFFF" stroke="#1565C0" stroke-width="3" stroke-linecap="round" stroke-linejoin="round" stroke-miterlimit="10" d="
			M109.137,125.219c-1.752,1.754-4.599,1.756-6.355,0c-1.754-1.754-1.754-4.601,0-6.355c1.757-1.758,4.604-1.758,6.357-0.002
			C110.893,120.618,110.893,123.465,109.137,125.219z"/>
		
			<path fill="#FFFFFF" stroke="#1565C0" stroke-width="3" stroke-linecap="round" stroke-linejoin="round" stroke-miterlimit="10" d="
			M64.845,169.51c-1.754,1.756-4.601,1.756-6.354,0c-1.758-1.754-1.757-4.598,0-6.355c1.753-1.756,4.6-1.756,6.354,0
			C66.6,164.912,66.6,167.756,64.845,169.51z"/>
	</g>
	<g clip-path="url(#SVGID_6_)">
		
			<circle fill="#FFFFFF" stroke="#1565C0" stroke-width="3" stroke-linecap="round" stroke-linejoin="round" stroke-miterlimit="10" cx="105.96" cy="166.332" r="4.495"/>
		
			<circle fill="#FFFFFF" stroke="#1565C0" stroke-width="3" stroke-linecap="round" stroke-linejoin="round" stroke-miterlimit="10" cx="61.668" cy="122.04" r="4.494"/>
	</g>
	
		<line clip-path="url(#SVGID_6_)" fill="#1565C0" stroke="#1565C0" stroke-width="3" stroke-linecap="round" stroke-linejoin="round" stroke-miterlimit="10" x1="130.096" y1="78.264" x2="130.096" y2="70.435"/>
	
		<line clip-path="url(#SVGID_6_)" fill="#1565C0" stroke="#1565C0" stroke-width="3" stroke-linecap="round" stroke-linejoin="round" stroke-miterlimit="10" x1="130.096" y1="101.753" x2="130.096" y2="93.923"/>
	
		<line clip-path="url(#SVGID_6_)" fill="#1565C0" stroke="#1565C0" stroke-width="3" stroke-linecap="round" stroke-linejoin="round" stroke-miterlimit="10" x1="145.755" y1="86.093" x2="137.924" y2="86.093"/>
	
		<line clip-path="url(#SVGID_6_)" fill="#1565C0" stroke="#1565C0" stroke-width="3" stroke-linecap="round" stroke-linejoin="round" stroke-miterlimit="10" x1="114.436" y1="86.093" x2="122.265" y2="86.093"/>
	<g clip-path="url(#SVGID_6_)">
		<g>
			
				<line fill="#1565C0" stroke="#1565C0" stroke-width="3" stroke-linecap="round" stroke-linejoin="round" stroke-miterlimit="10" x1="118.884" y1="74.884" x2="130.096" y2="86.093"/>
		</g>
		<g>
			
				<line fill="#1565C0" stroke="#1565C0" stroke-width="3" stroke-linecap="round" stroke-linejoin="round" stroke-miterlimit="10" x1="118.884" y1="97.41" x2="130.094" y2="86.197"/>
		</g>
	</g>
	<g clip-path="url(#SVGID_6_)">
		<g>
			
				<line fill="#1565C0" stroke="#1565C0" stroke-width="3" stroke-linecap="round" stroke-linejoin="round" stroke-miterlimit="10" x1="141.416" y1="97.411" x2="130.204" y2="86.202"/>
		</g>
		<g>
			
				<line fill="#1565C0" stroke="#1565C0" stroke-width="3" stroke-linecap="round" stroke-linejoin="round" stroke-miterlimit="10" x1="141.416" y1="74.884" x2="130.205" y2="86.095"/>
		</g>
	</g>
	
		<circle clip-path="url(#SVGID_6_)" fill="#FFFFFF" stroke="#1565C0" stroke-width="3" stroke-linecap="round" stroke-linejoin="round" stroke-miterlimit="10" cx="130.095" cy="86.093" r="9.464"/>
	<g clip-path="url(#SVGID_6_)">
		
			<path fill="#1565C0" stroke="#1565C0" stroke-width="3" stroke-linecap="round" stroke-linejoin="round" stroke-miterlimit="10" d="
			M132.341,70.437c0,1.24-1.006,2.245-2.245,2.245c-1.242,0-2.249-1.005-2.249-2.245c0-1.242,1.006-2.249,2.249-2.249
			C131.334,68.188,132.341,69.194,132.341,70.437z"/>
		
			<circle fill="#1565C0" stroke="#1565C0" stroke-width="3" stroke-linecap="round" stroke-linejoin="round" stroke-miterlimit="10" cx="130.094" cy="101.753" r="2.247"/>
	</g>
	<g clip-path="url(#SVGID_6_)">
		
			<path fill="#1565C0" stroke="#1565C0" stroke-width="3" stroke-linecap="round" stroke-linejoin="round" stroke-miterlimit="10" d="
			M145.755,88.339c-1.242,0-2.248-1.004-2.248-2.246c0-1.238,1.006-2.248,2.248-2.248c1.239,0,2.245,1.01,2.245,2.248
			C148,87.335,146.994,88.339,145.755,88.339z"/>
		
			<circle fill="#FFFFFF" stroke="#1565C0" stroke-width="3" stroke-linecap="round" stroke-linejoin="round" stroke-miterlimit="10" cx="114.436" cy="86.092" r="2.247"/>
	</g>
	<g clip-path="url(#SVGID_6_)">
		
			<circle fill="#1565C0" stroke="#1565C0" stroke-width="3" stroke-linecap="round" stroke-linejoin="round" stroke-miterlimit="10" cx="141.167" cy="75.021" r="2.247"/>
		
			<circle fill="#FFFFFF" stroke="#1565C0" stroke-width="3" stroke-linecap="round" stroke-linejoin="round" stroke-miterlimit="10" cx="119.022" cy="97.167" r="2.247"/>
	</g>
	<g clip-path="url(#SVGID_6_)">
		
			<circle fill="#1565C0" stroke="#1565C0" stroke-width="3" stroke-linecap="round" stroke-linejoin="round" stroke-miterlimit="10" cx="141.167" cy="97.167" r="2.248"/>
		
			<circle fill="#FFFFFF" stroke="#1565C0" stroke-width="3" stroke-linecap="round" stroke-linejoin="round" stroke-miterlimit="10" cx="119.022" cy="75.021" r="2.247"/>
	</g>
	
		<use xlink:href="#SVGID_17_"  overflow="visible" fill="none" stroke="#1565C0" stroke-width="3" stroke-linecap="round" stroke-linejoin="round" stroke-miterlimit="10"/>
</g>
<rect x="84" y="4" fill="#E3F2FD" stroke="#1565C0" stroke-width="3" stroke-linecap="round" stroke-linejoin="round" stroke-miterlimit="10" width="48" height="40"/>
<path fill="none" stroke="#1565C0" stroke-width="3" stroke-linecap="round" stroke-linejoin="round" stroke-miterlimit="10" d="
	M36,176V47.379C36,36.676,44.675,28.003,55.378,28H64"/>
<path fill="#1565C0" stroke="#1565C0" stroke-width="3" stroke-linecap="round" stroke-linejoin="round" stroke-miterlimit="10" d="
	M49.128,227.65c0,7.441-6.037,13.478-13.479,13.478c-7.445,0-13.479-6.036-13.479-13.478c0-7.444,6.034-13.48,13.479-13.48
	C43.092,214.17,49.128,220.206,49.128,227.65z M68,234.025V221.27h-8.374l-2.494-6.082l5.905-5.903l-9.022-9.021l-5.921,5.923
	l-6.065-2.535V195.3H29.271v8.374l-6.083,2.494l-5.904-5.904l-9.02,9.021l5.922,5.923l-2.538,6.062H3.299v12.756h8.374l2.496,6.086
	l-5.904,5.905l9.02,9.02l5.922-5.925l6.064,2.535V260h12.757v-8.375l6.083-2.497l5.904,5.908l9.022-9.02l-5.924-5.924l2.537-6.067
	H68z"/>
</svg>
