<?xml version="1.0" encoding="utf-8"?>
<!-- Generator: Adobe Illustrator 16.0.4, SVG Export Plug-In . SVG Version: 6.00 Build 0)  -->
<!DOCTYPE svg PUBLIC "-//W3C//DTD SVG 1.1//EN" "http://www.w3.org/Graphics/SVG/1.1/DTD/svg11.dtd">
<svg version="1.1" id="Layer_1" xmlns="http://www.w3.org/2000/svg" xmlns:xlink="http://www.w3.org/1999/xlink" x="0px" y="0px"
	 width="264px" height="264px" viewBox="0 0 264 264" enable-background="new 0 0 264 264" xml:space="preserve">
<g id="New_Symbol_13">
</g>
<path fill="none" stroke="#1565C0" stroke-width="3" stroke-linecap="round" stroke-linejoin="round" stroke-miterlimit="10" d="
	M36,176V47.379C36,36.676,44.675,28.003,55.378,28H64"/>
<path fill="#1565C0" stroke="#1565C0" stroke-width="3" stroke-linecap="round" stroke-linejoin="round" stroke-miterlimit="10" d="
	M49.128,227.65c0,7.441-6.037,13.478-13.479,13.478c-7.445,0-13.479-6.036-13.479-13.478c0-7.444,6.034-13.48,13.479-13.48
	C43.092,214.17,49.128,220.206,49.128,227.65z M68,234.025V221.27h-8.374l-2.494-6.082l5.905-5.903l-9.022-9.021l-5.921,5.923
	l-6.065-2.535V195.3H29.271v8.374l-6.083,2.494l-5.904-5.904l-9.02,9.021l5.922,5.923l-2.538,6.062H3.299v12.756h8.374l2.496,6.086
	l-5.904,5.905l9.02,9.02l5.922-5.925l6.064,2.535V260h12.757v-8.375l6.083-2.497l5.904,5.908l9.022-9.02l-5.924-5.924l2.537-6.067
	H68z"/>
<line fill="#FFFFFF" stroke="#1565C0" stroke-width="3" stroke-linecap="round" stroke-linejoin="round" stroke-miterlimit="10" x1="148" y1="8" x2="196" y2="8"/>
<line fill="#FFFFFF" stroke="#1565C0" stroke-width="3" stroke-linecap="round" stroke-linejoin="round" stroke-miterlimit="10" x1="148" y1="24" x2="196" y2="24"/>
<line fill="#FFFFFF" stroke="#1565C0" stroke-width="3" stroke-linecap="round" stroke-linejoin="round" stroke-miterlimit="10" x1="148" y1="16" x2="184" y2="16"/>
<line fill="#FFFFFF" stroke="#1565C0" stroke-width="3" stroke-linecap="round" stroke-linejoin="round" stroke-miterlimit="10" x1="212" y1="56" x2="260" y2="56"/>
<line fill="#FFFFFF" stroke="#1565C0" stroke-width="3" stroke-linecap="round" stroke-linejoin="round" stroke-miterlimit="10" x1="212" y1="72" x2="260" y2="72"/>
<line fill="#FFFFFF" stroke="#1565C0" stroke-width="3" stroke-linecap="round" stroke-linejoin="round" stroke-miterlimit="10" x1="212" y1="64" x2="248" y2="64"/>
<line fill="#FFFFFF" stroke="#1565C0" stroke-width="3" stroke-linecap="round" stroke-linejoin="round" stroke-miterlimit="10" x1="212" y1="96" x2="260" y2="96"/>
<line fill="#FFFFFF" stroke="#1565C0" stroke-width="3" stroke-linecap="round" stroke-linejoin="round" stroke-miterlimit="10" x1="212" y1="112" x2="260" y2="112"/>
<line fill="#FFFFFF" stroke="#1565C0" stroke-width="3" stroke-linecap="round" stroke-linejoin="round" stroke-miterlimit="10" x1="212" y1="104" x2="248" y2="104"/>
<polyline fill="none" stroke="#1565C0" stroke-width="3" stroke-linecap="round" stroke-linejoin="round" stroke-miterlimit="10" points="
	104,16 104,104 156,104 "/>
<line fill="none" stroke="#1565C0" stroke-width="3" stroke-linecap="round" stroke-linejoin="round" stroke-miterlimit="10" x1="156" y1="64" x2="104" y2="64"/>
<g>
	<path fill="#E3F2FD" d="M132,20c0,4.4-3.6,8-8,8H92c-4.4,0-8-3.6-8-8v-8c0-4.4,3.6-8,8-8h32c4.4,0,8,3.6,8,8V20z"/>
	<path fill="none" stroke="#1565C0" stroke-width="3" stroke-linecap="round" stroke-linejoin="round" stroke-miterlimit="10" d="
		M132,20c0,4.4-3.6,8-8,8H92c-4.4,0-8-3.6-8-8v-8c0-4.4,3.6-8,8-8h32c4.4,0,8,3.6,8,8V20z"/>
</g>
<g>
	<path fill="#FFFFFF" d="M196,68c0,4.4-3.6,8-8,8h-32c-4.4,0-8-3.6-8-8v-8c0-4.4,3.6-8,8-8h32c4.4,0,8,3.6,8,8V68z"/>
	<path fill="none" stroke="#1565C0" stroke-width="3" stroke-linecap="round" stroke-linejoin="round" stroke-miterlimit="10" d="
		M196,68c0,4.4-3.6,8-8,8h-32c-4.4,0-8-3.6-8-8v-8c0-4.4,3.6-8,8-8h32c4.4,0,8,3.6,8,8V68z"/>
</g>
<g>
	<path fill="#FFFFFF" d="M196,108c0,4.4-3.6,8-8,8h-32c-4.4,0-8-3.6-8-8v-8c0-4.4,3.6-8,8-8h32c4.4,0,8,3.6,8,8V108z"/>
	<path fill="none" stroke="#1565C0" stroke-width="3" stroke-linecap="round" stroke-linejoin="round" stroke-miterlimit="10" d="
		M196,108c0,4.4-3.6,8-8,8h-32c-4.4,0-8-3.6-8-8v-8c0-4.4,3.6-8,8-8h32c4.4,0,8,3.6,8,8V108z"/>
</g>
<line fill="#FFFFFF" stroke="#1565C0" stroke-width="3" stroke-linecap="round" stroke-linejoin="round" stroke-miterlimit="10" x1="212" y1="136" x2="260" y2="136"/>
<line fill="#FFFFFF" stroke="#1565C0" stroke-width="3" stroke-linecap="round" stroke-linejoin="round" stroke-miterlimit="10" x1="212" y1="152" x2="260" y2="152"/>
<line fill="#FFFFFF" stroke="#1565C0" stroke-width="3" stroke-linecap="round" stroke-linejoin="round" stroke-miterlimit="10" x1="212" y1="144" x2="248" y2="144"/>
<polyline fill="none" stroke="#1565C0" stroke-width="3" stroke-linecap="round" stroke-linejoin="round" stroke-miterlimit="10" points="
	104,64 104,144 156,144 "/>
<g>
	<path fill="#FFFFFF" d="M196,148c0,4.4-3.6,8-8,8h-32c-4.4,0-8-3.6-8-8v-8c0-4.4,3.6-8,8-8h32c4.4,0,8,3.6,8,8V148z"/>
	<path fill="none" stroke="#1565C0" stroke-width="3" stroke-linecap="round" stroke-linejoin="round" stroke-miterlimit="10" d="
		M196,148c0,4.4-3.6,8-8,8h-32c-4.4,0-8-3.6-8-8v-8c0-4.4,3.6-8,8-8h32c4.4,0,8,3.6,8,8V148z"/>
</g>
<line fill="#FFFFFF" stroke="#1565C0" stroke-width="3" stroke-linecap="round" stroke-linejoin="round" stroke-miterlimit="10" x1="212" y1="176" x2="260" y2="176"/>
<line fill="#FFFFFF" stroke="#1565C0" stroke-width="3" stroke-linecap="round" stroke-linejoin="round" stroke-miterlimit="10" x1="212" y1="192" x2="260" y2="192"/>
<line fill="#FFFFFF" stroke="#1565C0" stroke-width="3" stroke-linecap="round" stroke-linejoin="round" stroke-miterlimit="10" x1="212" y1="184" x2="248" y2="184"/>
<polyline fill="none" stroke="#1565C0" stroke-width="3" stroke-linecap="round" stroke-linejoin="round" stroke-miterlimit="10" points="
	104,104 104,184 156,184 "/>
<g>
	<path fill="#FFFFFF" d="M196,188c0,4.4-3.6,8-8,8h-32c-4.4,0-8-3.6-8-8v-8c0-4.4,3.6-8,8-8h32c4.4,0,8,3.6,8,8V188z"/>
	<path fill="none" stroke="#1565C0" stroke-width="3" stroke-linecap="round" stroke-linejoin="round" stroke-miterlimit="10" d="
		M196,188c0,4.4-3.6,8-8,8h-32c-4.4,0-8-3.6-8-8v-8c0-4.4,3.6-8,8-8h32c4.4,0,8,3.6,8,8V188z"/>
</g>
</svg>
