<?xml version="1.0" encoding="utf-8"?>
<!-- Generator: Adobe Illustrator 16.0.4, SVG Export Plug-In . SVG Version: 6.00 Build 0)  -->
<!DOCTYPE svg PUBLIC "-//W3C//DTD SVG 1.1//EN" "http://www.w3.org/Graphics/SVG/1.1/DTD/svg11.dtd">
<svg version="1.1" id="Layer_1" xmlns="http://www.w3.org/2000/svg" xmlns:xlink="http://www.w3.org/1999/xlink" x="0px" y="0px"
	 width="264px" height="264px" viewBox="0 0 264 264" enable-background="new 0 0 264 264" xml:space="preserve">
<g id="New_Symbol_13">
</g>
<g>
	<path fill="none" stroke="#1565C0" stroke-width="3" stroke-linecap="round" stroke-linejoin="round" stroke-miterlimit="10" d="
		M58.52,176V79.379c0-10.703,8.676-19.376,19.378-19.379H92"/>
	
		<path fill="#1565C0" stroke="#1565C0" stroke-width="3" stroke-linecap="round" stroke-linejoin="round" stroke-miterlimit="10" d="
		M71.648,227.65c0,7.441-6.037,13.478-13.479,13.478c-7.444,0-13.479-6.036-13.479-13.478c0-7.444,6.035-13.48,13.479-13.48
		C65.611,214.17,71.648,220.206,71.648,227.65z M90.52,234.025V221.27h-8.374l-2.494-6.082l5.905-5.903l-9.022-9.021l-5.921,5.923
		l-6.066-2.535V195.3H51.791v8.374l-6.083,2.494l-5.904-5.904l-9.02,9.021l5.923,5.923l-2.538,6.062h-8.351v12.756h8.374
		l2.496,6.086l-5.904,5.905l9.02,9.02l5.923-5.925l6.064,2.535V260h12.756v-8.375l6.083-2.497l5.904,5.908l9.022-9.02l-5.924-5.924
		l2.536-6.067H90.52z"/>
	<g>
		
			<circle fill="#E3F2FD" stroke="#1565C0" stroke-width="3" stroke-linecap="round" stroke-linejoin="round" stroke-miterlimit="10" cx="177.091" cy="65.091" r="61.091"/>
		
			<circle fill="#E3F2FD" stroke="#1565C0" stroke-width="3" stroke-linecap="round" stroke-linejoin="round" stroke-miterlimit="10" cx="177.09" cy="65.091" r="48.582"/>
		<g>
			
				<line fill="#FFFFFF" stroke="#1565C0" stroke-width="3" stroke-linecap="round" stroke-linejoin="round" stroke-miterlimit="10" x1="198.924" y1="68.227" x2="198.924" y2="62.182"/>
			
				<line fill="#FFFFFF" stroke="#1565C0" stroke-width="3" stroke-linecap="round" stroke-linejoin="round" stroke-miterlimit="10" x1="198.924" y1="86.372" x2="198.924" y2="80.324"/>
			
				<line fill="#FFFFFF" stroke="#1565C0" stroke-width="3" stroke-linecap="round" stroke-linejoin="round" stroke-miterlimit="10" x1="211.02" y1="74.275" x2="204.973" y2="74.275"/>
			
				<line fill="#FFFFFF" stroke="#1565C0" stroke-width="3" stroke-linecap="round" stroke-linejoin="round" stroke-miterlimit="10" x1="186.83" y1="74.275" x2="192.877" y2="74.275"/>
			<g>
				<g>
					
						<line fill="#FFFFFF" stroke="#1565C0" stroke-width="3" stroke-linecap="round" stroke-linejoin="round" stroke-miterlimit="10" x1="190.266" y1="65.617" x2="198.924" y2="74.275"/>
				</g>
				<g>
					
						<line fill="#FFFFFF" stroke="#1565C0" stroke-width="3" stroke-linecap="round" stroke-linejoin="round" stroke-miterlimit="10" x1="190.266" y1="83.016" x2="198.924" y2="74.356"/>
				</g>
			</g>
			<g>
				<g>
					
						<line fill="#FFFFFF" stroke="#1565C0" stroke-width="3" stroke-linecap="round" stroke-linejoin="round" stroke-miterlimit="10" x1="207.669" y1="83.017" x2="199.009" y2="74.359"/>
				</g>
				<g>
					
						<line fill="#FFFFFF" stroke="#1565C0" stroke-width="3" stroke-linecap="round" stroke-linejoin="round" stroke-miterlimit="10" x1="207.669" y1="65.617" x2="199.01" y2="74.278"/>
				</g>
			</g>
			
				<circle fill="#FFFFFF" stroke="#1565C0" stroke-width="3" stroke-linecap="round" stroke-linejoin="round" stroke-miterlimit="10" cx="198.924" cy="74.275" r="7.31"/>
		</g>
		<path fill="none" stroke="#1565C0" stroke-width="3" stroke-linecap="round" stroke-linejoin="round" stroke-miterlimit="10" d="
			M185.478,28.625c2.841,2.84,2.841,7.443,0,10.283c-2.84,2.842-7.445,2.842-10.286,0l0,0c-2.84-2.84-7.444-2.84-10.285,0
			c-2.84,2.842-2.841,7.445,0,10.285"/>
		
			<path fill="#FFFFFF" stroke="#1565C0" stroke-width="3" stroke-linecap="round" stroke-linejoin="round" stroke-miterlimit="10" d="
			M169.375,78.22c0,5.647-4.576,10.219-10.219,10.219c-5.645,0-10.22-4.571-10.22-10.219c0-5.644,4.575-10.22,10.22-10.22
			C164.799,68,169.375,72.576,169.375,78.22z"/>
	</g>
	
		<circle fill="#E3F2FD" stroke="#1565C0" stroke-width="3" stroke-linecap="round" stroke-linejoin="round" stroke-miterlimit="10" cx="177.09" cy="198.909" r="61.091"/>
	
		<circle fill="#E3F2FD" stroke="#1565C0" stroke-width="3" stroke-linecap="round" stroke-linejoin="round" stroke-miterlimit="10" cx="177.09" cy="198.91" r="48.582"/>
	<g>
		<path fill="#FFFFFF" d="M146.424,212.332c-2.333-2.333-2.391-6.094-0.128-8.357c2.263-2.263,6.024-2.205,8.357,0.129
			l11.423,11.426c2.333,2.334,2.391,6.094,0.129,8.357c-2.262,2.262-6.022,2.204-8.356-0.129L146.424,212.332z"/>
		<path fill="none" stroke="#1565C0" stroke-width="3" stroke-linecap="round" stroke-linejoin="round" stroke-miterlimit="10" d="
			M146.424,212.332c-2.333-2.333-2.391-6.094-0.128-8.357c2.263-2.263,6.024-2.205,8.357,0.129l11.423,11.426
			c2.333,2.334,2.391,6.094,0.129,8.357c-2.262,2.262-6.022,2.204-8.356-0.129L146.424,212.332z"/>
	</g>
	<g>
		
			<line fill="#FFFFFF" stroke="#1565C0" stroke-width="3" stroke-linecap="round" stroke-linejoin="round" stroke-miterlimit="10" x1="160.227" y1="176.095" x2="154.182" y2="176.095"/>
		
			<line fill="#FFFFFF" stroke="#1565C0" stroke-width="3" stroke-linecap="round" stroke-linejoin="round" stroke-miterlimit="10" x1="178.372" y1="176.095" x2="172.324" y2="176.095"/>
		
			<line fill="#FFFFFF" stroke="#1565C0" stroke-width="3" stroke-linecap="round" stroke-linejoin="round" stroke-miterlimit="10" x1="166.275" y1="164" x2="166.275" y2="170.047"/>
		
			<line fill="#FFFFFF" stroke="#1565C0" stroke-width="3" stroke-linecap="round" stroke-linejoin="round" stroke-miterlimit="10" x1="166.275" y1="188.189" x2="166.275" y2="182.143"/>
		<g>
			<g>
				
					<line fill="#FFFFFF" stroke="#1565C0" stroke-width="3" stroke-linecap="round" stroke-linejoin="round" stroke-miterlimit="10" x1="157.617" y1="184.754" x2="166.275" y2="176.095"/>
			</g>
			<g>
				
					<line fill="#FFFFFF" stroke="#1565C0" stroke-width="3" stroke-linecap="round" stroke-linejoin="round" stroke-miterlimit="10" x1="175.016" y1="184.754" x2="166.356" y2="176.096"/>
			</g>
		</g>
		<g>
			<g>
				
					<line fill="#FFFFFF" stroke="#1565C0" stroke-width="3" stroke-linecap="round" stroke-linejoin="round" stroke-miterlimit="10" x1="175.018" y1="167.351" x2="166.359" y2="176.01"/>
			</g>
			<g>
				
					<line fill="#FFFFFF" stroke="#1565C0" stroke-width="3" stroke-linecap="round" stroke-linejoin="round" stroke-miterlimit="10" x1="157.617" y1="167.351" x2="166.278" y2="176.01"/>
			</g>
		</g>
		
			<path fill="#FFFFFF" stroke="#1565C0" stroke-width="3" stroke-linecap="round" stroke-linejoin="round" stroke-miterlimit="10" d="
			M166.275,168.785c4.04,0,7.31,3.273,7.31,7.31c0,4.038-3.27,7.311-7.31,7.311c-4.037,0-7.311-3.272-7.311-7.311
			C158.965,172.059,162.238,168.785,166.275,168.785z"/>
	</g>
	
		<path fill="#FFFFFF" stroke="#1565C0" stroke-width="3" stroke-linecap="round" stroke-linejoin="round" stroke-miterlimit="10" d="
		M196.401,203.561c5.647,0,10.219,4.576,10.219,10.219c0,5.645-4.571,10.221-10.219,10.221c-5.644,0-10.22-4.576-10.22-10.221
		C186.182,208.137,190.758,203.561,196.401,203.561z"/>
	
		<circle fill="#FFFFFF" stroke="#1565C0" stroke-width="3" stroke-linecap="round" stroke-linejoin="round" stroke-miterlimit="10" cx="198.401" cy="184" r="4.22"/>
</g>
</svg>
