<?xml version="1.0" encoding="utf-8"?>
<!-- Generator: Adobe Illustrator 16.0.4, SVG Export Plug-In . SVG Version: 6.00 Build 0)  -->
<!DOCTYPE svg PUBLIC "-//W3C//DTD SVG 1.1//EN" "http://www.w3.org/Graphics/SVG/1.1/DTD/svg11.dtd">
<svg version="1.1" id="Layer_1" xmlns="http://www.w3.org/2000/svg" xmlns:xlink="http://www.w3.org/1999/xlink" x="0px" y="0px"
	 width="264px" height="264px" viewBox="0 0 264 264" enable-background="new 0 0 264 264" xml:space="preserve">
<g id="New_Symbol_13">
</g>
<g>
	<path fill="#FFFFFF" d="M4,244V28C4,14.8,14.8,4,28,4h208c13.2,0,24,10.8,24,24v216"/>
	<path fill="none" stroke="#1565C0" stroke-width="3" stroke-linecap="round" stroke-linejoin="round" stroke-miterlimit="10" d="
		M4,244V28C4,14.8,14.8,4,28,4h208c13.2,0,24,10.8,24,24v216"/>
</g>
<g>
	
		<circle fill="#E3F2FD" stroke="#1565C0" stroke-width="3" stroke-linecap="round" stroke-linejoin="round" stroke-miterlimit="10" cx="190" cy="34" r="6"/>
	
		<circle fill="#E3F2FD" stroke="#1565C0" stroke-width="3" stroke-linecap="round" stroke-linejoin="round" stroke-miterlimit="10" cx="210" cy="34" r="6"/>
	
		<circle fill="#E3F2FD" stroke="#1565C0" stroke-width="3" stroke-linecap="round" stroke-linejoin="round" stroke-miterlimit="10" cx="230" cy="34" r="6"/>
</g>
<g>
	
		<line fill="none" stroke="#1565C0" stroke-width="3" stroke-linecap="round" stroke-linejoin="round" stroke-miterlimit="10" x1="52" y1="32" x2="20" y2="32"/>
	
		<line fill="none" stroke="#1565C0" stroke-width="3" stroke-linecap="round" stroke-linejoin="round" stroke-miterlimit="10" x1="36" y1="48" x2="36" y2="16"/>
	
		<polyline fill="none" stroke="#1565C0" stroke-width="3" stroke-linecap="round" stroke-linejoin="round" stroke-miterlimit="10" points="
		48.875,39.543 41.334,32 48.875,24.459 	"/>
	
		<polyline fill="none" stroke="#1565C0" stroke-width="3" stroke-linecap="round" stroke-linejoin="round" stroke-miterlimit="10" points="
		43.542,19.125 36,26.666 28.458,19.125 	"/>
	
		<polyline fill="none" stroke="#1565C0" stroke-width="3" stroke-linecap="round" stroke-linejoin="round" stroke-miterlimit="10" points="
		23.125,24.459 30.666,32 23.125,39.543 	"/>
	
		<polyline fill="none" stroke="#1565C0" stroke-width="3" stroke-linecap="round" stroke-linejoin="round" stroke-miterlimit="10" points="
		28.458,44.875 36,37.334 43.542,44.875 	"/>
</g>
<rect x="4" y="64" fill="#E3F2FD" stroke="#1565C0" stroke-width="3" stroke-linecap="round" stroke-linejoin="round" stroke-miterlimit="10" width="256" height="160"/>
<rect x="36" y="244" fill="#1565C0" stroke="#1565C0" stroke-width="2" stroke-linecap="round" stroke-linejoin="round" stroke-miterlimit="10" width="32" height="16"/>
<rect x="196" y="244" fill="#1565C0" stroke="#1565C0" stroke-width="2" stroke-linecap="round" stroke-linejoin="round" stroke-miterlimit="10" width="32" height="16"/>
<g>
	<line fill="#FFFFFF" x1="4" y1="244.331" x2="260" y2="244.331"/>
	
		<line fill="none" stroke="#1565C0" stroke-width="3" stroke-linecap="round" stroke-linejoin="round" stroke-miterlimit="10" x1="4" y1="244.331" x2="260" y2="244.331"/>
</g>
<g>
	<g>
		<g>
			<g>
				<g>
					<path fill="#FFFFFF" d="M40,179.66c-4.4,0-8-3.6-8-8v-39.32c0-4.4,3.6-8,8-8h7.979c4.4,0,8,3.6,8,8v39.32c0,4.4-3.6,8-8,8H40z"
						/>
					
						<path fill="none" stroke="#1565C0" stroke-width="3" stroke-linecap="round" stroke-linejoin="round" stroke-miterlimit="10" d="
						M40,179.66c-4.4,0-8-3.6-8-8v-39.32c0-4.4,3.6-8,8-8h7.979c4.4,0,8,3.6,8,8v39.32c0,4.4-3.6,8-8,8H40z"/>
				</g>
				<g>
					<path fill="#1565C0" d="M55.979,152.34v23.32c0,2.2-1.8,4-4,4H36c-2.2,0-4-1.8-4-4v-23.32"/>
					
						<path fill="none" stroke="#1565C0" stroke-width="3" stroke-linecap="round" stroke-linejoin="round" stroke-miterlimit="10" d="
						M55.979,152.34v23.32c0,2.2-1.8,4-4,4H36c-2.2,0-4-1.8-4-4v-23.32"/>
				</g>
				
					<rect x="28" y="108.34" fill="#E3F2FD" stroke="#1565C0" stroke-width="3" stroke-linecap="round" stroke-linejoin="round" stroke-miterlimit="10" width="32" height="24"/>
			</g>
			
				<rect x="32.057" y="141.672" fill="#FFFFFF" stroke="#1565C0" stroke-width="3" stroke-linecap="round" stroke-linejoin="round" stroke-miterlimit="10" width="11.885" height="24"/>
		</g>
	</g>
	<g>
		<g>
			<g>
				<g>
					<path fill="#FFFFFF" d="M84,179.66c-4.4,0-8-3.6-8-8v-39.32c0-4.4,3.6-8,8-8h7.979c4.4,0,8,3.6,8,8v39.32c0,4.4-3.6,8-8,8H84z"
						/>
					
						<path fill="none" stroke="#1565C0" stroke-width="3" stroke-linecap="round" stroke-linejoin="round" stroke-miterlimit="10" d="
						M84,179.66c-4.4,0-8-3.6-8-8v-39.32c0-4.4,3.6-8,8-8h7.979c4.4,0,8,3.6,8,8v39.32c0,4.4-3.6,8-8,8H84z"/>
				</g>
				<g>
					<path fill="#1565C0" d="M99.979,152.34v23.32c0,2.2-1.8,4-4,4H80c-2.2,0-4-1.8-4-4v-23.32"/>
					
						<path fill="none" stroke="#1565C0" stroke-width="3" stroke-linecap="round" stroke-linejoin="round" stroke-miterlimit="10" d="
						M99.979,152.34v23.32c0,2.2-1.8,4-4,4H80c-2.2,0-4-1.8-4-4v-23.32"/>
				</g>
				
					<rect x="72" y="108.34" fill="#E3F2FD" stroke="#1565C0" stroke-width="3" stroke-linecap="round" stroke-linejoin="round" stroke-miterlimit="10" width="32" height="24"/>
			</g>
			
				<rect x="76.057" y="141.672" fill="#FFFFFF" stroke="#1565C0" stroke-width="3" stroke-linecap="round" stroke-linejoin="round" stroke-miterlimit="10" width="11.885" height="24"/>
		</g>
	</g>
	<g>
		<g>
			<g>
				<g>
					<path fill="#FFFFFF" d="M128,179.66c-4.4,0-8-3.6-8-8v-39.32c0-4.4,3.6-8,8-8h7.979c4.4,0,8,3.6,8,8v39.32c0,4.4-3.6,8-8,8H128
						z"/>
					
						<path fill="none" stroke="#1565C0" stroke-width="3" stroke-linecap="round" stroke-linejoin="round" stroke-miterlimit="10" d="
						M128,179.66c-4.4,0-8-3.6-8-8v-39.32c0-4.4,3.6-8,8-8h7.979c4.4,0,8,3.6,8,8v39.32c0,4.4-3.6,8-8,8H128z"/>
				</g>
				<g>
					<path fill="#1565C0" d="M143.979,152.34v23.32c0,2.2-1.8,4-4,4H124c-2.2,0-4-1.8-4-4v-23.32"/>
					
						<path fill="none" stroke="#1565C0" stroke-width="3" stroke-linecap="round" stroke-linejoin="round" stroke-miterlimit="10" d="
						M143.979,152.34v23.32c0,2.2-1.8,4-4,4H124c-2.2,0-4-1.8-4-4v-23.32"/>
				</g>
				
					<rect x="116" y="108.34" fill="#E3F2FD" stroke="#1565C0" stroke-width="3" stroke-linecap="round" stroke-linejoin="round" stroke-miterlimit="10" width="32" height="24"/>
			</g>
			
				<rect x="120.057" y="141.672" fill="#FFFFFF" stroke="#1565C0" stroke-width="3" stroke-linecap="round" stroke-linejoin="round" stroke-miterlimit="10" width="11.885" height="24"/>
		</g>
	</g>
	<g>
		<g>
			<g>
				<g>
					<path fill="#FFFFFF" d="M172,179.66c-4.4,0-8-3.6-8-8v-39.32c0-4.4,3.6-8,8-8h7.979c4.4,0,8,3.6,8,8v39.32c0,4.4-3.6,8-8,8H172
						z"/>
					
						<path fill="none" stroke="#1565C0" stroke-width="3" stroke-linecap="round" stroke-linejoin="round" stroke-miterlimit="10" d="
						M172,179.66c-4.4,0-8-3.6-8-8v-39.32c0-4.4,3.6-8,8-8h7.979c4.4,0,8,3.6,8,8v39.32c0,4.4-3.6,8-8,8H172z"/>
				</g>
				<g>
					<path fill="#1565C0" d="M187.979,152.34v23.32c0,2.2-1.8,4-4,4H168c-2.2,0-4-1.8-4-4v-23.32"/>
					
						<path fill="none" stroke="#1565C0" stroke-width="3" stroke-linecap="round" stroke-linejoin="round" stroke-miterlimit="10" d="
						M187.979,152.34v23.32c0,2.2-1.8,4-4,4H168c-2.2,0-4-1.8-4-4v-23.32"/>
				</g>
				
					<rect x="160" y="108.34" fill="#E3F2FD" stroke="#1565C0" stroke-width="3" stroke-linecap="round" stroke-linejoin="round" stroke-miterlimit="10" width="32" height="24"/>
			</g>
			
				<rect x="164.057" y="141.672" fill="#FFFFFF" stroke="#1565C0" stroke-width="3" stroke-linecap="round" stroke-linejoin="round" stroke-miterlimit="10" width="11.885" height="24"/>
		</g>
	</g>
	<g>
		<g>
			<g>
				<g>
					<path fill="#FFFFFF" d="M216,179.66c-4.4,0-8-3.6-8-8v-39.32c0-4.4,3.6-8,8-8h7.979c4.4,0,8,3.6,8,8v39.32c0,4.4-3.6,8-8,8H216
						z"/>
					
						<path fill="none" stroke="#1565C0" stroke-width="3" stroke-linecap="round" stroke-linejoin="round" stroke-miterlimit="10" d="
						M216,179.66c-4.4,0-8-3.6-8-8v-39.32c0-4.4,3.6-8,8-8h7.979c4.4,0,8,3.6,8,8v39.32c0,4.4-3.6,8-8,8H216z"/>
				</g>
				<g>
					<path fill="#1565C0" d="M231.979,152.34v23.32c0,2.2-1.8,4-4,4H212c-2.2,0-4-1.8-4-4v-23.32"/>
					
						<path fill="none" stroke="#1565C0" stroke-width="3" stroke-linecap="round" stroke-linejoin="round" stroke-miterlimit="10" d="
						M231.979,152.34v23.32c0,2.2-1.8,4-4,4H212c-2.2,0-4-1.8-4-4v-23.32"/>
				</g>
				
					<rect x="204" y="108.34" fill="#E3F2FD" stroke="#1565C0" stroke-width="3" stroke-linecap="round" stroke-linejoin="round" stroke-miterlimit="10" width="32" height="24"/>
			</g>
			
				<rect x="208.057" y="141.672" fill="#FFFFFF" stroke="#1565C0" stroke-width="3" stroke-linecap="round" stroke-linejoin="round" stroke-miterlimit="10" width="11.885" height="24"/>
		</g>
	</g>
</g>
</svg>
