<?xml version="1.0" encoding="utf-8"?>
<!-- Generator: Adobe Illustrator 16.0.4, SVG Export Plug-In . SVG Version: 6.00 Build 0)  -->
<!DOCTYPE svg PUBLIC "-//W3C//DTD SVG 1.1//EN" "http://www.w3.org/Graphics/SVG/1.1/DTD/svg11.dtd">
<svg version="1.1" id="Layer_1" xmlns="http://www.w3.org/2000/svg" xmlns:xlink="http://www.w3.org/1999/xlink" x="0px" y="0px"
	 width="264px" height="264px" viewBox="0 0 264 264" enable-background="new 0 0 264 264" xml:space="preserve">
<g id="New_Symbol_13">
</g>
<path fill="none" stroke="#1565C0" stroke-width="3" stroke-linecap="round" stroke-linejoin="round" stroke-miterlimit="10" d="
	M160,36l51.491,0.001l8-0.001c8.838,0,16.001,7.164,16.001,16v4"/>
<path fill="#E3F2FD" stroke="#1565C0" stroke-width="3" stroke-linecap="round" stroke-linejoin="round" stroke-miterlimit="10" d="
	M132.001,68l20-64H35.493c-17.673,0-32,14.327-32,32s14.327,32,32,32h0.702l-21.689,72.337c-1.264,4.215,1.302,7.663,5.702,7.663
	h23.285h8h24v-5.5l-11.957-7.982L83.48,68H132.001z"/>
<circle fill="#FFFFFF" stroke="#1565C0" stroke-width="3" stroke-linecap="round" stroke-linejoin="round" stroke-miterlimit="10" cx="41.493" cy="130" r="6"/>
<line fill="#FFFFFF" stroke="#1565C0" stroke-width="3" stroke-linecap="round" stroke-linejoin="round" stroke-miterlimit="10" x1="3.493" y1="36" x2="124.508" y2="36"/>
<g>
	<g>
		
			<polyline fill="#FFFFFF" stroke="#1565C0" stroke-width="3" stroke-linecap="round" stroke-linejoin="round" stroke-miterlimit="10" points="
			215.492,240 215.492,92 255.457,92 255.457,240 		"/>
		<g>
			
				<rect x="211.492" y="68" fill="#E3F2FD" stroke="#1565C0" stroke-width="3" stroke-linecap="round" stroke-linejoin="round" stroke-miterlimit="10" width="48" height="40"/>
			
				<path fill="#FFFFFF" stroke="#1565C0" stroke-width="3" stroke-linecap="round" stroke-linejoin="round" stroke-miterlimit="10" d="
				M255.492,240c0,11.046-8.954,20-20,20c-11.045,0-20-8.954-20-20"/>
		</g>
	</g>
	
		<rect x="215.492" y="132" fill="#FFFFFF" stroke="#1565C0" stroke-width="3" stroke-linecap="round" stroke-linejoin="round" stroke-miterlimit="10" width="28.508" height="64"/>
	<g>
		
			<rect x="215.494" y="139.999" fill="#1565C0" stroke="#1565C0" stroke-width="3" stroke-linecap="round" stroke-linejoin="round" stroke-miterlimit="10" width="19.999" height="13.715"/>
		
			<rect x="215.491" y="160.571" fill="#1565C0" stroke="#1565C0" stroke-width="3" stroke-linecap="round" stroke-linejoin="round" stroke-miterlimit="10" width="20" height="0.087"/>
		
			<rect x="215.494" y="167.493" fill="#1565C0" stroke="#1565C0" stroke-width="3" stroke-linecap="round" stroke-linejoin="round" stroke-miterlimit="10" width="19.999" height="3.474"/>
		
			<rect x="215.494" y="177.67" fill="#1565C0" stroke="#1565C0" stroke-width="3" stroke-linecap="round" stroke-linejoin="round" stroke-miterlimit="10" width="19.999" height="10.329"/>
	</g>
</g>
<polyline fill="none" stroke="#1565C0" stroke-width="3" stroke-linecap="round" stroke-linejoin="round" stroke-miterlimit="10" points="
	3.492,180 3.492,168 15.492,168 "/>
<polyline fill="none" stroke="#1565C0" stroke-width="3" stroke-linecap="round" stroke-linejoin="round" stroke-miterlimit="10" points="
	136,168 148,168 148,180 "/>
<polyline fill="none" stroke="#1565C0" stroke-width="3" stroke-linecap="round" stroke-linejoin="round" stroke-miterlimit="10" points="
	148,248 148,260 136,260 "/>
<polyline fill="none" stroke="#1565C0" stroke-width="3" stroke-linecap="round" stroke-linejoin="round" stroke-miterlimit="10" points="
	15.492,260 3.492,260 3.492,248 "/>
<g>
	
		<rect x="15.492" y="179.998" fill="#1565C0" stroke="#1565C0" stroke-width="3" stroke-linecap="round" stroke-linejoin="round" stroke-miterlimit="10" width="13.715" height="67.992"/>
	
		<rect x="43.492" y="179.998" fill="#1565C0" stroke="#1565C0" stroke-width="3" stroke-linecap="round" stroke-linejoin="round" stroke-miterlimit="10" width="3.474" height="67.992"/>
	
		<rect x="112" y="179.998" fill="#1565C0" stroke="#1565C0" stroke-width="3" stroke-linecap="round" stroke-linejoin="round" stroke-miterlimit="10" width="4" height="67.992"/>
	
		<rect x="84" y="180" fill="#1565C0" stroke="#1565C0" stroke-width="3" stroke-linecap="round" stroke-linejoin="round" stroke-miterlimit="10" width="4" height="67.992"/>
	
		<rect x="55.492" y="179.998" fill="#1565C0" stroke="#1565C0" stroke-width="3" stroke-linecap="round" stroke-linejoin="round" stroke-miterlimit="10" width="20.508" height="67.992"/>
	
		<rect x="124" y="179.998" fill="#1565C0" stroke="#1565C0" stroke-width="3" stroke-linecap="round" stroke-linejoin="round" stroke-miterlimit="10" width="12" height="67.992"/>
</g>
<line fill="#1565C0" stroke="#1565C0" stroke-width="3" stroke-linecap="round" stroke-linejoin="round" stroke-miterlimit="10" x1="35.492" y1="180" x2="35.492" y2="248"/>
<line fill="#1565C0" stroke="#1565C0" stroke-width="3" stroke-linecap="round" stroke-linejoin="round" stroke-miterlimit="10" x1="104" y1="180" x2="104" y2="248"/>
<line fill="#E3F2FD" stroke="#1565C0" stroke-width="3" stroke-linecap="round" stroke-linejoin="round" stroke-miterlimit="10" x1="115.216" y1="68" x2="135.216" y2="4"/>
</svg>
